<svg width="67" height="54" viewBox="0 0 67 54" fill="none" xmlns="http://www.w3.org/2000/svg">
    <g clip-path="url(#clip0_326_3984)">
        <path d="M29.1015 1.60468L25.6973 4.99561L62.1903 41.346L65.5945 37.9551L29.1015 1.60468Z"
            fill="#858585" />
        <path d="M42.5438 14.5158L38.6812 18.3633L49.2972 28.9378L53.1598 25.0903L42.5438 14.5158Z"
            fill="#2C3E50" />
        <path d="M62.1708 20.2231L44.3918 37.9326L47.2888 40.8182L65.0678 23.1088L62.1708 20.2231Z"
            fill="#383838" />
        <path d="M62.1799 20.2182L44.4009 37.9277L45.8494 39.3705L63.6283 21.6611L62.1799 20.2182Z"
            fill="#1F1F1F" />
        <path d="M63.9074 24.2694L48.4631 39.6533L50.9812 42.1615L66.4255 26.7776L63.9074 24.2694Z"
            fill="#383838" />
        <path d="M63.9013 24.2723L48.457 39.6562L49.7772 40.9712L65.2215 25.5873L63.9013 24.2723Z"
            fill="#1F1F1F" />
        <path d="M64.7587 28.4317L52.6392 40.5039L54.6132 42.4703L66.7328 30.3981L64.7587 28.4317Z"
            fill="#383838" />
        <path d="M64.7643 28.4342L52.6448 40.5063L53.6349 41.4926L65.7544 29.4204L64.7643 28.4342Z"
            fill="#1F1F1F" />
        <path d="M63.478 33.6412L57.8369 39.2603L59.6704 41.0866L65.3115 35.4675L63.478 33.6412Z"
            fill="#2B2B2B" />
        <path
            d="M63.0578 36.4476L63.6974 37.0847L65.0544 35.733L64.4148 35.0959C64.3272 35.0077 64.2228 34.9376 64.1079 34.8898C63.9929 34.842 63.8695 34.8174 63.7449 34.8174C63.6203 34.8174 63.497 34.842 63.382 34.8898C63.267 34.9376 63.1627 35.0077 63.0751 35.0959C62.9827 35.1823 62.9088 35.2864 62.8577 35.4019C62.8067 35.5174 62.7795 35.6419 62.7779 35.7681C62.7763 35.8943 62.8003 36.0195 62.8483 36.1363C62.8964 36.253 62.9677 36.3589 63.0578 36.4476Z"
            fill="#0F0F0F" />
        <path
            d="M59.2549 40.2361L59.8859 40.8732L61.2429 39.556L60.6033 38.9275C60.5156 38.8392 60.4113 38.7692 60.2963 38.7214C60.1814 38.6735 60.058 38.6489 59.9334 38.6489C59.8088 38.6489 59.6854 38.6735 59.5705 38.7214C59.4555 38.7692 59.3512 38.8392 59.2636 38.9275C59.0913 39.1015 58.9941 39.3357 58.9925 39.58C58.9908 39.8244 59.085 40.0598 59.2549 40.2361Z"
            fill="#0F0F0F" />
        <path
            d="M61.1738 38.3246L61.8134 38.9617L63.1704 37.61L62.5308 36.9729C62.4431 36.8846 62.3388 36.8146 62.2238 36.7668C62.1089 36.719 61.9855 36.6943 61.8609 36.6943C61.7363 36.6943 61.6129 36.719 61.498 36.7668C61.383 36.8146 61.2787 36.8846 61.191 36.9729C61.0987 37.0593 61.0248 37.1633 60.9737 37.2788C60.9226 37.3943 60.8955 37.5189 60.8939 37.6451C60.8923 37.7713 60.9162 37.8965 60.9643 38.0132C61.0124 38.13 61.0836 38.2359 61.1738 38.3246Z"
            fill="#0F0F0F" />
        <path d="M44.3595 2.47069L26.5806 20.1802L29.4775 23.0658L47.2565 5.35632L44.3595 2.47069Z"
            fill="#383838" />
        <path d="M45.8051 3.9121L28.0261 21.6216L29.4746 23.0644L47.2536 5.35491L45.8051 3.9121Z"
            fill="#1F1F1F" />
        <path d="M40.6733 1.12094L25.229 16.5049L27.747 19.0131L43.1913 3.62913L40.6733 1.12094Z"
            fill="#383838" />
        <path d="M41.8711 2.31773L26.4268 17.7017L27.7469 19.0166L43.1912 3.6327L41.8711 2.31773Z"
            fill="#1F1F1F" />
        <path
            d="M37.0326 0.812605L24.9131 12.8848L26.8872 14.8511L39.0067 2.77897L37.0326 0.812605Z"
            fill="#383838" />
        <path d="M38.0258 1.79649L25.9062 13.8687L26.8963 14.8549L39.0159 2.78272L38.0258 1.79649Z"
            fill="#1F1F1F" />
        <path d="M31.9409 2.23982L26.2998 7.85889L28.1333 9.68523L33.7744 4.06617L31.9409 2.23982Z"
            fill="#2B2B2B" />
        <path
            d="M30.9914 4.4809L30.3518 3.8438L31.6829 2.53516L32.3225 3.17226C32.4972 3.35074 32.595 3.59018 32.595 3.83949C32.595 4.0888 32.4972 4.32825 32.3225 4.50673C32.1404 4.67481 31.8999 4.76603 31.6517 4.76121C31.4035 4.75639 31.1668 4.65592 30.9914 4.4809Z"
            fill="#0F0F0F" />
        <path
            d="M27.1538 8.26906L26.5142 7.63196L27.8712 6.28027L28.5108 6.91738C28.5993 7.00465 28.6697 7.10856 28.7177 7.22309C28.7657 7.33762 28.7904 7.4605 28.7904 7.58461C28.7904 7.70872 28.7657 7.8316 28.7177 7.94613C28.6697 8.06066 28.5993 8.16457 28.5108 8.25185C28.424 8.34385 28.3196 8.41748 28.2036 8.46834C28.0877 8.5192 27.9626 8.54625 27.8359 8.54785C27.7092 8.54946 27.5835 8.5256 27.4663 8.4777C27.3491 8.42979 27.2428 8.35884 27.1538 8.26906Z"
            fill="#0F0F0F" />
        <path
            d="M29.0813 6.35744L28.4417 5.72034L29.7986 4.36865L30.4382 5.00575C30.613 5.18424 30.7108 5.42368 30.7108 5.67299C30.7108 5.9223 30.613 6.16174 30.4382 6.34023C30.3503 6.43013 30.2454 6.5019 30.1296 6.55143C30.0138 6.60095 29.8893 6.62727 29.7633 6.62887C29.6373 6.63047 29.5122 6.60732 29.3952 6.56075C29.2782 6.51418 29.1715 6.44509 29.0813 6.35744Z"
            fill="#0F0F0F" />
        <path d="M4.93035 12.9436L1.52612 16.3345L38.0192 52.6849L41.4234 49.294L4.93035 12.9436Z"
            fill="#858585" />
        <path d="M18.3702 25.8488L14.5076 29.6963L25.1236 40.2708L28.9862 36.4233L18.3702 25.8488Z"
            fill="#2C3E50" />
        <path d="M37.9972 31.5561L20.2183 49.2656L23.1152 52.1513L40.8942 34.4418L37.9972 31.5561Z"
            fill="#383838" />
        <path d="M38.0002 31.5576L20.2212 49.2671L21.6697 50.7099L39.4486 33.0004L38.0002 31.5576Z"
            fill="#1F1F1F" />
        <path d="M39.7363 35.6087L24.292 50.9927L26.81 53.5009L42.2543 38.1169L39.7363 35.6087Z"
            fill="#383838" />
        <path d="M39.7339 35.6112L24.2896 50.9951L25.6097 52.3101L41.054 36.9261L39.7339 35.6112Z"
            fill="#1F1F1F" />
        <path d="M40.5875 39.7706L28.468 51.8428L30.4421 53.8091L42.5616 41.737L40.5875 39.7706Z"
            fill="#383838" />
        <path d="M40.5932 39.7731L28.4736 51.8452L29.4637 52.8314L41.5833 40.7593L40.5932 39.7731Z"
            fill="#1F1F1F" />
        <path d="M39.3044 44.9947L33.6633 50.6138L35.4968 52.4401L41.138 46.8211L39.3044 44.9947Z"
            fill="#2B2B2B" />
        <path
            d="M38.8827 47.7867L39.5223 48.4238L40.8793 47.0721L40.2397 46.4436C40.1521 46.3553 40.0477 46.2853 39.9328 46.2375C39.8178 46.1897 39.6944 46.165 39.5698 46.165C39.4452 46.165 39.3219 46.1897 39.2069 46.2375C39.0919 46.2853 38.9876 46.3553 38.9 46.4436C38.8089 46.5298 38.7361 46.6334 38.6859 46.7481C38.6356 46.8628 38.6089 46.9863 38.6073 47.1115C38.6056 47.2366 38.6292 47.3608 38.6765 47.4768C38.7238 47.5927 38.7939 47.6981 38.8827 47.7867Z"
            fill="#0F0F0F" />
        <path
            d="M35.0797 51.6089L35.7193 52.2374L37.0417 50.8599L36.4107 50.2314C36.3224 50.1429 36.2173 50.0727 36.1016 50.0247C35.9859 49.9768 35.8619 49.9521 35.7366 49.9521C35.6113 49.9521 35.4872 49.9768 35.3715 50.0247C35.2558 50.0727 35.1507 50.1429 35.0624 50.2314C34.9693 50.3211 34.8956 50.4288 34.8458 50.5479C34.796 50.6669 34.7712 50.7949 34.7728 50.9239C34.7744 51.0529 34.8025 51.1802 34.8552 51.298C34.908 51.4158 34.9844 51.5216 35.0797 51.6089Z"
            fill="#0F0F0F" />
        <path
            d="M37.0417 49.6634L37.6813 50.3005L39.0383 48.9488L38.3987 48.3117C38.3111 48.2235 38.2067 48.1534 38.0918 48.1056C37.9768 48.0578 37.8534 48.0332 37.7288 48.0332C37.6042 48.0332 37.4809 48.0578 37.3659 48.1056C37.2509 48.1534 37.1466 48.2235 37.059 48.3117C36.9666 48.3981 36.8927 48.5022 36.8416 48.6177C36.7906 48.7332 36.7634 48.8577 36.7618 48.9839C36.7602 49.1101 36.7841 49.2353 36.8322 49.3521C36.8803 49.4688 36.9516 49.5747 37.0417 49.6634Z"
            fill="#0F0F0F" />
        <path d="M20.1799 13.8183L2.40088 31.5278L5.29783 34.4135L23.0768 16.704L20.1799 13.8183Z"
            fill="#383838" />
        <path d="M21.634 15.251L3.85498 32.9604L5.30346 34.4033L23.0824 16.6938L21.634 15.251Z"
            fill="#1F1F1F" />
        <path d="M16.4936 12.4603L1.04932 27.8442L3.56734 30.3524L19.0116 14.9685L16.4936 12.4603Z"
            fill="#383838" />
        <path d="M17.6914 13.6654L2.24707 29.0493L3.5672 30.3643L19.0115 14.9803L17.6914 13.6654Z"
            fill="#1F1F1F" />
        <path d="M12.8617 12.1515L0.742188 24.2236L2.71627 26.19L14.8358 14.1178L12.8617 12.1515Z"
            fill="#383838" />
        <path d="M13.8461 13.1354L1.72656 25.2075L2.71666 26.1937L14.8362 14.1216L13.8461 13.1354Z"
            fill="#1F1F1F" />
        <path d="M7.76978 13.5787L2.12866 19.1978L3.96218 21.0241L9.60329 15.405L7.76978 13.5787Z"
            fill="#2B2B2B" />
        <path
            d="M6.79024 15.8194L6.15063 15.1823L7.50763 13.8306L8.14723 14.4677C8.23582 14.5549 8.30615 14.6589 8.35415 14.7734C8.40215 14.8879 8.42686 15.0108 8.42686 15.1349C8.42686 15.259 8.40215 15.3819 8.35415 15.4964C8.30615 15.611 8.23582 15.7149 8.14723 15.8021C8.06051 15.8941 7.95605 15.9678 7.8401 16.0186C7.72415 16.0695 7.59909 16.0965 7.47241 16.0981C7.34572 16.0998 7.22002 16.0759 7.1028 16.028C6.98559 15.9801 6.87928 15.9091 6.79024 15.8194Z"
            fill="#0F0F0F" />
        <path
            d="M2.97861 19.6076L2.34766 18.9791L3.70465 17.6274L4.33561 18.2559C4.42446 18.3439 4.49497 18.4486 4.54309 18.5638C4.5912 18.6791 4.61597 18.8027 4.61597 18.9275C4.61597 19.0523 4.5912 19.1759 4.54309 19.2911C4.49497 19.4064 4.42446 19.511 4.33561 19.599C4.24768 19.6894 4.14255 19.7614 4.02637 19.8108C3.91018 19.8603 3.78527 19.8861 3.65893 19.8869C3.53258 19.8878 3.40735 19.8635 3.29054 19.8155C3.17373 19.7675 3.06769 19.6969 2.97861 19.6076Z"
            fill="#0F0F0F" />
        <path
            d="M4.90596 17.6963L4.26636 17.0592L5.62335 15.7075L6.26295 16.3446C6.35154 16.4319 6.42187 16.5358 6.46987 16.6503C6.51787 16.7649 6.54259 16.8877 6.54259 17.0119C6.54259 17.136 6.51787 17.2588 6.46987 17.3734C6.42187 17.4879 6.35154 17.5918 6.26295 17.6791C6.17623 17.7711 6.07177 17.8447 5.95582 17.8956C5.83987 17.9465 5.71481 17.9735 5.58813 17.9751C5.46145 17.9767 5.33574 17.9528 5.21853 17.9049C5.10131 17.857 4.99501 17.7861 4.90596 17.6963Z"
            fill="#0F0F0F" />
    </g>
    <defs>
        <clipPath id="clip0_326_3984">
            <rect width="66" height="53" fill="white" transform="translate(0.73999 0.812988)" />
        </clipPath>
    </defs>
</svg>
