<svg width="317" height="416" viewBox="0 0 317 416" fill="none" xmlns="http://www.w3.org/2000/svg">
    <ellipse opacity="0.3" cx="165.817" cy="154.725" rx="151.027" ry="116.885" fill="white" />
    <g clip-path="url(#clip0_326_7475)">
        <path
            d="M149.966 403.35C143.808 403.361 137.667 402.711 131.648 401.411C121.128 399.254 111.219 394.796 102.633 388.357C94.048 381.918 87.0005 373.66 81.9987 364.176C78.0296 355.305 75.0811 346.014 73.2097 336.481L72.778 334.665C66.6103 308.447 58.8391 280.721 44.4993 255.672C42.1864 251.641 39.6577 247.609 37.2215 243.732C31.3275 234.952 26.3372 225.601 22.3266 215.821C16.1589 199.05 17.2999 182.371 25.7188 171.385C26.8278 169.679 28.2707 168.213 29.9611 167.076C31.6515 165.939 33.5546 165.155 35.5562 164.769C36.7759 164.622 38.0128 164.727 39.1904 165.076C40.3681 165.425 41.4612 166.012 42.4023 166.8C43.1364 167.384 43.7384 168.117 44.1689 168.949C44.5993 169.782 44.8486 170.696 44.9002 171.632H42.8957C42.8474 170.979 42.6635 170.344 42.3555 169.766C42.0476 169.189 41.6224 168.682 41.1071 168.277C40.3749 167.671 39.5283 167.216 38.6173 166.942C37.7063 166.667 36.7493 166.577 35.8029 166.677C32.3286 167.467 29.2921 169.561 27.3224 172.524C19.3352 183.017 18.0709 198.927 24.2385 215.052C28.2152 224.762 33.175 234.042 39.0409 242.747C41.4771 246.655 44.0059 250.687 46.3496 254.749C60.7202 279.982 68.584 307.862 74.7517 334.234L75.1834 336.05C77.0156 345.426 79.9125 354.563 83.8181 363.284C88.6788 372.5 95.5294 380.524 103.876 386.777C112.222 393.03 121.855 397.355 132.08 399.442C152.756 403.53 174.208 400.629 193.047 391.194C200.591 387.84 207.401 383.041 213.092 377.07C218.882 370.077 223.344 362.089 226.26 353.498C231.41 340.02 235.512 325.803 239.212 312.109C244.917 291.676 250.807 270.535 260.799 251.394C263.883 245.794 266.967 240.285 270.236 234.962C276.356 225.407 281.521 215.275 285.655 204.712C289.201 194.68 289.355 186.249 286.148 180.094C285.022 178.042 283.458 176.261 281.566 174.879C279.674 173.496 277.501 172.545 275.201 172.093C273.594 171.714 271.922 171.714 270.316 172.094C268.71 172.473 267.215 173.221 265.949 174.278L264.623 172.77C266.111 171.5 267.875 170.594 269.776 170.124C271.676 169.653 273.661 169.632 275.571 170.062C278.181 170.6 280.64 171.706 282.773 173.302C284.905 174.898 286.658 176.944 287.906 179.294C291.391 186.064 291.236 194.865 287.505 205.451C283.328 216.147 278.08 226.395 271.839 236.039C268.755 241.362 265.363 246.84 262.588 252.379C252.719 271.335 246.86 292.383 241.186 312.693C237.331 326.48 233.353 340.727 228.141 354.267C225.16 363.096 220.582 371.304 214.634 378.485C208.756 384.647 201.726 389.602 193.942 393.072C180.236 399.729 165.21 403.241 149.966 403.35Z"
            fill="#AB8DA8" />
        <path
            d="M172.601 45.0332C174.196 42.5076 175.109 39.6138 175.253 36.6322C175.427 35.2932 175.305 33.9323 174.895 32.6456C174.485 31.3589 173.796 30.1777 172.879 29.1852C172.108 28.4467 171.152 27.862 170.443 27.0619C169.733 26.2618 169.394 25.431 168.808 24.6617C168.173 23.8363 167.356 23.1682 166.42 22.7092C165.484 22.2502 164.454 22.0128 163.412 22.0152C161.284 22.0152 159.033 22.9999 157.244 22.0152C156.134 21.4613 155.394 20.3535 154.16 19.738C152.999 19.1484 151.667 18.985 150.398 19.2764C149.289 19.6624 148.118 19.8398 146.944 19.7996C145.279 19.5534 144.138 18.0763 142.657 17.2454C141.896 16.8572 141.06 16.6398 140.206 16.6085C139.352 16.5771 138.501 16.7325 137.714 17.0638C136.926 17.3951 136.221 17.8943 135.647 18.5264C135.074 19.1585 134.645 19.9081 134.393 20.7228C134.192 21.4998 134.192 22.3152 134.393 23.0922C134.732 24.9694 136.027 26.4772 136.12 28.3544C136.212 30.2315 135.071 31.8625 136.12 33.5242C137.168 35.1859 138.71 35.2475 139.45 36.8169C140.437 38.9402 139.45 41.7097 140.345 43.9869C140.807 45.4332 141.054 47.495 142.411 48.4182C144.292 49.7106 148.393 48.6336 150.645 48.4182L159.372 47.7104C163.227 47.3411 167.976 47.7104 171.46 45.8025C171.881 45.6115 172.267 45.3515 172.601 45.0332Z"
            fill="#3B2645" />
        <path
            d="M142.997 43.6793C142.691 43.2597 142.29 42.9182 141.826 42.6828C141.362 42.4474 140.85 42.3247 140.329 42.3247C139.809 42.3247 139.297 42.4474 138.833 42.6828C138.369 42.9182 137.968 43.2597 137.662 43.6793C134.979 46.7565 139.512 52.9111 142.997 53.2803C143.2 50.0832 143.2 46.8764 142.997 43.6793Z"
            fill="#FFEDE5" />
        <path
            d="M186.325 95.2233C185.512 100.407 184.421 105.543 183.056 110.61C182.84 111.564 182.655 112.487 182.532 113.379C182.408 114.272 182.285 114.949 182.131 116.087C182.131 116.303 182.131 116.549 182.131 116.764C182.131 117.503 181.915 118.272 181.822 119.103L177.937 155.261C153.79 161.877 128.595 155.261 128.595 155.261C128.595 155.261 128.595 154.799 128.595 153.907C128.195 149.814 126.961 136.797 125.727 122.119C125.727 122.119 125.727 121.903 125.727 121.811C125.74 121.585 125.74 121.359 125.727 121.134C125.203 114.979 124.71 108.456 124.309 102.239C123.569 91.4383 123.106 81.4679 123.199 75.2826C123.199 73.0054 128.534 73.2516 132.173 72.7593C134.856 72.39 137.6 72.1438 139.975 72.0207C142.349 71.8976 144.138 71.8361 145.341 71.8361H146.698C146.698 71.8361 147.006 68.2972 147.006 68.2665L147.839 59.5886C148.243 59.6927 148.656 59.7647 149.072 59.804C149.835 59.9467 150.609 60.029 151.385 60.0502C152.403 60.0502 153.359 60.0502 154.253 60.0502L155.579 59.8963H156.35C157.213 59.7424 158.046 59.5578 158.817 59.3424C159.588 59.127 159.835 59.0347 160.328 58.8808C162.581 58.1604 164.72 57.1243 166.681 55.8035L166.958 55.6189L167.483 55.2188L167.853 54.9419C167.853 55.3727 167.853 55.5573 167.853 55.742C167.606 57.773 167.328 60.3579 167.205 62.912C167.205 64.6968 167.02 66.4509 166.958 67.9587C166.897 69.4666 166.403 71.6514 167.483 72.4208C167.868 72.6367 168.284 72.7924 168.716 72.8824C170.409 73.1491 172.122 73.2624 173.835 73.2209C174.359 73.2209 174.884 73.2209 175.408 73.2209C176.723 73.1444 178.041 73.1444 179.355 73.2209C180.274 73.2182 181.184 73.3993 182.031 73.7534C182.879 74.1075 183.647 74.6275 184.289 75.2826C185.089 76.4372 185.596 77.7674 185.77 79.16L186.14 81.6833C186.727 86.1743 186.789 90.7181 186.325 95.2233Z"
            fill="#FFEDE5" />
        <path
            d="M167.729 54.7261C167.312 56.9283 166.411 59.011 165.091 60.8244C163.771 62.6377 162.065 64.1368 160.096 65.2137C158.126 66.2906 155.941 66.9186 153.699 67.0527C151.458 67.1867 149.214 66.8234 147.129 65.9889L147.715 59.6189C151.207 60.2912 154.804 60.202 158.259 59.3574C161.713 58.5129 164.944 56.933 167.729 54.7261Z"
            fill="#E0855C" fill-opacity="0.1" />
        <path
            d="M143.614 34.4475C141.825 36.2939 141.671 40.4174 141.547 44.9718C141.085 58.8195 145.248 63.1276 152.31 63.8969C159.372 64.6663 166.804 61.9275 168.315 49.1261C169.086 42.6946 169.888 36.817 167.544 34.0167C164.183 29.8932 149.041 28.7854 143.614 34.4475Z"
            fill="#FFEDE5" />
        <path
            d="M167.267 47.2487C167.267 47.2487 169.425 41.525 172.848 44.5714C176.271 47.6179 171.553 56.265 166.311 55.6188C166.372 55.6188 165.663 49.2181 167.267 47.2487Z"
            fill="#FFEDE5" />
        <path
            d="M171.338 47.1871C170.528 47.4395 169.803 47.9077 169.241 48.5411C168.604 49.072 168.088 49.7331 167.729 50.4798C167.729 50.6952 167.945 50.8491 168.1 50.6952C168.534 50.2658 168.946 49.8138 169.333 49.3412C169.614 49.6507 169.962 49.8927 170.351 50.049C170.659 50.049 170.906 49.772 170.782 49.5259C170.569 49.2 170.284 48.9265 169.95 48.7258C170.526 48.3579 171.072 47.9464 171.584 47.4949C171.594 47.4578 171.595 47.4191 171.587 47.3817C171.579 47.3443 171.562 47.3093 171.538 47.2794C171.514 47.2495 171.484 47.2257 171.449 47.2096C171.414 47.1936 171.376 47.1859 171.338 47.1871Z"
            fill="#E0855C" fill-opacity="0.1" />
        <path
            d="M147.622 44.6639C147.622 44.6639 146.42 45.0947 146.605 42.9714C146.79 40.8481 147.622 41.3404 147.622 41.3404C147.622 41.3404 148.455 41.3404 148.332 43.0022C148.208 44.6639 147.622 44.6639 147.622 44.6639Z"
            fill="#3B2645" />
        <path
            d="M159.742 44.6639C159.742 44.6639 158.57 45.0947 158.755 42.9714C158.94 40.8481 159.742 41.3404 159.742 41.3404C159.742 41.3404 160.575 41.3404 160.452 43.0022C160.328 44.6639 159.742 44.6639 159.742 44.6639Z"
            fill="#3B2645" />
        <path
            d="M148.918 38.2322C148.434 37.9584 147.875 37.8438 147.322 37.9045C146.768 37.9653 146.248 38.1984 145.835 38.5707C145.814 38.6128 145.804 38.6595 145.806 38.7064C145.808 38.7533 145.822 38.7989 145.847 38.8389C145.872 38.879 145.906 38.912 145.947 38.9351C145.988 38.9582 146.034 38.9704 146.081 38.9707C146.513 38.9707 146.883 38.7246 147.315 38.6938C147.767 38.6723 148.219 38.7457 148.641 38.9092C149.042 39.0323 149.319 38.4168 148.918 38.2322Z"
            fill="#3B2645" />
        <path
            d="M161.562 39.2785C161.068 38.0476 158.94 37.9553 158.015 38.6938C157.971 38.7283 157.934 38.7726 157.909 38.8233C157.884 38.874 157.871 38.9297 157.871 38.9861C157.871 39.0426 157.884 39.0983 157.909 39.149C157.934 39.1997 157.971 39.244 158.015 39.2785C158.569 39.3246 159.126 39.3246 159.681 39.2785C160.129 39.3506 160.565 39.4852 160.976 39.6785C161.029 39.7561 161.111 39.8093 161.203 39.8267C161.296 39.844 161.391 39.8239 161.469 39.7708C161.547 39.7178 161.6 39.6361 161.618 39.5438C161.635 39.4515 161.615 39.356 161.562 39.2785Z"
            fill="#3B2645" />
        <path
            d="M150.059 54.5722C152.66 54.9125 155.304 54.4621 157.645 53.2798C157.295 54.1009 156.777 54.8399 156.123 55.4494C155.47 56.0588 154.696 56.5252 153.852 56.8187C151.169 57.5572 150.059 54.5722 150.059 54.5722Z"
            fill="white" />
        <path
            d="M134.486 75.2519C141.578 80.2062 142.226 89.8381 138.772 97.5312C136.428 102.67 132.08 106.271 129.521 111.133C126.853 115.848 123.756 120.309 120.269 124.457C112.621 134.151 105.343 142.921 102.537 146.244C92.8846 157.753 72.593 172.955 65.2844 178.248C63.6191 179.479 62.6323 180.156 62.6323 180.156C62.6323 180.156 55.632 176.494 57.4823 169.724C57.4823 169.724 85.2367 140.305 89.3382 134.305C93.8708 126.505 97.9883 118.472 101.674 110.24C106.402 101.111 111.326 92.105 116.445 83.222C118.789 79.1292 121.78 73.9902 126.93 73.067C129.008 72.8339 131.107 73.2764 132.913 74.3287C133.458 74.5986 133.984 74.9071 134.486 75.2519Z"
            fill="#FFEDE5" />
        <path
            d="M57.4825 169.755C58.2421 169.696 59.005 169.696 59.7645 169.755C59.7645 169.755 66.4256 173.447 65.2846 178.248C65.2846 178.248 64.5753 178.894 63.4651 179.879C62.3549 180.864 61.1523 182.033 59.7029 183.51C58.2535 184.987 54.9538 189.665 53.5352 189.265C53.2046 189.143 52.9157 188.929 52.7026 188.649L49.8346 185.572C48.231 183.787 45.5481 180.771 47.5834 178.402C46.1032 179.294 42.6493 181.479 40.9532 180.433L40.2439 179.294C40.2439 179.294 45.3322 175.509 47.4292 173.632C50.2581 171.265 53.7938 169.902 57.4825 169.755Z"
            fill="#FFEDE5" />
        <path
            d="M142.904 122.396C142.894 122.56 142.894 122.724 142.904 122.888C142.904 122.888 143.182 122.888 143.12 122.888L142.904 122.396Z"
            fill="#D6BED3" />
        <path
            d="M253.614 414.89C250.345 415.228 247.045 415.505 243.684 415.659L53.874 415.813H53.2881H52.3013L48.9707 415.505C48.2101 415.505 47.4806 415.204 46.9428 414.667C46.4049 414.13 46.1028 413.402 46.1028 412.643C46.1028 411.884 46.4049 411.156 46.9428 410.62C47.4806 410.083 48.2101 409.781 48.9707 409.781L52.3321 409.474H53.2881H53.9049L243.684 409.628C247.014 409.628 250.314 410.028 253.614 410.397C254.085 410.555 254.495 410.857 254.786 411.26C255.077 411.663 255.233 412.147 255.233 412.643C255.233 413.14 255.077 413.624 254.786 414.027C254.495 414.43 254.085 414.732 253.614 414.89Z"
            fill="#C6C6C6" />
        <path
            d="M154.346 222.13C151.508 244.809 148.178 264.534 148.178 264.534C148.64 270.012 148.856 275.951 148.856 282.044C148.856 293.984 148.055 306.662 147.037 317.832C145.742 332.08 143.953 344.205 143.182 350.298V351.067C144.323 391.471 132.79 396.826 127.393 387.994C121.996 379.162 127.393 353.129 127.393 353.129C127.41 352.893 127.41 352.657 127.393 352.421C125.122 340.33 123.608 328.111 122.86 315.832C121.009 286.106 124.186 265.765 123.816 262.072C117.37 197.45 126.375 161.815 126.375 161.815C127.781 156.637 130.319 151.834 133.807 147.752C140.376 140.674 148.27 142.459 153.235 151.106C153.757 151.993 154.231 152.907 154.654 153.845C156.677 158.812 157.825 164.09 158.046 169.447C158.54 182.833 156.658 203.481 154.346 222.13Z"
            fill="#F5A784" />
        <path
            d="M186.201 314.263C185.484 326.797 183.98 339.274 181.699 351.621L181.421 353.129C181.421 353.129 186.818 379.255 181.421 387.994C176.025 396.734 164.614 391.625 165.632 351.621C165.632 351.436 165.632 351.252 165.632 351.098C164.769 345.313 163.042 332.788 161.685 317.956C160.636 306.693 159.834 294.076 159.834 282.136C159.834 275.982 160.081 270.073 160.544 264.565C160.544 264.565 157.121 244.84 154.376 222.191C152.063 203.512 150.151 182.864 150.953 169.601C151.184 164.242 152.342 158.964 154.376 153.999C154.78 153.032 155.254 152.096 155.795 151.199C161.5 141.321 170.998 140.459 177.998 151.599C180.004 154.828 181.579 158.304 182.686 161.938C182.686 161.938 191.69 197.481 185.245 262.196C184.783 265.827 187.836 285.46 186.201 314.263Z"
            fill="#F5A784" />
        <path
            d="M56.7424 189.726C57.3568 190.435 58.1199 191.002 58.9779 191.385C59.8359 191.767 60.7677 191.957 61.7074 191.941C62.1378 191.841 62.5435 191.655 62.8999 191.394C63.2562 191.134 63.5559 190.803 63.7808 190.424C64.0056 190.044 64.1509 189.623 64.208 189.185C64.2651 188.748 64.2327 188.304 64.1128 187.879C63.7542 186.943 63.1719 186.109 62.4167 185.448C57.7601 180.832 52.9801 176.217 48.1385 171.939C47.3294 171.029 46.2481 170.403 45.0547 170.154C43.9448 170.154 42.8707 170.546 42.0237 171.262C41.1766 171.978 40.6115 172.97 40.429 174.062C40.429 176.032 42.1251 176.77 43.5128 177.878C47.8918 181.756 52.2709 185.818 56.7424 189.726Z"
            fill="#3B2645" />
        <path
            d="M56.0633 184.279C56.2552 184.082 56.4117 183.853 56.5259 183.602C56.604 183.284 56.6086 182.953 56.5391 182.633C56.4696 182.313 56.328 182.013 56.125 181.756C54.984 179.879 52.6403 176.863 50.3274 176.586C49.5638 176.547 48.8033 176.709 48.1216 177.054C47.4399 177.4 46.8608 177.917 46.4418 178.556C45.7497 179.549 45.3096 180.695 45.1592 181.896C45.0088 183.097 45.1526 184.316 45.5783 185.449C46.2551 187.487 47.6456 189.213 49.4947 190.311C50.4175 190.701 51.4556 190.72 52.3923 190.365C53.329 190.009 54.0918 189.306 54.5214 188.403C54.984 187.264 54.8298 185.88 55.5699 184.926C55.7103 184.693 55.8757 184.476 56.0633 184.279Z"
            fill="#FFEDE5" />
        <path
            d="M174.082 75.2519C166.958 80.2063 166.311 89.8381 169.796 97.5313C172.108 102.67 176.457 106.271 179.047 111.133C181.736 115.835 184.832 120.293 188.299 124.457C195.946 134.151 203.255 142.921 206.031 146.244C215.714 157.815 236.005 172.955 243.314 178.248L245.997 180.156C245.997 180.156 252.966 176.494 251.116 169.724C251.116 169.724 223.362 140.305 219.26 134.305C214.715 126.512 210.597 118.479 206.925 110.24C202.176 101.009 197.272 92.1153 192.122 83.222C189.779 79.1292 186.818 73.9902 181.637 73.067C179.559 72.8362 177.462 73.2785 175.655 74.3287C175.108 74.5973 174.583 74.9058 174.082 75.2519Z"
            fill="#FFEDE5" />
        <path
            d="M251.085 169.754C250.315 169.696 249.542 169.696 248.772 169.754C248.772 169.754 242.111 173.447 243.252 178.248C243.252 178.248 243.992 178.894 245.072 179.878C246.151 180.863 247.415 182.033 248.834 183.51C250.253 184.987 253.614 189.664 255.002 189.264C255.328 189.134 255.615 188.922 255.834 188.649L258.671 185.571C260.306 183.787 262.958 180.771 260.953 178.401C262.403 179.294 265.857 181.479 267.584 180.432L268.17 179.294C268.17 179.294 263.081 175.509 260.953 173.632C258.179 171.295 254.712 169.932 251.085 169.754Z"
            fill="#FFEDE5" />
        <path
            d="M251.794 189.726C251.18 190.436 250.417 191.002 249.559 191.385C248.701 191.768 247.769 191.958 246.829 191.942C246.393 191.849 245.981 191.668 245.618 191.41C245.254 191.152 244.948 190.823 244.716 190.442C244.485 190.062 244.335 189.638 244.274 189.198C244.213 188.757 244.243 188.308 244.362 187.88C244.747 186.985 245.339 186.194 246.089 185.572C250.756 180.956 255.526 176.453 260.398 172.063C261.203 171.147 262.286 170.52 263.482 170.278C264.588 170.278 265.658 170.672 266.5 171.388C267.342 172.104 267.901 173.096 268.077 174.186C268.077 176.155 266.412 176.894 264.993 178.002C260.645 181.756 256.266 185.818 251.794 189.726Z"
            fill="#3B2645" />
        <path
            d="M252.504 184.279C252.293 184.091 252.125 183.86 252.01 183.602C251.945 183.282 251.95 182.951 252.025 182.632C252.099 182.314 252.241 182.015 252.442 181.756C253.552 179.879 255.896 176.863 258.209 176.586C258.973 176.547 259.733 176.709 260.415 177.054C261.096 177.4 261.676 177.917 262.095 178.556C262.779 179.554 263.207 180.704 263.341 181.906C263.476 183.108 263.312 184.325 262.866 185.449C262.209 187.498 260.813 189.231 258.949 190.311C258.026 190.701 256.988 190.72 256.051 190.365C255.115 190.009 254.352 189.306 253.922 188.403C253.491 187.264 253.645 185.88 252.874 184.926L252.504 184.279Z"
            fill="#FFEDE5" />
        <path
            d="M186.663 294.538V297.615C186.663 299.677 186.663 301.8 186.663 303.985V306.478C186.663 309.001 186.478 311.617 186.355 314.294C178.37 316.492 170.149 317.722 161.869 317.956C161.53 314.509 160.852 305.339 160.821 304.324C160.821 302.231 160.358 296.323 160.328 295.523C160.143 291.03 160.019 286.537 160.019 282.137C160.019 276.413 160.235 270.812 160.667 265.612C160.667 265.242 160.667 264.904 160.667 264.565C160.667 264.227 157.244 244.871 154.499 222.191C154.191 224.592 153.882 226.992 153.574 229.3C150.984 248.81 148.239 264.565 148.239 264.565C148.702 270.043 148.917 275.982 148.917 282.075C148.917 286.722 148.917 291.307 148.578 296.169C148.578 296.969 147.961 307.247 147.869 308.232C147.653 311.525 147.376 314.756 147.098 317.864C142.781 317.679 138.525 317.402 134.3 317.033C130.97 316.756 126.776 316.571 122.705 315.987C122.52 313.217 122.396 310.571 122.304 307.986C122.304 307.339 122.304 306.693 122.304 306.047C122.304 303.216 122.304 300.539 122.304 297.954V295.923C122.304 277.275 124.123 264.996 123.846 262.073C117.401 197.45 126.405 161.816 126.405 161.816C127.811 156.638 130.35 151.835 133.837 147.752C136.481 148.161 139.075 148.842 141.578 149.783C145.391 150.778 149.326 151.223 153.266 151.107H156.103C159.526 151.107 162.949 150.707 166.341 150.614H168.623C171.875 150.566 175.122 150.876 178.306 151.537C180.209 154.802 181.681 158.298 182.685 161.939C185.177 173.554 186.642 185.364 187.064 197.235C188.109 218.903 187.501 240.62 185.245 262.196C184.875 264.935 186.509 276.659 186.663 294.538Z"
            fill="#3B2645" />
        <path
            d="M142.997 351.067C143.429 366.976 141.918 377.439 139.574 383.747C135.997 393.502 130.322 393.379 127.239 388.117C126.406 386.657 125.832 385.064 125.542 383.409C123.291 372.423 127.239 353.252 127.239 353.252C127.256 353.016 127.256 352.779 127.239 352.544C128.773 353.661 130.512 354.466 132.358 354.913C134.428 355.421 136.608 355.245 138.571 354.413C140.533 353.581 142.172 352.137 143.244 350.297L142.997 351.067Z"
            fill="#AB8DA8" />
        <path
            d="M183.272 382.548C183.009 384.503 182.381 386.392 181.422 388.117C178.091 393.533 172.355 393.503 168.809 383.009C166.65 376.855 165.262 366.607 165.725 351.59C168.034 353.661 171.009 354.84 174.113 354.914C176.882 354.659 179.512 353.588 181.668 351.837C181.725 352.317 181.725 352.802 181.668 353.283C181.668 353.283 185.184 371.439 183.272 382.548Z"
            fill="#AB8DA8" />
        <path
            d="M138.34 360.514C136.778 359.585 134.993 359.094 133.175 359.094C131.356 359.094 129.571 359.585 128.009 360.514C127.951 360.578 127.913 360.657 127.898 360.742C127.882 360.827 127.891 360.915 127.923 360.995C127.956 361.075 128.01 361.144 128.079 361.195C128.149 361.246 128.232 361.277 128.318 361.283C129.86 361.283 131.402 360.637 132.851 360.668C134.548 360.812 136.223 361.142 137.847 361.653C137.986 361.67 138.127 361.642 138.248 361.572C138.37 361.503 138.465 361.396 138.521 361.268C138.577 361.14 138.589 360.997 138.556 360.861C138.524 360.725 138.448 360.603 138.34 360.514Z"
            fill="#291B30" />
        <path
            d="M137.847 365.438C135.213 363.906 132.123 363.351 129.119 363.868C128.102 363.868 128.071 365.561 129.119 365.469C130.57 365.33 132.034 365.392 133.468 365.653C134.794 365.899 135.996 366.453 137.322 366.73C137.486 366.765 137.656 366.742 137.803 366.664C137.951 366.585 138.066 366.458 138.128 366.304C138.191 366.149 138.197 365.978 138.146 365.82C138.094 365.661 137.988 365.526 137.847 365.438Z"
            fill="#291B30" />
        <path
            d="M178.677 360.514C176.333 359.714 171.245 359.406 169.426 361.56C169.179 361.837 169.426 362.422 169.765 362.391C171.214 362.207 172.479 361.622 173.99 361.56C175.501 361.499 177.074 361.899 178.492 361.807C178.577 361.819 178.664 361.814 178.747 361.793C178.83 361.771 178.908 361.734 178.977 361.683C179.046 361.631 179.104 361.567 179.148 361.493C179.191 361.419 179.22 361.338 179.232 361.253C179.244 361.168 179.24 361.081 179.218 360.998C179.197 360.915 179.16 360.837 179.108 360.769C179.056 360.7 178.992 360.642 178.918 360.599C178.844 360.555 178.762 360.526 178.677 360.514Z"
            fill="#291B30" />
        <path
            d="M179.818 365.715C177.258 364.576 170.874 363.745 169.579 367.192C169.394 367.653 169.98 368.023 170.35 367.807C171.683 367.066 173.167 366.639 174.691 366.559C176.214 366.479 177.736 366.748 179.139 367.346C180.064 367.715 180.774 366.115 179.818 365.715Z"
            fill="#291B30" />
        <path
            d="M63.0642 71.5896C63.0642 71.405 62.6942 71.405 62.6633 71.5896C61.1214 82.0831 62.0157 93.1305 62.0157 103.87C62.0157 115.225 61.6457 126.673 62.3241 137.997C62.3533 138.118 62.4224 138.226 62.5203 138.302C62.6182 138.379 62.7392 138.421 62.8638 138.421C62.9884 138.421 63.1094 138.379 63.2073 138.302C63.3052 138.226 63.3743 138.118 63.4035 137.997C64.0511 126.673 63.681 115.225 63.681 103.87C63.681 93.3767 64.5753 82.1754 63.0642 71.5896Z"
            fill="#F7F8F8" />
        <path
            d="M76.5404 75.1595C76.5075 75.0084 76.4238 74.873 76.3032 74.776C76.1826 74.6789 76.0323 74.626 75.8774 74.626C75.7224 74.626 75.5721 74.6789 75.4515 74.776C75.3309 74.873 75.2472 75.0084 75.2143 75.1595C75.2143 85.2529 74.5667 95.531 75.2143 105.594C75.2143 105.765 75.2826 105.929 75.404 106.051C75.5255 106.172 75.6902 106.24 75.8619 106.24C76.0337 106.24 76.1984 106.172 76.3199 106.051C76.4413 105.929 76.5096 105.765 76.5096 105.594C77.2188 95.531 76.6021 85.2529 76.5404 75.1595Z"
            fill="#F7F8F8" />
        <path
            d="M214.419 180.833C214.394 180.742 214.339 180.662 214.264 180.604C214.189 180.547 214.097 180.516 214.002 180.516C213.908 180.516 213.816 180.547 213.741 180.604C213.665 180.662 213.611 180.742 213.586 180.833C212.717 194.047 212.542 207.297 213.062 220.53C213.062 233.762 213.062 246.963 213.555 260.195C213.581 260.294 213.639 260.381 213.72 260.443C213.801 260.505 213.9 260.539 214.002 260.539C214.104 260.539 214.204 260.505 214.284 260.443C214.365 260.381 214.423 260.294 214.45 260.195C214.881 246.963 214.881 233.762 214.943 220.53C215.447 207.297 215.272 194.047 214.419 180.833Z"
            fill="#F7F8F8" />
        <path
            d="M238.195 103.44C238.098 94.6345 237.522 85.841 236.468 77.0983C236.468 76.5752 235.635 76.7291 235.604 77.0983C235.366 86.5536 235.644 96.0148 236.437 105.44C236.838 114.21 236.745 123.196 237.917 131.874C237.917 132.674 239.274 132.428 239.305 131.689C239.737 122.303 238.75 112.733 238.195 103.44Z"
            fill="#F7F8F8" />
        <path
            d="M244.363 108.333C244.341 108.264 244.298 108.204 244.24 108.161C244.182 108.118 244.111 108.095 244.039 108.095C243.967 108.095 243.896 108.118 243.838 108.161C243.78 108.204 243.737 108.264 243.715 108.333C242.898 120.976 242.836 133.656 243.53 146.306C243.511 146.383 243.51 146.464 243.526 146.541C243.543 146.619 243.577 146.692 243.626 146.755C243.675 146.817 243.738 146.868 243.809 146.902C243.881 146.937 243.959 146.955 244.039 146.955C244.118 146.955 244.197 146.937 244.269 146.902C244.34 146.868 244.403 146.817 244.452 146.755C244.501 146.692 244.535 146.619 244.552 146.541C244.568 146.464 244.567 146.383 244.548 146.306C245.242 133.656 245.18 120.976 244.363 108.333Z"
            fill="#F7F8F8" />
        <path
            d="M153.42 229.269C153.467 226.873 153.778 224.489 154.346 222.161C154.037 224.561 153.729 226.961 153.42 229.269Z"
            fill="#291B30" />
        <path
            d="M186.972 197.234C182.809 172.278 148.425 171.108 148.425 171.108C146.297 160.83 160.174 157.753 160.174 157.753L168.284 150.768C171.536 150.719 174.784 151.029 177.968 151.691C179.976 154.889 181.562 158.334 182.686 161.938C185.126 173.559 186.56 185.368 186.972 197.234Z"
            fill="#291B30" />
        <path
            d="M183.179 164.615C155.425 177.632 125.265 165.692 125.265 165.692C127.455 159.538 125.82 128.15 125.666 122.18C125.666 122.18 125.666 121.965 125.666 121.872C125.678 121.647 125.678 121.421 125.666 121.195C131.494 107.717 132.142 81.7446 132.173 72.8206C134.794 72.4205 137.539 72.2051 139.913 72.082C140.838 82.0524 144.138 107.624 153.328 106.517C162.518 105.409 166.897 82.6371 168.5 72.6667C170.191 72.9497 171.906 73.0631 173.62 73.0052C174.144 73.0052 174.668 73.0052 175.192 73.0052C174.391 86.6375 181.977 115.287 182.193 116.087C182.193 116.302 182.193 116.549 182.193 116.764C182.193 117.502 181.977 118.272 181.884 119.103C181.884 119.103 181.884 119.441 181.884 119.626C179.941 136.982 183.179 164.615 183.179 164.615Z"
            fill="#AB8DA8" />
    </g>
    <defs>
        <clipPath id="clip0_326_7475">
            <rect width="316" height="415" fill="white" transform="translate(0.73999 0.812988)" />
        </clipPath>
    </defs>
</svg>
