<svg width="62" height="78" viewBox="0 0 62 78" fill="none" xmlns="http://www.w3.org/2000/svg">
    <g clip-path="url(#clip0_326_4036)">
        <path
            d="M57.04 50.693H56.17V26.453C56.1621 19.886 53.5498 13.5903 48.9063 8.94672C44.2627 4.30317 37.967 1.69093 31.4 1.68299H30.89C24.323 1.69093 18.0273 4.30317 13.3837 8.94672C8.74019 13.5903 6.12795 19.886 6.12001 26.453V49.953H5.26001V26.453C5.2653 19.6562 7.96698 13.1391 12.7721 8.33215C17.5772 3.52515 24.0932 0.820933 30.89 0.812988H31.4C38.1977 0.820928 44.7147 3.52483 49.5215 8.33154C54.3282 13.1383 57.0321 19.6553 57.04 26.453V50.693Z"
            fill="#33290E" />
        <path d="M8.99989 51.6128H2.38989V74.9128H8.99989V51.6128Z" fill="#FBCB43" />
        <path d="M8.99989 51.6128H2.38989V53.0228H8.99989V51.6128Z" fill="#BA9732" />
        <path
            d="M8.99999 48.3032H2.37999C1.47424 48.3032 0.73999 49.0375 0.73999 49.9432V49.9732C0.73999 50.879 1.47424 51.6132 2.37999 51.6132H8.99999C9.90574 51.6132 10.64 50.879 10.64 49.9732V49.9432C10.64 49.0375 9.90574 48.3032 8.99999 48.3032Z"
            fill="#FBCB43" />
        <path
            d="M4.55993 56.9731C4.26722 56.9678 3.98424 57.0782 3.7726 57.2805C3.56096 57.4828 3.43779 57.7605 3.42993 58.0531V74.1731H5.73993V58.0531C5.73761 57.9034 5.70473 57.7557 5.64331 57.6191C5.58188 57.4825 5.49322 57.3599 5.38274 57.2588C5.27226 57.1577 5.14229 57.0802 5.00081 57.0311C4.85933 56.9819 4.7093 56.9622 4.55993 56.9731Z"
            fill="#B08E2F" />
        <path
            d="M7.73989 77.8128H3.64989C3.31572 77.8128 2.99523 77.6801 2.75894 77.4438C2.52264 77.2075 2.38989 76.887 2.38989 76.5528V74.9028H8.98989V76.5828C8.98211 76.9101 8.8473 77.2214 8.61399 77.451C8.38068 77.6806 8.0672 77.8103 7.73989 77.8128Z"
            fill="#B08E2F" />
        <path d="M59.91 51.6128H53.3V74.9128H59.91V51.6128Z" fill="#FBCB43" />
        <path d="M59.91 51.6128H53.3V53.0228H59.91V51.6128Z" fill="#BA9732" />
        <path
            d="M59.9199 48.3032H53.2999C52.3942 48.3032 51.6599 49.0375 51.6599 49.9432V49.9732C51.6599 50.879 52.3942 51.6132 53.2999 51.6132H59.9199C60.8257 51.6132 61.5599 50.879 61.5599 49.9732V49.9432C61.5599 49.0375 60.8257 48.3032 59.9199 48.3032Z"
            fill="#FBCB43" />
        <path
            d="M57.7401 56.9729C57.5948 56.9689 57.4502 56.9938 57.3145 57.046C57.1789 57.0982 57.055 57.1769 56.9499 57.2773C56.8448 57.3777 56.7607 57.498 56.7024 57.6311C56.6441 57.7642 56.6127 57.9076 56.6101 58.0529V74.1729H58.8901V58.0529C58.8862 57.9063 58.8533 57.7618 58.7933 57.628C58.7333 57.4941 58.6473 57.3735 58.5404 57.273C58.4334 57.1726 58.3076 57.0944 58.1703 57.0429C58.0329 56.9913 57.8867 56.9676 57.7401 56.9729Z"
            fill="#B08E2F" />
        <path
            d="M58.65 77.8128H54.56C54.2267 77.8102 53.9077 77.6766 53.672 77.4409C53.4363 77.2052 53.3027 76.8862 53.3 76.5528V74.9028H59.91V76.5828C59.9022 76.9118 59.766 77.2246 59.5306 77.4545C59.2951 77.6843 58.9791 77.8129 58.65 77.8128Z"
            fill="#B08E2F" />
        <path
            d="M8.2801 54.2031H8.9901V57.5831H8.2801C7.83719 57.5831 7.41242 57.4072 7.09923 57.094C6.78604 56.7808 6.6101 56.356 6.6101 55.9131C6.60476 55.6905 6.64402 55.469 6.72555 55.2618C6.80709 55.0545 6.92925 54.8656 7.08486 54.7063C7.24047 54.547 7.42638 54.4204 7.63164 54.334C7.83691 54.2475 8.05738 54.2031 8.2801 54.2031Z"
            fill="#B08E2F" />
        <path
            d="M8.27989 59.5029H8.98989V62.8829H8.27989C7.83698 62.8829 7.41221 62.707 7.09902 62.3938C6.78583 62.0806 6.60989 61.6558 6.60989 61.2129C6.60591 60.9906 6.6461 60.7698 6.72812 60.5631C6.81014 60.3565 6.93237 60.1682 7.08771 60.0091C7.24304 59.85 7.42841 59.7234 7.63306 59.6365C7.8377 59.5496 8.05756 59.5042 8.27989 59.5029Z"
            fill="#B08E2F" />
        <path
            d="M8.27998 64.813H8.98998V68.193H8.27998C8.05983 68.193 7.84185 68.1495 7.63858 68.0649C7.43532 67.9804 7.25077 67.8565 7.09557 67.7003C6.94036 67.5442 6.81756 67.3589 6.73422 67.1551C6.65089 66.9514 6.60866 66.7331 6.60998 66.513C6.60734 66.2915 6.64852 66.0717 6.73114 65.8662C6.81376 65.6608 6.93619 65.4736 7.0914 65.3156C7.2466 65.1576 7.43152 65.0319 7.6355 64.9456C7.83948 64.8594 8.05851 64.8143 8.27998 64.813Z"
            fill="#B08E2F" />
        <path
            d="M8.27989 70.1128H8.98989V73.4928H8.27989C7.83606 73.4901 7.41131 73.312 7.09841 72.9972C6.78551 72.6824 6.60988 72.2566 6.60989 71.8128C6.6059 71.591 6.64616 71.3706 6.72829 71.1645C6.81043 70.9584 6.93281 70.7707 7.08829 70.6125C7.24376 70.4542 7.42921 70.3285 7.6338 70.2427C7.8384 70.1569 8.05803 70.1128 8.27989 70.1128Z"
            fill="#B08E2F" />
        <path
            d="M54.02 54.2029H53.3V57.5829H54.02C54.2435 57.5896 54.4661 57.5514 54.6745 57.4704C54.8829 57.3895 55.073 57.2676 55.2334 57.1118C55.3938 56.9561 55.5213 56.7697 55.6083 56.5638C55.6954 56.3578 55.7401 56.1365 55.74 55.9129C55.7456 55.686 55.7048 55.4603 55.6202 55.2497C55.5356 55.0391 55.4089 54.8479 55.248 54.6878C55.087 54.5278 54.8951 54.4023 54.684 54.3189C54.4728 54.2355 54.2469 54.196 54.02 54.2029Z"
            fill="#B08E2F" />
        <path
            d="M54.02 59.5029H53.3V62.8829H54.02C54.2435 62.8896 54.4661 62.8514 54.6745 62.7704C54.8829 62.6895 55.073 62.5676 55.2334 62.4118C55.3938 62.2561 55.5213 62.0697 55.6083 61.8638C55.6954 61.6578 55.7401 61.4365 55.74 61.2129C55.7442 60.9864 55.7024 60.7614 55.6173 60.5514C55.5322 60.3414 55.4055 60.1508 55.2448 59.991C55.0841 59.8313 54.8928 59.7057 54.6823 59.6218C54.4718 59.5379 54.2466 59.4975 54.02 59.5029Z"
            fill="#B08E2F" />
        <path
            d="M54.02 64.813H53.3V68.193H54.02C54.2444 68.1997 54.4677 68.1611 54.6768 68.0796C54.8859 67.9981 55.0764 67.8752 55.237 67.7184C55.3975 67.5616 55.5248 67.374 55.6113 67.1669C55.6977 66.9598 55.7415 66.7374 55.74 66.513C55.7428 66.2873 55.7 66.0633 55.6143 65.8545C55.5286 65.6457 55.4017 65.4563 55.2411 65.2976C55.0806 65.139 54.8897 65.0143 54.6799 64.931C54.4701 64.8477 54.2457 64.8076 54.02 64.813Z"
            fill="#B08E2F" />
        <path
            d="M54.02 70.1131H53.3V73.4931H54.02C54.244 73.4984 54.4668 73.4589 54.6752 73.3768C54.8837 73.2948 55.0737 73.1719 55.2339 73.0154C55.3942 72.8588 55.5215 72.6718 55.6084 72.4653C55.6954 72.2589 55.7401 72.0371 55.74 71.8131C55.7442 71.587 55.7024 71.3624 55.6172 71.1529C55.532 70.9435 55.4051 70.7535 55.2443 70.5945C55.0834 70.4356 54.892 70.3109 54.6816 70.2282C54.4711 70.1454 54.2461 70.1063 54.02 70.1131Z"
            fill="#B08E2F" />
    </g>
    <defs>
        <clipPath id="clip0_326_4036">
            <rect width="60.82" height="77.03" fill="white"
                transform="translate(0.73999 0.812988)" />
        </clipPath>
    </defs>
</svg>
