<svg width="316" height="151" viewBox="0 0 316 151" fill="none" xmlns="http://www.w3.org/2000/svg">
    <rect x="0.47998" y="0.812988" width="315" height="150" rx="22"
        fill="url(#paint0_linear_326_6332)" />
    <mask id="mask0_326_6332" style="mask-type:alpha" maskUnits="userSpaceOnUse" x="0" y="0"
        width="316" height="151">
        <rect x="0.47998" y="0.812988" width="315" height="150" rx="22" fill="white" />
    </mask>
    <g mask="url(#mask0_326_6332)">
        <ellipse opacity="0.3" cx="95.2871" cy="66.4288" rx="71.3184" ry="54.7897" fill="white" />
        <path
            d="M93.2135 141.642C90.1882 141.647 87.171 141.399 84.2141 140.905C79.0458 140.085 74.1774 138.39 69.9595 135.942C65.7416 133.494 62.2793 130.354 59.8219 126.748C57.872 123.375 56.4234 119.842 55.5041 116.217L55.2919 115.527C52.2619 105.558 48.4439 95.0162 41.399 85.492C40.2627 83.9592 39.0204 82.4265 37.8235 80.9522C34.9279 77.6141 32.4762 74.0586 30.5058 70.3399C27.4757 63.9632 28.0363 57.6216 32.1724 53.4445C32.7172 52.7955 33.4261 52.2382 34.2566 51.806C35.0871 51.3737 36.022 51.0754 37.0054 50.9289C37.6046 50.873 38.2123 50.9126 38.7908 51.0455C39.3694 51.1783 39.9064 51.4015 40.3688 51.7011C40.7294 51.9232 41.0252 52.2017 41.2367 52.5183C41.4481 52.8349 41.5706 53.1824 41.596 53.5381H40.6112C40.5875 53.29 40.4971 53.0485 40.3458 52.8289C40.1945 52.6094 39.9856 52.4165 39.7324 52.2628C39.3727 52.032 38.9568 51.8593 38.5093 51.7548C38.0617 51.6503 37.5915 51.6162 37.1266 51.6543C35.4197 51.9548 33.9279 52.7508 32.9602 53.8774C29.0362 57.8673 28.4151 63.9164 31.4452 70.0474C33.3988 73.7396 35.8355 77.268 38.7174 80.5778C39.9143 82.0638 41.1566 83.5965 42.308 85.141C49.3681 94.7354 53.2315 105.336 56.2616 115.363L56.4737 116.054C57.3738 119.618 58.797 123.092 60.7158 126.408C63.1038 129.913 66.4694 132.964 70.5698 135.341C74.6701 137.718 79.4028 139.363 84.4262 140.156C94.5842 141.711 105.123 140.608 114.379 137.021C118.085 135.745 121.43 133.921 124.226 131.65C127.071 128.991 129.263 125.954 130.696 122.688C133.226 117.563 135.241 112.157 137.059 106.951C139.862 99.1815 142.755 91.1433 147.664 83.8656C149.179 81.7362 150.694 79.6418 152.3 77.6176C155.307 73.9848 157.845 70.1324 159.875 66.1161C161.618 62.3017 161.693 59.0958 160.118 56.7557C159.565 55.9753 158.796 55.2984 157.867 54.7727C156.937 54.247 155.87 53.8854 154.739 53.7136C153.95 53.5695 153.129 53.5695 152.34 53.7138C151.551 53.858 150.816 54.1424 150.194 54.5443L149.543 53.971C150.274 53.488 151.141 53.1434 152.074 52.9647C153.008 52.7859 153.983 52.778 154.921 52.9414C156.204 53.1458 157.412 53.5664 158.459 54.1732C159.507 54.78 160.368 55.558 160.981 56.4515C162.693 59.0256 162.618 62.3719 160.784 66.3969C158.733 70.4639 156.154 74.3604 153.088 78.0271C151.573 80.0513 149.906 82.134 148.543 84.2401C143.695 91.4475 140.816 99.4506 138.028 107.173C136.135 112.415 134.18 117.832 131.62 122.98C130.155 126.337 127.906 129.458 124.984 132.188C122.096 134.531 118.643 136.415 114.818 137.734C108.084 140.266 100.702 141.601 93.2135 141.642Z"
            fill="#AB8DA8" />
        <path
            d="M104.334 5.40247C105.117 4.44219 105.566 3.34189 105.637 2.20825C105.722 1.69911 105.662 1.18169 105.46 0.692459C105.259 0.203228 104.921 -0.2459 104.47 -0.623261C104.091 -0.904072 103.622 -1.12638 103.273 -1.43059C102.925 -1.7348 102.758 -2.05072 102.47 -2.34323C102.158 -2.65704 101.757 -2.91107 101.297 -3.08558C100.837 -3.2601 100.331 -3.3504 99.8189 -3.34947C98.7735 -3.34947 97.6676 -2.97505 96.7888 -3.34947C96.2434 -3.56007 95.8798 -3.98129 95.2738 -4.2153C94.7034 -4.43948 94.0491 -4.50161 93.4254 -4.3908C92.8806 -4.24405 92.3053 -4.17661 91.7286 -4.1919C90.9105 -4.2855 90.3499 -4.84712 89.6227 -5.16303C89.2489 -5.31064 88.8377 -5.3933 88.4182 -5.40523C87.9986 -5.41716 87.5808 -5.35807 87.1939 -5.2321C86.807 -5.10612 86.4605 -4.91632 86.1787 -4.67599C85.8968 -4.43566 85.6865 -4.15063 85.5624 -3.84088C85.4636 -3.54542 85.4636 -3.23542 85.5624 -2.93995C85.729 -2.22622 86.3653 -1.6529 86.4108 -0.939174C86.4562 -0.225447 85.8957 0.394677 86.4108 1.0265C86.9259 1.65832 87.6834 1.68173 88.047 2.27845C88.5319 3.08578 88.047 4.13882 88.4864 5.00465C88.7137 5.55457 88.8349 6.3385 89.5015 6.68952C90.4257 7.18093 92.4407 6.77142 93.5466 6.68952L97.8342 6.42041C99.728 6.28 102.061 6.42041 103.773 5.69498C103.98 5.62237 104.169 5.5235 104.334 5.40247Z"
            fill="#3B2645" />
        <path
            d="M89.7895 4.88759C89.6391 4.72805 89.442 4.59823 89.2142 4.50872C88.9865 4.41921 88.7346 4.37256 88.479 4.37256C88.2235 4.37256 87.9716 4.41921 87.7438 4.50872C87.5161 4.59823 87.3189 4.72805 87.1685 4.88759C85.8504 6.05763 88.0775 8.39772 89.7895 8.53813C89.8892 7.3225 89.8892 6.10322 89.7895 4.88759Z"
            fill="#FFEDE5" />
        <path
            d="M111.076 24.4858C110.677 26.4567 110.141 28.4096 109.47 30.336C109.364 30.6987 109.273 31.0498 109.213 31.3891C109.152 31.7284 109.091 31.9858 109.016 32.4187C109.016 32.5006 109.016 32.5942 109.016 32.6761C109.016 32.9569 108.91 33.2494 108.864 33.5653L106.955 47.3134C95.0924 49.829 82.7145 47.3134 82.7145 47.3134C82.7145 47.3134 82.7145 47.1379 82.7145 46.7985C82.5175 45.2424 81.9115 40.2931 81.3055 34.712C81.3055 34.712 81.3055 34.6301 81.3055 34.595C81.3116 34.5092 81.3116 34.4233 81.3055 34.3376C81.0479 31.9975 80.8055 29.517 80.6086 27.1535C80.2449 23.0466 80.0177 19.2557 80.0631 16.9039C80.0631 16.0381 82.6842 16.1317 84.4719 15.9445C85.79 15.8041 87.1384 15.7105 88.305 15.6637C89.4716 15.6169 90.3503 15.5935 90.9411 15.5935H91.6078C91.6078 15.5935 91.7593 14.2479 91.7593 14.2362L92.1683 10.9367C92.3672 10.9763 92.5699 11.0037 92.7743 11.0186C93.1493 11.0729 93.5293 11.1042 93.9106 11.1122C94.4106 11.1122 94.8803 11.1122 95.3196 11.1122L95.9711 11.0537H96.3498C96.7741 10.9952 97.1831 10.925 97.5619 10.8431C97.9406 10.7612 98.0618 10.7261 98.3043 10.6676C99.4111 10.3937 100.462 9.99972 101.425 9.49754L101.562 9.42733L101.819 9.27523L102.001 9.16992C102.001 9.33373 102.001 9.40393 102.001 9.47413C101.88 10.2464 101.743 11.2292 101.683 12.2003C101.683 12.879 101.592 13.5459 101.562 14.1192C101.531 14.6925 101.289 15.5233 101.819 15.8158C102.008 15.8979 102.213 15.9571 102.425 15.9913C103.257 16.0927 104.099 16.1358 104.94 16.12C105.198 16.12 105.455 16.12 105.713 16.12C106.359 16.0909 107.006 16.0909 107.652 16.12C108.103 16.119 108.551 16.1878 108.967 16.3225C109.383 16.4571 109.76 16.6548 110.076 16.9039C110.469 17.3429 110.718 17.8487 110.803 18.3782L110.985 19.3376C111.274 21.0452 111.304 22.7728 111.076 24.4858Z"
            fill="#FFEDE5" />
        <path
            d="M101.94 9.08789C101.735 9.92523 101.293 10.7171 100.644 11.4066C99.9959 12.0961 99.1577 12.666 98.19 13.0755C97.2223 13.485 96.1492 13.7238 95.0477 13.7747C93.9463 13.8257 92.8439 13.6876 91.8198 13.3702L92.1077 10.9483C93.8234 11.2039 95.5904 11.1699 97.2875 10.8488C98.9847 10.5277 100.572 9.92703 101.94 9.08789Z"
            fill="#E0855C" fill-opacity="0.1" />
        <path
            d="M90.0923 1.37777C89.2136 2.07979 89.1378 3.64765 89.0772 5.37932C88.85 10.6445 90.8953 12.2826 94.3647 12.5751C97.8342 12.8676 101.485 11.8263 102.228 6.95888C102.607 4.51349 103 2.2787 101.849 1.21396C100.198 -0.353897 92.7588 -0.775112 90.0923 1.37777Z"
            fill="#FFEDE5" />
        <path
            d="M101.713 6.24477C101.713 6.24477 102.774 4.06849 104.455 5.22683C106.137 6.38517 103.819 9.67299 101.243 9.42728C101.274 9.42728 100.925 6.99359 101.713 6.24477Z"
            fill="#FFEDE5" />
        <path
            d="M103.713 6.22173C103.315 6.31768 102.959 6.49569 102.683 6.73655C102.37 6.93839 102.117 7.18976 101.94 7.47367C101.94 7.55558 102.046 7.61408 102.122 7.55558C102.336 7.39229 102.538 7.22045 102.728 7.04076C102.866 7.15844 103.037 7.25044 103.228 7.30987C103.38 7.30987 103.501 7.20456 103.44 7.11096C103.335 6.98706 103.196 6.88306 103.031 6.80675C103.314 6.66688 103.583 6.51042 103.834 6.33873C103.839 6.32465 103.839 6.30992 103.835 6.2957C103.831 6.28148 103.823 6.26817 103.812 6.25681C103.8 6.24546 103.785 6.23637 103.768 6.23028C103.751 6.22419 103.732 6.22126 103.713 6.22173Z"
            fill="#E0855C" fill-opacity="0.1" />
        <path
            d="M92.0622 5.26194C92.0622 5.26194 91.4713 5.42574 91.5622 4.61841C91.6531 3.81108 92.0622 3.99828 92.0622 3.99828C92.0622 3.99828 92.4713 3.99828 92.4107 4.63011C92.3501 5.26194 92.0622 5.26194 92.0622 5.26194Z"
            fill="#3B2645" />
        <path
            d="M98.0165 5.26194C98.0165 5.26194 97.4408 5.42574 97.5317 4.61841C97.6226 3.81108 98.0165 3.99828 98.0165 3.99828C98.0165 3.99828 98.4256 3.99828 98.365 4.63011C98.3044 5.26194 98.0165 5.26194 98.0165 5.26194Z"
            fill="#3B2645" />
        <path
            d="M92.6989 2.81665C92.4609 2.71256 92.1864 2.66897 91.9145 2.69207C91.6426 2.71517 91.387 2.80379 91.1839 2.94536C91.1736 2.96136 91.1688 2.97911 91.1698 2.99696C91.1709 3.0148 91.1778 3.03214 91.1899 3.04735C91.202 3.06256 91.219 3.07514 91.2391 3.08391C91.2593 3.09268 91.282 3.09734 91.3051 3.09746C91.5172 3.09746 91.699 3.00386 91.9111 2.99216C92.1333 2.98399 92.3552 3.01189 92.5626 3.07406C92.7595 3.12086 92.8959 2.88685 92.6989 2.81665Z"
            fill="#3B2645" />
        <path
            d="M98.9102 3.2143C98.6678 2.74628 97.6224 2.71118 97.1679 2.99199C97.1459 3.00511 97.1281 3.02195 97.1158 3.04122C97.1035 3.06049 97.0972 3.08168 97.0972 3.10315C97.0972 3.12462 97.1035 3.1458 97.1158 3.16507C97.1281 3.18434 97.1459 3.20118 97.1679 3.2143C97.4401 3.23183 97.7138 3.23183 97.986 3.2143C98.2063 3.2417 98.4205 3.29291 98.6223 3.36641C98.6485 3.39589 98.6887 3.41615 98.7341 3.42273C98.7796 3.42931 98.8266 3.42168 98.8647 3.40151C98.9029 3.38134 98.9291 3.35028 98.9377 3.31517C98.9462 3.28007 98.9363 3.24378 98.9102 3.2143Z"
            fill="#3B2645" />
        <path
            d="M93.259 9.02951C94.5371 9.15889 95.836 8.98763 96.9861 8.53809C96.814 8.8503 96.5594 9.13129 96.2385 9.36301C95.9176 9.59473 95.5375 9.77207 95.1225 9.88364C93.8045 10.1645 93.259 9.02951 93.259 9.02951Z"
            fill="white" />
        <path
            d="M85.6081 16.8924C89.0927 18.7761 89.4109 22.4384 87.7141 25.3635C86.5626 27.3175 84.4264 28.6864 83.1689 30.5351C81.8585 32.328 80.3371 34.024 78.6238 35.6014C74.8665 39.287 71.291 42.6216 69.9123 43.8853C65.1702 48.2612 55.2012 54.0413 51.6105 56.0537C50.7924 56.5218 50.3076 56.7792 50.3076 56.7792C50.3076 56.7792 46.8685 55.3868 47.7775 52.8127C47.7775 52.8127 61.4129 41.6271 63.4279 39.3455C65.6547 36.3799 67.6775 33.3258 69.4881 30.1958C71.8111 26.7246 74.2302 23.3003 76.7451 19.9228C77.8966 18.3666 79.3662 16.4126 81.8963 16.0616C82.9173 15.973 83.9482 16.1413 84.8355 16.5413C85.1035 16.644 85.3618 16.7613 85.6081 16.8924Z"
            fill="#FFEDE5" />
        <path
            d="M47.7777 52.8242C48.1508 52.8021 48.5257 52.8021 48.8988 52.8242C48.8988 52.8242 52.1713 54.2283 51.6107 56.0536C51.6107 56.0536 51.2623 56.2993 50.7169 56.6737C50.1715 57.0481 49.5806 57.4927 48.8685 58.0543C48.1564 58.616 46.5354 60.3944 45.8384 60.2423C45.676 60.196 45.5341 60.1148 45.4294 60.0083L44.0204 58.8383C43.2326 58.1596 41.9145 57.013 42.9144 56.1121C42.1872 56.4514 40.4903 57.2821 39.6571 56.8843L39.3086 56.4514C39.3086 56.4514 41.8084 55.0122 42.8386 54.2985C44.2284 53.3986 45.9655 52.8801 47.7777 52.8242Z"
            fill="#FFEDE5" />
        <path
            d="M89.7441 34.8174C89.7389 34.8792 89.7389 34.9411 89.7441 35.0029C89.7441 35.0029 89.8805 35.0029 89.8502 35.0029L89.7441 34.8174Z"
            fill="#D6BED3" />
        <path
            d="M144.134 146.03C142.528 146.159 140.907 146.264 139.256 146.323L46.0047 146.381H45.7168H45.232L43.5958 146.264C43.2221 146.264 42.8637 146.149 42.5995 145.945C42.3352 145.741 42.1868 145.464 42.1868 145.176C42.1868 144.887 42.3352 144.61 42.5995 144.406C42.8637 144.202 43.2221 144.088 43.5958 144.088L45.2472 143.971H45.7168H46.0198L139.256 144.029C140.892 144.029 142.513 144.181 144.134 144.322C144.366 144.382 144.567 144.497 144.71 144.65C144.853 144.803 144.93 144.987 144.93 145.176C144.93 145.365 144.853 145.549 144.71 145.702C144.567 145.855 144.366 145.97 144.134 146.03Z"
            fill="#C6C6C6" />
        <path
            d="M95.3649 72.7383C93.971 81.3615 92.3348 88.8615 92.3348 88.8615C92.5621 90.9441 92.6681 93.2023 92.6681 95.519C92.6681 100.059 92.2742 104.879 91.7742 109.127C91.1379 114.544 90.2592 119.154 89.8804 121.471V121.763C90.441 137.126 84.7747 139.162 82.1234 135.804C79.4721 132.446 82.1234 122.547 82.1234 122.547C82.1319 122.457 82.1319 122.368 82.1234 122.278C81.008 117.681 80.2641 113.035 79.8963 108.366C78.9873 97.0635 80.5478 89.3295 80.3659 87.9254C77.1995 63.3545 81.6234 49.8054 81.6234 49.8054C82.3141 47.8366 83.5611 46.0105 85.2747 44.4583C88.5017 41.7672 92.3802 42.4458 94.8195 45.7337C95.0759 46.0708 95.3086 46.4184 95.5164 46.775C96.5103 48.6635 97.0741 50.6704 97.1829 52.7071C97.4253 57.7968 96.5012 65.6478 95.3649 72.7383Z"
            fill="#F5A784" />
        <path
            d="M111.015 107.769C110.663 112.535 109.924 117.279 108.803 121.974L108.667 122.547C108.667 122.547 111.318 132.481 108.667 135.804C106.016 139.127 100.41 137.184 100.91 121.974C100.91 121.903 100.91 121.833 100.91 121.775C100.486 119.575 99.6373 114.813 98.9706 109.173C98.4555 104.891 98.0616 100.094 98.0616 95.5541C98.0616 93.214 98.1828 90.9675 98.4101 88.8732C98.4101 88.8732 96.7284 81.3732 95.38 72.7617C94.2437 65.6595 93.3044 57.8085 93.6983 52.7656C93.8116 50.7281 94.3806 48.7211 95.38 46.8335C95.5785 46.466 95.8114 46.1101 96.0769 45.7687C98.8797 42.0129 103.546 41.6853 106.985 45.9208C107.97 47.1486 108.745 48.4701 109.288 49.8522C109.288 49.8522 113.712 63.3662 110.546 87.9722C110.318 89.3529 111.818 96.8178 111.015 107.769Z"
            fill="#F5A784" />
        <path
            d="M47.414 60.418C47.7158 60.6879 48.0908 60.9032 48.5123 61.0488C48.9338 61.1944 49.3915 61.2666 49.8532 61.2605C50.0647 61.2225 50.264 61.1517 50.4391 61.0525C50.6142 60.9534 50.7614 60.8278 50.8718 60.6834C50.9823 60.5391 51.0537 60.3789 51.0817 60.2126C51.1098 60.0463 51.0939 59.8774 51.0349 59.716C50.8588 59.3601 50.5727 59.0428 50.2017 58.7917C47.914 57.0366 45.5656 55.2815 43.187 53.6552C42.7895 53.3092 42.2583 53.0712 41.672 52.9766C41.1267 52.9764 40.599 53.1256 40.1829 53.3977C39.7667 53.6698 39.4891 54.0471 39.3994 54.4625C39.3994 55.2113 40.2327 55.4922 40.9145 55.9134C43.0658 57.3876 45.2172 58.9321 47.414 60.418Z"
            fill="#3B2645" />
        <path
            d="M47.0801 58.3472C47.1744 58.2721 47.2512 58.185 47.3073 58.0898C47.3457 57.9689 47.3479 57.8428 47.3138 57.7212C47.2797 57.5995 47.2101 57.4855 47.1104 57.3877C46.5498 56.674 45.3984 55.5274 44.2621 55.4221C43.8869 55.4073 43.5133 55.4687 43.1784 55.6001C42.8435 55.7314 42.559 55.9282 42.3531 56.1709C42.0131 56.5487 41.7969 56.9845 41.723 57.441C41.6491 57.8975 41.7198 58.361 41.9289 58.7918C42.2614 59.5667 42.9446 60.2231 43.853 60.6405C44.3063 60.7888 44.8164 60.7962 45.2765 60.661C45.7367 60.5258 46.1115 60.2586 46.3225 59.915C46.5498 59.4821 46.474 58.9556 46.8377 58.5929C46.9066 58.5044 46.9879 58.422 47.0801 58.3472Z"
            fill="#FFEDE5" />
        <path
            d="M105.061 16.892C101.561 18.7758 101.243 22.438 102.955 25.3631C104.092 27.3171 106.228 28.686 107.5 30.5347C108.822 32.3225 110.342 34.0177 112.046 35.601C115.803 39.2866 119.394 42.6213 120.757 43.8849C125.514 48.2843 135.483 54.0409 139.074 56.0534L140.392 56.7788C140.392 56.7788 143.816 55.3864 142.907 52.8124C142.907 52.8124 129.272 41.6267 127.257 39.3451C125.024 36.3821 123.001 33.3277 121.196 30.1954C118.863 26.6853 116.454 23.3038 113.924 19.9224C112.773 18.3663 111.318 16.4123 108.773 16.0613C107.752 15.9735 106.722 16.1417 105.834 16.541C105.565 16.6431 105.307 16.7604 105.061 16.892Z"
            fill="#FFEDE5" />
        <path
            d="M142.892 52.8241C142.514 52.8021 142.134 52.8021 141.756 52.8241C141.756 52.8241 138.483 54.2281 139.044 56.0534C139.044 56.0534 139.407 56.2991 139.937 56.6735C140.468 57.048 141.089 57.4926 141.786 58.0542C142.483 58.6158 144.134 60.3943 144.816 60.2422C144.976 60.1927 145.117 60.1121 145.225 60.0082L146.619 58.8381C147.422 58.1595 148.725 57.0129 147.74 56.1119C148.452 56.4512 150.149 57.282 150.997 56.8841L151.285 56.4512C151.285 56.4512 148.785 55.0121 147.74 54.2983C146.377 53.4098 144.673 52.8918 142.892 52.8241Z"
            fill="#FFEDE5" />
        <path
            d="M143.24 60.4176C142.939 60.6875 142.564 60.9028 142.142 61.0484C141.721 61.194 141.263 61.2662 140.801 61.2601C140.587 61.2247 140.384 61.1559 140.206 61.0579C140.027 60.9598 139.877 60.8346 139.763 60.69C139.65 60.5453 139.576 60.3843 139.546 60.2167C139.516 60.0491 139.531 59.8786 139.589 59.7156C139.778 59.3754 140.069 59.0746 140.438 58.8381C142.73 57.083 145.074 55.3708 147.467 53.7016C147.863 53.3536 148.395 53.1152 148.982 53.0229C149.526 53.0232 150.052 53.1728 150.465 53.4451C150.879 53.7174 151.154 54.0945 151.24 54.5089C151.24 55.2577 150.422 55.5385 149.725 55.9598C147.589 57.3872 145.437 58.9317 143.24 60.4176Z"
            fill="#3B2645" />
        <path
            d="M143.589 58.3472C143.485 58.2755 143.403 58.1878 143.346 58.0898C143.314 57.9679 143.317 57.842 143.353 57.7209C143.39 57.5998 143.46 57.4861 143.558 57.3877C144.104 56.674 145.255 55.5274 146.392 55.4221C146.767 55.4073 147.14 55.4687 147.475 55.6001C147.81 55.7314 148.095 55.9282 148.301 56.1709C148.637 56.5504 148.847 56.9879 148.913 57.4449C148.979 57.9019 148.899 58.3644 148.679 58.7918C148.357 59.5709 147.671 60.2297 146.755 60.6405C146.302 60.7888 145.792 60.7962 145.332 60.661C144.871 60.5258 144.497 60.2586 144.286 59.915C144.074 59.4821 144.149 58.9556 143.771 58.5929L143.589 58.3472Z"
            fill="#FFEDE5" />
        <path
            d="M111.243 100.27V101.44C111.243 102.224 111.243 103.031 111.243 103.862V104.809C111.243 105.769 111.152 106.763 111.091 107.781C107.168 108.617 103.129 109.085 99.0616 109.174C98.8949 107.863 98.5616 104.376 98.5465 103.99C98.5465 103.195 98.3192 100.948 98.3041 100.644C98.2132 98.9357 98.1526 97.2275 98.1526 95.5543C98.1526 93.378 98.2586 91.2486 98.4707 89.2712C98.4707 89.1308 98.4707 89.0021 98.4707 88.8734C98.4707 88.7447 96.789 81.3851 95.4406 72.7619C95.2891 73.6745 95.1376 74.5871 94.9861 75.4647C93.7135 82.8827 92.3651 88.8734 92.3651 88.8734C92.5923 90.9561 92.6984 93.2142 92.6984 95.5309C92.6984 97.2977 92.6984 99.0411 92.5317 100.89C92.5317 101.194 92.2287 105.102 92.1833 105.476C92.0772 106.728 91.9409 107.957 91.8045 109.139C89.6835 109.068 87.5927 108.963 85.5171 108.823C83.8808 108.717 81.8204 108.647 79.8205 108.425C79.7296 107.372 79.669 106.366 79.6236 105.383C79.6236 105.137 79.6236 104.891 79.6236 104.646C79.6236 103.569 79.6236 102.551 79.6236 101.568V100.796C79.6236 93.7057 80.5174 89.0372 80.3811 87.9256C77.2146 63.3547 81.6386 49.8056 81.6386 49.8056C82.3293 47.8368 83.5762 46.0107 85.2898 44.4585C86.5885 44.6138 87.8629 44.8726 89.0926 45.2307C90.9658 45.6087 92.8993 45.7781 94.8346 45.7338H96.2284C97.9101 45.7338 99.5918 45.5817 101.258 45.5466H102.38C103.977 45.5283 105.573 45.646 107.137 45.8976C108.072 47.1387 108.795 48.468 109.288 49.8524C110.512 54.2687 111.232 58.7594 111.439 63.2728C111.953 71.5116 111.654 79.7686 110.546 87.9724C110.364 89.0138 111.167 93.4716 111.243 100.27Z"
            fill="#3B2645" />
        <path
            d="M89.7896 121.763C90.0017 127.812 89.2593 131.791 88.1079 134.189C86.3504 137.898 83.5627 137.851 82.0477 135.851C81.6385 135.295 81.3566 134.69 81.2144 134.06C80.1084 129.883 82.0477 122.594 82.0477 122.594C82.0562 122.504 82.0562 122.414 82.0477 122.325C82.8015 122.75 83.656 123.056 84.5627 123.226C85.58 123.419 86.6508 123.352 87.6149 123.036C88.579 122.719 89.3845 122.17 89.9108 121.471L89.7896 121.763Z"
            fill="#AB8DA8" />
        <path
            d="M109.576 133.733C109.447 134.477 109.138 135.195 108.667 135.851C107.031 137.91 104.213 137.898 102.47 133.909C101.41 131.568 100.728 127.672 100.955 121.962C102.09 122.75 103.551 123.198 105.076 123.226C106.437 123.129 107.729 122.722 108.788 122.056C108.816 122.239 108.816 122.423 108.788 122.606C108.788 122.606 110.515 129.509 109.576 133.733Z"
            fill="#AB8DA8" />
        <path
            d="M87.502 125.355C86.7347 125.002 85.8578 124.815 84.9643 124.815C84.0708 124.815 83.194 125.002 82.4266 125.355C82.3982 125.379 82.3792 125.409 82.3717 125.442C82.3642 125.474 82.3686 125.507 82.3844 125.538C82.4002 125.568 82.4267 125.595 82.4609 125.614C82.4952 125.633 82.5358 125.645 82.5781 125.648C83.3356 125.648 84.0932 125.402 84.8052 125.414C85.6387 125.468 86.4618 125.594 87.2596 125.788C87.3279 125.794 87.3971 125.784 87.4568 125.757C87.5165 125.731 87.5636 125.69 87.5909 125.642C87.6182 125.593 87.6243 125.539 87.6083 125.487C87.5922 125.435 87.555 125.389 87.502 125.355Z"
            fill="#291B30" />
        <path
            d="M87.2596 127.227C85.9658 126.645 84.4476 126.433 82.972 126.63C82.472 126.63 82.4569 127.274 82.972 127.239C83.6848 127.186 84.4037 127.21 85.1082 127.309C85.7597 127.403 86.3505 127.613 87.002 127.718C87.0822 127.732 87.1658 127.723 87.2383 127.693C87.3107 127.663 87.3673 127.615 87.3981 127.556C87.4288 127.498 87.4318 127.432 87.4065 127.372C87.3811 127.312 87.3291 127.261 87.2596 127.227Z"
            fill="#291B30" />
        <path
            d="M107.319 125.355C106.167 125.051 103.668 124.934 102.774 125.753C102.653 125.858 102.774 126.08 102.94 126.069C103.652 125.999 104.274 125.776 105.016 125.753C105.758 125.729 106.531 125.882 107.228 125.846C107.27 125.851 107.312 125.849 107.353 125.841C107.394 125.833 107.432 125.819 107.466 125.799C107.5 125.78 107.528 125.755 107.55 125.727C107.571 125.699 107.586 125.668 107.592 125.636C107.598 125.604 107.595 125.571 107.585 125.539C107.574 125.508 107.556 125.478 107.531 125.452C107.505 125.426 107.473 125.404 107.437 125.387C107.401 125.371 107.361 125.36 107.319 125.355Z"
            fill="#291B30" />
        <path
            d="M107.879 127.333C106.622 126.9 103.486 126.584 102.849 127.894C102.758 128.07 103.046 128.21 103.228 128.128C103.883 127.847 104.612 127.684 105.361 127.654C106.109 127.623 106.857 127.726 107.546 127.953C108.001 128.093 108.349 127.485 107.879 127.333Z"
            fill="#291B30" />
        <path
            d="M50.52 15.4999C50.52 15.4297 50.3382 15.4297 50.323 15.4999C49.5655 19.4898 50.0049 23.6902 50.0049 27.7737C50.0049 32.0911 49.8231 36.4437 50.1564 40.7495C50.1707 40.7954 50.2047 40.8363 50.2528 40.8656C50.3009 40.8949 50.3603 40.9108 50.4215 40.9108C50.4828 40.9108 50.5422 40.8949 50.5903 40.8656C50.6384 40.8363 50.6723 40.7954 50.6867 40.7495C51.0048 36.4437 50.823 32.0911 50.823 27.7737C50.823 23.7838 51.2624 19.5249 50.52 15.4999Z"
            fill="#F7F8F8" />
        <path
            d="M57.1403 16.8571C57.1242 16.7997 57.083 16.7482 57.0238 16.7113C56.9645 16.6744 56.8907 16.6543 56.8146 16.6543C56.7384 16.6543 56.6646 16.6744 56.6053 16.7113C56.5461 16.7482 56.505 16.7997 56.4888 16.8571C56.4888 20.6949 56.1707 24.6028 56.4888 28.4289C56.4888 28.494 56.5223 28.5565 56.582 28.6026C56.6417 28.6487 56.7226 28.6746 56.807 28.6746C56.8914 28.6746 56.9723 28.6487 57.0319 28.6026C57.0916 28.5565 57.1251 28.494 57.1251 28.4289C57.4736 24.6028 57.1706 20.6949 57.1403 16.8571Z"
            fill="#F7F8F8" />
        <path
            d="M124.878 57.0364C124.866 57.0018 124.839 56.9713 124.802 56.9496C124.765 56.9278 124.72 56.916 124.674 56.916C124.627 56.916 124.582 56.9278 124.545 56.9496C124.508 56.9713 124.481 57.0018 124.469 57.0364C124.042 62.0607 123.956 67.0988 124.212 72.13C124.212 77.1612 124.212 82.1807 124.454 87.2118C124.467 87.2493 124.495 87.2824 124.535 87.306C124.575 87.3296 124.624 87.3424 124.674 87.3424C124.724 87.3424 124.773 87.3296 124.812 87.306C124.852 87.2824 124.881 87.2493 124.893 87.2118C125.105 82.1807 125.105 77.1612 125.136 72.13C125.383 67.0987 125.297 62.0609 124.878 57.0364Z"
            fill="#F7F8F8" />
        <path
            d="M136.559 27.6101C136.512 24.2621 136.228 20.9186 135.71 17.5945C135.71 17.3956 135.301 17.4541 135.286 17.5945C135.169 21.1896 135.306 24.7869 135.695 28.3706C135.892 31.7052 135.847 35.1217 136.423 38.4213C136.423 38.7255 137.089 38.6319 137.104 38.3511C137.316 34.7824 136.832 31.1436 136.559 27.6101Z"
            fill="#F7F8F8" />
        <path
            d="M139.589 29.4702C139.579 29.444 139.557 29.4212 139.529 29.4049C139.5 29.3886 139.466 29.3799 139.43 29.3799C139.395 29.3799 139.36 29.3886 139.331 29.4049C139.303 29.4212 139.282 29.444 139.271 29.4702C138.87 34.2773 138.839 39.0987 139.18 43.9086C139.171 43.9379 139.17 43.9685 139.178 43.998C139.186 44.0275 139.203 44.0552 139.227 44.079C139.251 44.1028 139.282 44.122 139.317 44.1353C139.352 44.1485 139.391 44.1554 139.43 44.1554C139.469 44.1554 139.508 44.1485 139.543 44.1353C139.578 44.122 139.609 44.1028 139.633 44.079C139.657 44.0552 139.674 44.0275 139.682 43.998C139.69 43.9685 139.689 43.9379 139.68 43.9086C140.021 39.0987 139.991 34.2773 139.589 29.4702Z"
            fill="#F7F8F8" />
        <path
            d="M94.9106 75.4528C94.9337 74.5417 95.0862 73.6354 95.3652 72.75C95.2137 73.6626 95.0622 74.5753 94.9106 75.4528Z"
            fill="#291B30" />
        <path
            d="M111.394 63.2725C109.349 53.7835 92.4562 53.3389 92.4562 53.3389C91.4108 49.4309 98.2285 48.2609 98.2285 48.2609L102.213 45.6049C103.811 45.5865 105.406 45.7042 106.97 45.9559C107.957 47.1721 108.736 48.4817 109.288 49.8521C110.487 54.2707 111.192 58.7607 111.394 63.2725Z"
            fill="#291B30" />
        <path
            d="M109.531 50.8702C95.8955 55.8195 81.0784 51.2798 81.0784 51.2798C82.1541 48.9397 81.3511 37.0052 81.2753 34.7353C81.2753 34.7353 81.2753 34.6534 81.2753 34.6183C81.2814 34.5326 81.2814 34.4467 81.2753 34.3609C84.1388 29.2361 84.4569 19.361 84.4721 15.9678C85.7599 15.8157 87.1082 15.7338 88.2748 15.687C88.7293 19.478 90.3504 29.201 94.8653 28.7798C99.3801 28.3586 101.531 19.7003 102.319 15.9093C103.15 16.0169 103.992 16.06 104.834 16.038C105.092 16.038 105.349 16.038 105.607 16.038C105.213 21.2213 108.94 32.1144 109.046 32.4186C109.046 32.5005 109.046 32.5942 109.046 32.6761C109.046 32.9569 108.94 33.2494 108.895 33.5653C108.895 33.5653 108.895 33.694 108.895 33.7642C107.94 40.3632 109.531 50.8702 109.531 50.8702Z"
            fill="#AB8DA8" />
        <ellipse opacity="0.3" cx="253.656" cy="68.8639" rx="56.6352" ry="43.4259" fill="white" />
        <path
            d="M252.004 128.807C249.593 128.81 247.189 128.613 244.833 128.219C240.715 127.566 236.836 126.215 233.475 124.265C230.114 122.314 227.356 119.812 225.398 116.939C223.844 114.251 222.69 111.436 221.957 108.548L221.788 107.998C219.374 100.055 216.332 91.6553 210.718 84.0665C209.813 82.8452 208.823 81.6239 207.869 80.4493C205.562 77.7895 203.609 74.9565 202.039 71.9935C199.624 66.9125 200.071 61.8596 203.367 58.5313C203.801 58.0142 204.366 57.5702 205.027 57.2258C205.689 56.8813 206.434 56.6436 207.218 56.5269C207.695 56.4824 208.179 56.514 208.64 56.6198C209.101 56.7257 209.529 56.9035 209.897 57.1422C210.185 57.3192 210.42 57.5411 210.589 57.7933C210.757 58.0456 210.855 58.3225 210.875 58.6059H210.091C210.072 58.4083 210 58.2158 209.879 58.0409C209.759 57.8659 209.592 57.7123 209.39 57.5897C209.104 57.4059 208.772 57.2683 208.416 57.185C208.059 57.1018 207.685 57.0745 207.314 57.1049C205.954 57.3443 204.765 57.9786 203.994 58.8763C200.868 62.0554 200.373 66.8753 202.787 71.7604C204.344 74.7023 206.285 77.5137 208.582 80.1509C209.535 81.3349 210.525 82.5562 211.443 83.7868C217.068 91.4315 220.146 99.878 222.561 107.868L222.73 108.418C223.447 111.258 224.581 114.026 226.11 116.668C228.013 119.46 230.694 121.891 233.961 123.786C237.228 125.68 240.999 126.991 245.002 127.623C253.096 128.861 261.493 127.982 268.868 125.124C271.821 124.108 274.487 122.654 276.715 120.845C278.981 118.727 280.728 116.306 281.869 113.704C283.885 109.62 285.491 105.313 286.939 101.165C289.173 94.9742 291.478 88.5694 295.39 82.7706C296.597 81.0739 297.804 79.4051 299.083 77.7923C301.479 74.8976 303.501 71.8281 305.119 68.6279C306.508 65.5887 306.568 63.0343 305.312 61.1697C304.872 60.5479 304.259 60.0085 303.519 59.5896C302.778 59.1708 301.928 58.8827 301.027 58.7458C300.398 58.6309 299.744 58.631 299.115 58.7459C298.486 58.8608 297.901 59.0874 297.405 59.4077L296.886 58.9509C297.469 58.566 298.159 58.2915 298.903 58.149C299.647 58.0066 300.424 58.0002 301.172 58.1305C302.194 58.2933 303.156 58.6285 303.991 59.112C304.826 59.5955 305.512 60.2153 306.001 60.9273C307.365 62.9783 307.304 65.6446 305.844 68.8517C304.209 72.0922 302.154 75.1969 299.711 78.1186C298.504 79.7314 297.176 81.3909 296.09 83.069C292.227 88.8118 289.933 95.1886 287.712 101.342C286.203 105.518 284.646 109.835 282.606 113.937C281.438 116.611 279.646 119.098 277.318 121.274C275.017 123.141 272.265 124.642 269.218 125.693C263.853 127.71 257.971 128.774 252.004 128.807Z"
            fill="#AB8DA8" />
        <path
            d="M260.864 20.2518C261.488 19.4867 261.846 18.61 261.902 17.7067C261.971 17.301 261.923 16.8888 261.762 16.4989C261.601 16.1091 261.332 15.7513 260.973 15.4506C260.671 15.2268 260.297 15.0497 260.019 14.8073C259.742 14.5649 259.609 14.3132 259.379 14.0801C259.131 13.8301 258.811 13.6277 258.444 13.4886C258.078 13.3496 257.675 13.2776 257.267 13.2784C256.434 13.2784 255.553 13.5767 254.853 13.2784C254.418 13.1106 254.128 12.7749 253.645 12.5885C253.191 12.4099 252.67 12.3604 252.173 12.4486C251.739 12.5656 251.28 12.6193 250.821 12.6071C250.169 12.5326 249.722 12.0851 249.143 11.8333C248.845 11.7157 248.517 11.6499 248.183 11.6404C247.849 11.6309 247.516 11.6779 247.207 11.7783C246.899 11.8787 246.623 12.0299 246.398 12.2214C246.174 12.4129 246.006 12.64 245.907 12.8868C245.829 13.1222 245.829 13.3693 245.907 13.6047C246.04 14.1734 246.547 14.6302 246.583 15.1989C246.62 15.7676 246.173 16.2617 246.583 16.7651C246.994 17.2685 247.597 17.2872 247.887 17.7627C248.273 18.4059 247.887 19.245 248.237 19.9349C248.418 20.373 248.515 20.9977 249.046 21.2774C249.782 21.6689 251.388 21.3426 252.269 21.2774L255.686 21.0629C257.194 20.9511 259.054 21.0629 260.418 20.4849C260.582 20.4271 260.733 20.3483 260.864 20.2518Z"
            fill="#3B2645" />
        <path
            d="M249.275 19.8415C249.156 19.7144 248.999 19.611 248.817 19.5396C248.636 19.4683 248.435 19.4312 248.231 19.4312C248.028 19.4312 247.827 19.4683 247.645 19.5396C247.464 19.611 247.307 19.7144 247.187 19.8415C246.137 20.7738 247.911 22.6384 249.275 22.7502C249.355 21.7816 249.355 20.8101 249.275 19.8415Z"
            fill="#FFEDE5" />
        <path
            d="M266.236 35.4575C265.918 37.0278 265.491 38.5839 264.957 40.1189C264.872 40.4079 264.8 40.6876 264.752 40.9579C264.703 41.2283 264.655 41.4334 264.595 41.7783C264.595 41.8436 264.595 41.9182 264.595 41.9834C264.595 42.2072 264.51 42.4403 264.474 42.692L262.953 53.6463C253.501 55.6507 243.638 53.6463 243.638 53.6463C243.638 53.6463 243.638 53.5064 243.638 53.2361C243.481 51.9961 242.998 48.0526 242.515 43.6056C242.515 43.6056 242.515 43.5403 242.515 43.5124C242.52 43.4441 242.52 43.3756 242.515 43.3073C242.31 41.4427 242.117 39.4663 241.96 37.5831C241.67 34.3108 241.489 31.2902 241.526 29.4163C241.526 28.7264 243.614 28.801 245.038 28.6518C246.089 28.5399 247.163 28.4654 248.093 28.4281C249.022 28.3908 249.722 28.3721 250.193 28.3721H250.724C250.724 28.3721 250.845 27.3 250.845 27.2907L251.171 24.6617C251.329 24.6932 251.491 24.715 251.654 24.7269C251.953 24.7701 252.255 24.7951 252.559 24.8015C252.958 24.8015 253.332 24.8015 253.682 24.8015L254.201 24.7549H254.503C254.841 24.7083 255.167 24.6523 255.468 24.5871C255.77 24.5218 255.867 24.4938 256.06 24.4472C256.942 24.229 257.779 23.9151 258.547 23.5149L258.655 23.459L258.861 23.3378L259.005 23.2539C259.005 23.3844 259.005 23.4404 259.005 23.4963C258.909 24.1116 258.8 24.8947 258.752 25.6685C258.752 26.2092 258.68 26.7406 258.655 27.1975C258.631 27.6543 258.438 28.3162 258.861 28.5493C259.011 28.6147 259.174 28.6618 259.343 28.6891C260.006 28.7699 260.677 28.8042 261.347 28.7917C261.553 28.7917 261.758 28.7917 261.963 28.7917C262.478 28.7685 262.994 28.7685 263.508 28.7917C263.868 28.7909 264.224 28.8457 264.556 28.953C264.888 29.0603 265.188 29.2178 265.44 29.4163C265.753 29.7661 265.951 30.1691 266.019 30.591L266.164 31.3554C266.394 32.716 266.418 34.0926 266.236 35.4575Z"
            fill="#FFEDE5" />
        <path
            d="M258.957 23.1885C258.794 23.8557 258.441 24.4866 257.925 25.036C257.408 25.5854 256.74 26.0395 255.969 26.3658C255.198 26.692 254.343 26.8823 253.465 26.9229C252.588 26.9635 251.709 26.8535 250.893 26.6006L251.123 24.6708C252.49 24.8745 253.898 24.8474 255.25 24.5916C256.602 24.3357 257.867 23.8571 258.957 23.1885Z"
            fill="#E0855C" fill-opacity="0.1" />
        <path
            d="M249.517 17.045C248.817 17.6044 248.756 18.8537 248.708 20.2334C248.527 24.4287 250.157 25.7339 252.921 25.967C255.685 26.2 258.595 25.3703 259.186 21.492C259.488 19.5435 259.802 17.7629 258.884 16.9145C257.569 15.6653 251.641 15.3296 249.517 17.045Z"
            fill="#FFEDE5" />
        <path
            d="M258.776 20.923C258.776 20.923 259.621 19.189 260.961 20.1119C262.301 21.0349 260.454 23.6546 258.402 23.4588C258.426 23.4588 258.148 21.5197 258.776 20.923Z"
            fill="#FFEDE5" />
        <path
            d="M260.37 20.9043C260.053 20.9808 259.769 21.1226 259.549 21.3145C259.299 21.4754 259.098 21.6757 258.957 21.9019C258.957 21.9671 259.042 22.0137 259.102 21.9671C259.272 21.837 259.433 21.7001 259.585 21.5569C259.695 21.6507 259.831 21.724 259.983 21.7714C260.104 21.7714 260.201 21.6875 260.152 21.6129C260.069 21.5141 259.957 21.4313 259.826 21.3705C260.052 21.259 260.266 21.1344 260.466 20.9976C260.47 20.9863 260.47 20.9746 260.467 20.9633C260.464 20.9519 260.458 20.9413 260.448 20.9323C260.439 20.9232 260.427 20.916 260.413 20.9112C260.4 20.9063 260.385 20.904 260.37 20.9043Z"
            fill="#E0855C" fill-opacity="0.1" />
        <path
            d="M251.086 20.14C251.086 20.14 250.616 20.2705 250.688 19.6272C250.76 18.984 251.086 19.1331 251.086 19.1331C251.086 19.1331 251.412 19.1331 251.364 19.6366C251.316 20.14 251.086 20.14 251.086 20.14Z"
            fill="#3B2645" />
        <path
            d="M255.831 20.14C255.831 20.14 255.372 20.2705 255.445 19.6272C255.517 18.984 255.831 19.1331 255.831 19.1331C255.831 19.1331 256.157 19.1331 256.108 19.6366C256.06 20.14 255.831 20.14 255.831 20.14Z"
            fill="#3B2645" />
        <path
            d="M251.594 18.1915C251.404 18.1085 251.185 18.0738 250.969 18.0922C250.752 18.1106 250.548 18.1812 250.387 18.294C250.378 18.3068 250.375 18.3209 250.375 18.3351C250.376 18.3494 250.382 18.3632 250.391 18.3753C250.401 18.3874 250.415 18.3974 250.431 18.4044C250.447 18.4114 250.465 18.4151 250.483 18.4152C250.652 18.4152 250.797 18.3406 250.966 18.3313C251.143 18.3248 251.32 18.347 251.485 18.3966C251.642 18.4339 251.751 18.2474 251.594 18.1915Z"
            fill="#3B2645" />
        <path
            d="M256.543 18.5084C256.35 18.1355 255.517 18.1076 255.155 18.3313C255.137 18.3418 255.123 18.3552 255.113 18.3705C255.103 18.3859 255.098 18.4028 255.098 18.4199C255.098 18.437 255.103 18.4539 255.113 18.4692C255.123 18.4846 255.137 18.498 255.155 18.5084C255.371 18.5224 255.589 18.5224 255.806 18.5084C255.982 18.5303 256.153 18.5711 256.313 18.6296C256.334 18.6531 256.366 18.6693 256.402 18.6745C256.439 18.6798 256.476 18.6737 256.507 18.6576C256.537 18.6415 256.558 18.6168 256.565 18.5888C256.571 18.5608 256.564 18.5319 256.543 18.5084Z"
            fill="#3B2645" />
        <path
            d="M252.04 23.1416C253.058 23.2447 254.093 23.1082 255.009 22.75C254.872 22.9988 254.67 23.2227 254.414 23.4073C254.158 23.5919 253.855 23.7332 253.525 23.8221C252.474 24.0459 252.04 23.1416 252.04 23.1416Z"
            fill="white" />
        <path
            d="M245.944 29.4069C248.72 30.9078 248.974 33.8259 247.622 36.1566C246.705 37.7135 245.002 38.8042 244 40.2773C242.956 41.7059 241.744 43.0572 240.379 44.314C237.385 47.2507 234.536 49.9077 233.438 50.9146C229.659 54.4013 221.716 59.0068 218.855 60.6103C218.203 60.9832 217.817 61.1883 217.817 61.1883C217.817 61.1883 215.077 60.0789 215.801 58.0279C215.801 58.0279 226.665 49.1153 228.271 47.2973C230.045 44.9344 231.657 42.5009 233.1 40.0069C234.951 37.2411 236.878 34.5126 238.882 31.8215C239.799 30.5815 240.97 29.0246 242.986 28.7449C243.8 28.6743 244.621 28.8084 245.328 29.1272C245.542 29.2089 245.748 29.3024 245.944 29.4069Z"
            fill="#FFEDE5" />
        <path
            d="M215.801 58.0372C216.098 58.0195 216.397 58.0195 216.694 58.0372C216.694 58.0372 219.302 59.1559 218.855 60.6103C218.855 60.6103 218.577 60.806 218.143 61.1044C217.708 61.4027 217.237 61.757 216.67 62.2045C216.103 62.652 214.811 64.069 214.256 63.9478C214.126 63.9109 214.013 63.8462 213.93 63.7614L212.807 62.8291C212.179 62.2884 211.129 61.3747 211.926 60.6569C211.346 60.9272 209.994 61.5892 209.33 61.2722L209.053 60.9272C209.053 60.9272 211.045 59.7805 211.865 59.2118C212.973 58.4948 214.357 58.0817 215.801 58.0372Z"
            fill="#FFEDE5" />
        <path
            d="M249.239 43.6895C249.235 43.7387 249.235 43.788 249.239 43.8373C249.239 43.8373 249.348 43.8373 249.324 43.8373L249.239 43.6895Z"
            fill="#D6BED3" />
        <path
            d="M292.577 132.302C291.297 132.405 290.005 132.489 288.69 132.536L214.388 132.582H214.159H213.772L212.469 132.489C212.171 132.489 211.885 132.398 211.675 132.235C211.464 132.072 211.346 131.852 211.346 131.622C211.346 131.392 211.464 131.171 211.675 131.009C211.885 130.846 212.171 130.755 212.469 130.755L213.784 130.662H214.159H214.4L288.69 130.708C289.993 130.708 291.285 130.829 292.577 130.941C292.761 130.989 292.922 131.081 293.036 131.203C293.149 131.325 293.21 131.471 293.21 131.622C293.21 131.772 293.149 131.919 293.036 132.041C292.922 132.163 292.761 132.255 292.577 132.302Z"
            fill="#C6C6C6" />
        <path
            d="M253.718 73.9044C252.607 80.7753 251.303 86.7512 251.303 86.7512C251.484 88.4107 251.569 90.21 251.569 92.0559C251.569 95.6732 251.255 99.5142 250.857 102.898C250.35 107.215 249.65 110.888 249.348 112.734V112.967C249.794 125.208 245.28 126.83 243.167 124.154C241.055 121.479 243.167 113.592 243.167 113.592C243.174 113.52 243.174 113.449 243.167 113.377C242.278 109.714 241.686 106.012 241.393 102.292C240.668 93.2865 241.912 87.1241 241.767 86.0054C239.244 66.4275 242.769 55.6317 242.769 55.6317C243.319 54.063 244.313 52.6079 245.678 51.3712C248.249 49.2269 251.34 49.7677 253.283 52.3874C253.488 52.656 253.673 52.933 253.838 53.2171C254.63 54.7218 255.08 56.3209 255.166 57.9438C255.36 61.9992 254.623 68.2548 253.718 73.9044Z"
            fill="#F5A784" />
        <path
            d="M266.188 101.817C265.907 105.614 265.319 109.394 264.425 113.135L264.317 113.592C264.317 113.592 266.429 121.507 264.317 124.154C262.204 126.802 257.738 125.254 258.136 113.135C258.136 113.079 258.136 113.023 258.136 112.976C257.798 111.224 257.122 107.429 256.591 102.936C256.18 99.5235 255.867 95.7012 255.867 92.0839C255.867 90.2194 255.963 88.4294 256.144 86.7606C256.144 86.7606 254.804 80.7847 253.73 73.9231C252.825 68.2642 252.076 62.0086 252.39 57.9904C252.48 56.367 252.934 54.7678 253.73 53.2638C253.888 52.9709 254.074 52.6874 254.285 52.4154C256.518 49.4228 260.237 49.1617 262.977 52.5366C263.762 53.5148 264.379 54.5678 264.812 55.669C264.812 55.669 268.337 66.4369 265.814 86.0428C265.633 87.1429 266.828 93.0908 266.188 101.817Z"
            fill="#F5A784" />
        <path
            d="M215.511 64.0875C215.751 64.3025 216.05 64.4741 216.386 64.5901C216.722 64.7061 217.087 64.7636 217.454 64.7587C217.623 64.7285 217.782 64.6721 217.921 64.5931C218.061 64.5141 218.178 64.414 218.266 64.299C218.354 64.1839 218.411 64.0563 218.433 63.9238C218.456 63.7913 218.443 63.6567 218.396 63.5281C218.256 63.2445 218.028 62.9917 217.732 62.7916C215.909 61.3932 214.038 59.9948 212.143 58.6989C211.826 58.4232 211.403 58.2336 210.936 58.1582C210.501 58.158 210.081 58.277 209.749 58.4938C209.418 58.7106 209.196 59.0112 209.125 59.3422C209.125 59.9389 209.789 60.1626 210.332 60.4982C212.046 61.6729 213.761 62.9035 215.511 64.0875Z"
            fill="#3B2645" />
        <path
            d="M215.245 62.4374C215.32 62.3775 215.381 62.3082 215.426 62.2323C215.457 62.136 215.458 62.0355 215.431 61.9386C215.404 61.8417 215.349 61.7508 215.269 61.6729C214.822 61.1042 213.905 60.1906 213 60.1067C212.701 60.0949 212.403 60.1438 212.136 60.2485C211.869 60.3532 211.643 60.51 211.479 60.7034C211.208 61.0043 211.035 61.3516 210.977 61.7154C210.918 62.0791 210.974 62.4484 211.141 62.7917C211.406 63.4091 211.95 63.9321 212.674 64.2647C213.035 64.3829 213.441 64.3887 213.808 64.281C214.175 64.1733 214.473 63.9604 214.641 63.6866C214.822 63.3417 214.762 62.9222 215.052 62.6332C215.107 62.5627 215.172 62.497 215.245 62.4374Z"
            fill="#FFEDE5" />
        <path
            d="M261.444 29.4066C258.655 30.9075 258.402 33.8256 259.766 36.1563C260.671 37.7132 262.373 38.804 263.387 40.277C264.44 41.7015 265.652 43.0522 267.009 44.3137C270.003 47.2504 272.864 49.9074 273.95 50.9143C277.741 54.4197 285.684 59.0065 288.545 60.61L289.595 61.188C289.595 61.188 292.323 60.0786 291.599 58.0276C291.599 58.0276 280.735 49.115 279.129 47.297C277.35 44.9361 275.738 42.5024 274.3 40.0066C272.441 37.2098 270.522 34.5155 268.506 31.8212C267.588 30.5812 266.43 29.0243 264.401 28.7446C263.588 28.6747 262.767 28.8087 262.06 29.1269C261.846 29.2082 261.64 29.3017 261.444 29.4066Z"
            fill="#FFEDE5" />
        <path
            d="M291.587 58.0371C291.286 58.0195 290.983 58.0195 290.682 58.0371C290.682 58.0371 288.074 59.1558 288.521 60.6101C288.521 60.6101 288.811 60.8059 289.233 61.1043C289.656 61.4026 290.151 61.7569 290.706 62.2044C291.261 62.6518 292.577 64.0689 293.12 63.9477C293.248 63.9083 293.36 63.8441 293.446 63.7613L294.557 62.829C295.197 62.2883 296.235 61.3746 295.45 60.6568C296.017 60.9271 297.37 61.589 298.046 61.2721L298.275 60.9271C298.275 60.9271 296.283 59.7804 295.45 59.2117C294.364 58.5037 293.007 58.091 291.587 58.0371Z"
            fill="#FFEDE5" />
        <path
            d="M291.865 64.0878C291.624 64.3028 291.326 64.4744 290.99 64.5904C290.654 64.7064 290.289 64.764 289.921 64.7591C289.751 64.7309 289.589 64.6761 289.447 64.598C289.305 64.5199 289.185 64.4201 289.094 64.3048C289.004 64.1896 288.945 64.0612 288.921 63.9277C288.897 63.7942 288.909 63.6583 288.956 63.5284C289.106 63.2574 289.338 63.0177 289.632 62.8292C291.458 61.4308 293.325 60.0666 295.233 58.7365C295.548 58.4592 295.972 58.2693 296.44 58.1958C296.873 58.196 297.292 58.3152 297.621 58.5322C297.951 58.7491 298.17 59.0496 298.239 59.3798C298.239 59.9765 297.587 60.2002 297.032 60.5358C295.329 61.6732 293.615 62.9038 291.865 64.0878Z"
            fill="#3B2645" />
        <path
            d="M292.142 62.4374C292.06 62.3803 291.994 62.3104 291.949 62.2323C291.924 62.1352 291.926 62.0349 291.955 61.9384C291.984 61.8419 292.04 61.7513 292.118 61.6729C292.553 61.1042 293.47 60.1906 294.376 60.1067C294.675 60.0949 294.972 60.1438 295.239 60.2485C295.506 60.3532 295.733 60.51 295.897 60.7034C296.165 61.0058 296.332 61.3543 296.385 61.7184C296.437 62.0826 296.373 62.4511 296.198 62.7917C295.942 63.4124 295.395 63.9374 294.665 64.2647C294.304 64.3829 293.898 64.3887 293.531 64.281C293.164 64.1733 292.866 63.9604 292.698 63.6866C292.529 63.3417 292.589 62.9222 292.287 62.6332L292.142 62.4374Z"
            fill="#FFEDE5" />
        <path
            d="M266.369 95.8414V96.7737C266.369 97.3983 266.369 98.0416 266.369 98.7035V99.4586C266.369 100.223 266.297 101.016 266.248 101.827C263.123 102.493 259.904 102.865 256.663 102.936C256.531 101.892 256.265 99.1137 256.253 98.806C256.253 98.1721 256.072 96.3821 256.06 96.1397C255.987 94.7786 255.939 93.4175 255.939 92.0843C255.939 90.3503 256.024 88.6535 256.193 87.078C256.193 86.9661 256.193 86.8635 256.193 86.761C256.193 86.6584 254.853 80.7944 253.778 73.9235C253.658 74.6506 253.537 75.3778 253.416 76.077C252.402 81.9877 251.328 86.761 251.328 86.761C251.509 88.4204 251.593 90.2197 251.593 92.0657C251.593 93.4734 251.593 94.8625 251.46 96.3355C251.46 96.5779 251.219 99.6917 251.183 99.99C251.098 100.988 250.99 101.966 250.881 102.908C249.191 102.852 247.525 102.768 245.871 102.656C244.568 102.572 242.926 102.517 241.332 102.339C241.26 101.5 241.212 100.699 241.175 99.9155C241.175 99.7197 241.175 99.5239 241.175 99.3281C241.175 98.4704 241.175 97.6593 241.175 96.8762V96.2609C241.175 90.6113 241.888 86.8915 241.779 86.0058C239.256 66.4279 242.781 55.6321 242.781 55.6321C243.331 54.0634 244.325 52.6084 245.69 51.3716C246.725 51.4953 247.74 51.7015 248.72 51.9869C250.213 52.2881 251.753 52.4231 253.295 52.3878H254.406C255.746 52.3878 257.086 52.2666 258.414 52.2386H259.307C260.58 52.224 261.851 52.3178 263.098 52.5183C263.843 53.5072 264.419 54.5663 264.812 55.6694C265.787 59.1883 266.361 62.7664 266.526 66.3627C266.935 72.9273 266.697 79.5064 265.814 86.0431C265.669 86.8728 266.309 90.4248 266.369 95.8414Z"
            fill="#3B2645" />
        <path
            d="M249.276 112.967C249.445 117.787 248.853 120.957 247.936 122.868C246.535 125.823 244.314 125.786 243.107 124.192C242.781 123.749 242.556 123.267 242.443 122.765C241.562 119.437 243.107 113.629 243.107 113.629C243.114 113.557 243.114 113.486 243.107 113.414C243.708 113.753 244.388 113.997 245.111 114.132C245.921 114.286 246.775 114.233 247.543 113.981C248.311 113.729 248.953 113.291 249.372 112.734L249.276 112.967Z"
            fill="#AB8DA8" />
        <path
            d="M265.041 122.505C264.938 123.097 264.693 123.669 264.317 124.192C263.013 125.833 260.768 125.824 259.38 122.645C258.535 120.78 257.991 117.676 258.173 113.126C259.076 113.753 260.241 114.11 261.456 114.133C262.54 114.056 263.57 113.731 264.414 113.201C264.436 113.346 264.436 113.493 264.414 113.639C264.414 113.639 265.79 119.139 265.041 122.505Z"
            fill="#AB8DA8" />
        <path
            d="M247.453 115.829C246.841 115.548 246.143 115.399 245.431 115.399C244.719 115.399 244.02 115.548 243.409 115.829C243.386 115.849 243.371 115.873 243.365 115.898C243.359 115.924 243.363 115.951 243.375 115.975C243.388 115.999 243.409 116.02 243.436 116.036C243.464 116.051 243.496 116.06 243.53 116.062C244.133 116.062 244.737 115.867 245.304 115.876C245.968 115.919 246.624 116.019 247.26 116.174C247.314 116.179 247.369 116.171 247.417 116.15C247.464 116.129 247.502 116.096 247.524 116.058C247.545 116.019 247.55 115.975 247.538 115.934C247.525 115.893 247.495 115.856 247.453 115.829Z"
            fill="#291B30" />
        <path
            d="M247.26 117.321C246.229 116.857 245.019 116.688 243.843 116.845C243.445 116.845 243.433 117.358 243.843 117.33C244.411 117.288 244.984 117.307 245.545 117.386C246.065 117.461 246.535 117.628 247.054 117.712C247.118 117.723 247.185 117.716 247.243 117.692C247.3 117.668 247.346 117.63 247.37 117.583C247.395 117.536 247.397 117.484 247.377 117.436C247.357 117.388 247.315 117.347 247.26 117.321Z"
            fill="#291B30" />
        <path
            d="M263.243 115.829C262.325 115.587 260.333 115.493 259.621 116.146C259.525 116.23 259.621 116.407 259.754 116.398C260.321 116.342 260.816 116.165 261.408 116.146C261.999 116.127 262.615 116.249 263.17 116.221C263.204 116.224 263.237 116.223 263.27 116.216C263.303 116.21 263.333 116.199 263.36 116.183C263.387 116.167 263.41 116.148 263.427 116.126C263.444 116.103 263.455 116.078 263.46 116.053C263.465 116.027 263.463 116.001 263.455 115.976C263.446 115.951 263.432 115.927 263.411 115.906C263.391 115.885 263.366 115.868 263.337 115.855C263.308 115.841 263.276 115.833 263.243 115.829Z"
            fill="#291B30" />
        <path
            d="M263.689 117.405C262.687 117.06 260.189 116.808 259.682 117.852C259.609 117.992 259.838 118.104 259.983 118.039C260.505 117.814 261.086 117.685 261.683 117.661C262.279 117.636 262.875 117.718 263.424 117.899C263.786 118.011 264.064 117.526 263.689 117.405Z"
            fill="#291B30" />
        <path
            d="M217.986 28.2973C217.986 28.2414 217.841 28.2414 217.829 28.2973C217.225 31.4764 217.575 34.8233 217.575 38.077C217.575 41.5171 217.43 44.9852 217.696 48.4159C217.707 48.4526 217.735 48.4852 217.773 48.5085C217.811 48.5318 217.859 48.5445 217.907 48.5445C217.956 48.5445 218.003 48.5318 218.042 48.5085C218.08 48.4852 218.107 48.4526 218.119 48.4159C218.372 44.9852 218.227 41.5171 218.227 38.077C218.227 34.8979 218.577 31.5044 217.986 28.2973Z"
            fill="#F7F8F8" />
        <path
            d="M223.261 29.3789C223.248 29.3331 223.215 29.2921 223.168 29.2627C223.121 29.2333 223.062 29.2173 223.001 29.2173C222.941 29.2173 222.882 29.2333 222.835 29.2627C222.787 29.2921 222.755 29.3331 222.742 29.3789C222.742 32.4368 222.488 35.5506 222.742 38.5992C222.742 38.6511 222.769 38.7009 222.816 38.7376C222.864 38.7743 222.928 38.7949 222.995 38.7949C223.063 38.7949 223.127 38.7743 223.175 38.7376C223.222 38.7009 223.249 38.6511 223.249 38.5992C223.526 35.5506 223.285 32.4368 223.261 29.3789Z"
            fill="#F7F8F8" />
        <path
            d="M277.234 61.3933C277.224 61.3657 277.203 61.3414 277.173 61.3241C277.144 61.3068 277.108 61.2974 277.071 61.2974C277.034 61.2974 276.998 61.3068 276.968 61.3241C276.939 61.3414 276.918 61.3657 276.908 61.3933C276.568 65.3966 276.499 69.4109 276.703 73.4197C276.703 77.4285 276.703 81.428 276.896 85.4368C276.906 85.4667 276.929 85.493 276.96 85.5118C276.992 85.5307 277.031 85.5409 277.071 85.5409C277.111 85.5409 277.15 85.5307 277.181 85.5118C277.213 85.493 277.236 85.4667 277.246 85.4368C277.415 81.428 277.415 77.4285 277.439 73.4197C277.636 69.4108 277.568 65.3968 277.234 61.3933Z"
            fill="#F7F8F8" />
        <path
            d="M286.541 37.9467C286.503 35.2791 286.278 32.6151 285.865 29.9664C285.865 29.8079 285.539 29.8545 285.527 29.9664C285.434 32.8309 285.543 35.6973 285.853 38.5527C286.01 41.2097 285.974 43.932 286.432 46.561C286.432 46.8034 286.964 46.7288 286.976 46.505C287.145 43.6616 286.758 40.7622 286.541 37.9467Z"
            fill="#F7F8F8" />
        <path
            d="M288.955 39.4289C288.947 39.4081 288.93 39.3898 288.907 39.3769C288.884 39.3639 288.857 39.3569 288.829 39.3569C288.8 39.3569 288.773 39.3639 288.75 39.3769C288.727 39.3898 288.71 39.4081 288.702 39.4289C288.382 43.2592 288.358 47.1008 288.629 50.9333C288.622 50.9566 288.621 50.981 288.628 51.0045C288.634 51.028 288.648 51.0501 288.667 51.0691C288.686 51.088 288.711 51.1034 288.739 51.1139C288.767 51.1244 288.797 51.1299 288.829 51.1299C288.86 51.1299 288.891 51.1244 288.919 51.1139C288.947 51.1034 288.971 51.088 288.99 51.0691C289.009 51.0501 289.023 51.028 289.029 51.0045C289.036 50.981 289.035 50.9566 289.028 50.9333C289.299 47.1008 289.275 43.2592 288.955 39.4289Z"
            fill="#F7F8F8" />
        <path
            d="M253.356 76.0676C253.374 75.3417 253.496 74.6195 253.718 73.9141C253.597 74.6412 253.477 75.3684 253.356 76.0676Z"
            fill="#291B30" />
        <path
            d="M266.49 66.3621C264.86 58.8013 251.4 58.4471 251.4 58.4471C250.567 55.3332 256 54.401 256 54.401L259.175 52.2847C260.448 52.2701 261.719 52.3639 262.965 52.5644C263.751 53.5334 264.372 54.5769 264.812 55.6689C265.767 59.1895 266.329 62.7671 266.49 66.3621Z"
            fill="#291B30" />
        <path
            d="M265.005 56.4805C254.141 60.424 242.334 56.8068 242.334 56.8068C243.192 54.9422 242.552 45.4329 242.491 43.6243C242.491 43.6243 242.491 43.5591 242.491 43.5311C242.496 43.4628 242.496 43.3943 242.491 43.326C244.773 39.2426 245.026 31.3741 245.039 28.6705C246.065 28.5493 247.139 28.4841 248.069 28.4468C248.431 31.4674 249.722 39.2146 253.32 38.879C256.917 38.5434 258.631 31.6445 259.259 28.6239C259.921 28.7097 260.592 28.744 261.263 28.7265C261.468 28.7265 261.673 28.7265 261.879 28.7265C261.565 32.8565 264.534 41.536 264.619 41.7784C264.619 41.8437 264.619 41.9182 264.619 41.9835C264.619 42.2072 264.534 42.4403 264.498 42.692C264.498 42.692 264.498 42.7946 264.498 42.8505C263.738 48.1086 265.005 56.4805 265.005 56.4805Z"
            fill="#AB8DA8" />
    </g>
    <rect opacity="0.3" x="0.47998" y="0.812988" width="315" height="150" rx="22" fill="black" />
    <path fill-rule="evenodd" clip-rule="evenodd"
        d="M146.813 75.8199C146.813 69.3804 152.05 64.1465 158.48 64.1465C164.91 64.1465 170.147 69.3804 170.147 75.8199C170.147 82.2459 164.91 87.4798 158.48 87.4798C152.05 87.4798 146.813 82.2459 146.813 75.8199ZM162.759 77.0006C162.883 76.8768 163.041 76.6855 163.074 76.6405C163.255 76.4041 163.345 76.1114 163.345 75.8199C163.345 75.4924 163.243 75.1885 163.052 74.9408C163.036 74.9251 163.006 74.8917 162.966 74.8481C162.891 74.7666 162.783 74.6496 162.68 74.5469C161.757 73.5564 159.347 71.9355 158.086 71.4403C157.894 71.3626 157.41 71.1926 157.151 71.1814C156.903 71.1814 156.667 71.2377 156.442 71.3502C156.16 71.5078 155.935 71.7554 155.811 72.0481C155.732 72.2507 155.608 72.8585 155.608 72.8698C155.484 73.5338 155.417 74.6144 155.417 75.8075C155.417 76.9455 155.484 77.9799 155.586 78.6552C155.589 78.658 155.598 78.7063 155.613 78.7814C155.659 79.0095 155.754 79.4847 155.856 79.6795C156.104 80.1523 156.588 80.4449 157.106 80.4449H157.151C157.489 80.4337 158.198 80.141 158.198 80.1298C159.392 79.6345 161.746 78.0925 162.692 77.0682L162.759 77.0006Z"
        fill="#F7F8F8" />
    <defs>
        <linearGradient id="paint0_linear_326_6332" x1="315.48" y1="150.813" x2="-95.9982"
            y2="83.9478" gradientUnits="userSpaceOnUse">
            <stop stop-color="#92A3FD" />
            <stop offset="1" stop-color="#9DCEFF" />
        </linearGradient>
    </defs>
</svg>
