<svg width="128" height="75" viewBox="0 0 128 75" fill="none" xmlns="http://www.w3.org/2000/svg">
    <path
        d="M3.23407 23.9069C3.7686 30.74 25.6841 36.7497 62.7802 36.7497C101.159 36.7497 122.006 32.2218 122.326 23.9069C122.647 15.592 101.907 9.58226 63.6354 9.66459C31.5639 9.74691 4.62384 11.4758 3.23407 23.9069Z"
        fill="#F7D3B0" />
    <path
        d="M5.8 23.8249C6.33453 29.917 27.2879 35.2682 62.7804 35.2682C99.4488 35.2682 119.44 31.2342 119.761 23.8249C120.082 16.4156 100.197 10.9821 63.6356 11.1468C32.847 11.2291 7.08286 12.7933 5.8 23.8249Z"
        fill="#E2BFA3" />
    <path
        d="M5.8 23.8248C6.22762 28.682 19.6977 33.1276 43.4306 34.6918C42.1477 34.0332 40.9718 33.2923 39.6889 32.5513C32.4194 28.0234 26.5396 22.096 22.7979 15.4276C22.4772 14.8513 22.1565 14.275 21.8358 13.6988C12.4281 15.5099 6.44143 18.6383 5.8 23.8248Z"
        fill="#CEAD97" />
    <path
        d="M32.419 30.9047C31.9913 30.5754 31.4568 30.2461 31.1361 29.7521C30.8154 29.2582 30.7085 28.7642 30.6016 28.2703C30.174 26.8707 28.7842 25.7182 26.9668 25.2242C26.5392 25.0596 26.0047 24.9772 25.6839 24.7303C25.3632 24.401 25.3632 24.0717 25.3632 23.66C25.1494 22.1782 23.7597 20.9433 21.9423 20.4493C21.4077 20.2847 20.7663 20.2024 20.3387 19.9554C19.2696 19.3791 19.4834 18.1442 18.842 17.2386C18.5213 16.7447 17.8799 16.4154 17.3453 16.0037C16.3832 15.4275 15.4211 14.7689 14.4589 14.1926C13.4968 13.534 12.4277 12.9577 11.1449 12.793C10.5034 12.7107 9.75509 12.793 9.22056 12.4637C8.68604 12.2168 8.57913 11.7228 8.25842 11.3112C7.08246 9.50001 3.55459 9.00606 1.5234 10.3233C-0.507799 11.6405 -0.507799 14.3572 1.5234 15.6744C0.133631 16.58 0.0267263 18.3089 0.775062 19.5437C1.5234 20.7786 3.02007 21.7665 4.51674 22.5898C4.83745 22.8368 5.26507 23.0014 5.47888 23.3307C5.7996 23.8247 5.69269 24.3186 5.69269 24.8126C5.69269 27.1177 7.9377 29.3405 10.931 29.8345L33.8087 36.6675C34.8778 34.774 34.2363 32.3866 32.419 30.9047Z"
        fill="#6FB56B" />
    <path
        d="M27.0737 17.9797C25.7908 16.7449 24.6148 15.51 23.8665 14.1104C23.1182 12.7109 22.9044 10.9821 23.6527 9.58253C23.8665 9.25322 24.1872 8.84159 24.1872 8.51229C24.2941 8.01834 24.0803 7.60671 23.9734 7.11276C23.5458 5.46624 24.401 3.7374 26.0046 2.66717C27.6082 1.59693 29.9601 1.26763 31.9913 1.84391C33.2742 1.02065 35.1984 0.856003 36.6951 1.43228C38.1918 2.00856 39.1539 3.32577 39.047 4.56066C40.6506 4.23136 42.2542 5.05461 43.1094 6.12485C43.9647 7.19508 44.0716 8.51229 44.1785 9.74718C46.5304 9.66485 48.8823 10.4881 50.379 11.8876C51.7687 13.2872 52.3033 15.3453 51.5549 17.0742C53.7999 18.4737 55.938 20.1202 56.4726 22.343C57.0071 24.4835 55.1897 27.1179 52.3033 27.2002C53.9068 27.2825 54.6552 28.9291 53.9068 30.0816C53.2654 31.1519 51.6618 31.8105 50.2721 32.3044C47.2787 33.2923 44.1785 33.9509 40.9713 34.2802C39.047 34.4449 37.1227 34.5272 35.3053 34.0333C31.3499 32.8807 29.5325 29.5877 28.1427 26.7886C26.7529 24.3188 22.7975 20.0379 27.0737 17.9797Z"
        fill="#81CC7A" />
    <path
        d="M82.8784 11.3113C83.9474 10.0764 86.0855 9.50015 87.9029 9.91178C88.1167 8.10061 90.041 6.53642 92.286 6.28945C94.531 6.04247 96.9899 7.1127 97.952 8.75922C99.4487 7.85363 101.801 8.92387 102.228 10.3234C102.656 11.7229 101.694 13.2048 100.518 14.3574C102.014 14.6867 102.763 16.1685 102.549 17.3211C102.335 18.4736 101.373 19.5439 100.411 20.6141C102.442 21.7667 102.763 24.1541 101.587 25.8006C100.411 27.4471 97.8451 28.4351 95.3863 28.5174C92.8206 28.5997 90.6825 27.7764 88.3306 26.9532C80.3127 34.5272 69.7291 16.8271 82.9853 15.5099C82.0232 14.1927 81.8093 12.5462 82.8784 11.3113Z"
        fill="#6FB56B" />
    <path
        d="M93.9961 18.6377C95.0652 17.2382 96.348 16.0033 97.9516 15.0154C99.1276 14.2744 100.517 13.7805 101.907 13.2865C105.649 11.887 110.246 10.4051 113.774 12.0516C114.415 12.381 115.056 12.7103 115.698 13.0396C117.195 13.6158 119.012 13.4512 120.722 13.4512C122.433 13.4512 124.25 13.6158 125.64 14.3568C127.137 15.0977 128.099 16.3326 127.992 17.6498C127.885 18.3084 127.457 18.967 127.457 19.7079C127.457 20.2842 127.778 20.8605 127.885 21.5191C128.206 23.001 126.923 24.7298 124.892 24.9768C124.25 25.0591 123.502 24.9768 122.754 25.0591C119.653 25.3884 118.37 28.4345 115.591 29.34C114.736 29.587 113.88 29.6693 113.025 29.834C112.17 30.081 111.315 30.4103 110.459 30.7396C105.114 32.6331 98.1654 31.6452 94.103 28.3521C90.4683 25.3061 91.5373 21.7661 93.9961 18.6377Z"
        fill="#81CC7A" />
    <path
        d="M83.8402 29.7521C84.161 29.8344 84.3748 29.9168 84.6955 29.8344C85.0162 29.7521 85.1231 29.4228 85.23 29.1758C85.8714 27.694 88.2234 26.7884 90.2545 27.2823C90.6822 27.3647 91.1098 27.5293 91.5374 27.5293C92.1788 27.447 92.6065 27.0354 93.141 26.7884C94.4238 26.0474 96.3481 26.1298 97.5241 26.953C97.8448 27.2 98.1655 27.447 98.4862 27.6116C98.9138 27.7763 99.4484 27.694 99.876 27.8586C101.48 28.1879 101.8 29.9991 103.404 30.3284C104.473 29.0112 107.039 28.7642 108.749 29.6698C110.46 30.5754 111.101 32.2219 110.994 33.7861C110.673 37.2437 106.29 40.1251 101.907 39.8782C99.876 39.7958 97.9517 39.0549 95.9205 39.0549C93.9962 39.0549 92.1788 39.7135 90.3614 40.2075C85.9783 41.5247 81.5952 41.1131 80.3124 37.2437C79.4571 35.021 78.2812 28.7642 83.8402 29.7521Z"
        fill="#6FB56B" />
    <path
        d="M87.5818 11.3112C87.5818 11.3112 82.771 18.4735 95.2789 22.6721C107.787 26.8707 111.315 18.7205 111.315 18.7205L87.5818 11.3112Z"
        fill="#E24C24" />
    <path
        d="M111.097 18.8828C112.168 16.9112 107.781 13.6208 101.299 11.5334C94.8165 9.44595 88.6938 9.35203 87.6232 11.3236C86.5526 13.2951 90.9396 16.5856 97.4218 18.673C103.904 20.7604 110.027 20.8543 111.097 18.8828Z"
        fill="#FF5A27" />
    <path
        d="M110.111 18.5647C111.045 16.8448 106.988 13.9006 101.051 11.9886C95.1135 10.0766 89.5432 9.92086 88.6093 11.6407C87.6754 13.3606 91.7315 16.3048 97.669 18.2168C103.606 20.1288 109.177 20.2846 110.111 18.5647Z"
        fill="#FF8B78" />
    <path
        d="M95.8133 12.546C95.2787 12.546 94.6373 12.6283 94.5304 13.04C94.4235 13.2046 94.4235 13.3693 94.3166 13.5339C94.2097 13.6986 93.9959 13.6986 93.889 13.8632C93.7821 13.9456 93.889 14.1102 93.889 14.1925C94.1028 14.9335 95.1718 15.2628 96.134 15.4274C98.4859 16.0037 100.838 16.6623 103.19 17.2386C103.831 17.4032 104.579 17.5679 105.007 17.2386C105.435 16.9916 105.435 16.4976 105.221 16.086C105.007 15.6744 104.579 15.4274 104.152 15.1804C102.869 14.4395 101.479 13.6986 99.9826 13.2869C98.6997 12.9576 97.4168 12.546 95.8133 12.546Z"
        fill="#FF5A27" />
    <path
        d="M90.682 12.3808C91.1096 12.4631 91.5372 12.6278 91.9648 12.7101C92.0717 12.7101 92.1786 12.7101 92.1786 12.6278C92.2855 12.6278 92.2855 12.5454 92.2855 12.4631C92.2855 12.2985 92.1786 12.2161 91.9648 12.1338C91.8579 12.1338 91.6441 12.0515 91.5372 12.0515H91.6441C91.3234 11.9692 91.1096 11.9692 90.7889 11.8868C90.5751 11.8045 90.3613 11.8868 90.3613 12.0515C90.4682 12.1338 90.4682 12.3808 90.682 12.3808Z"
        fill="#FFB164" />
    <path
        d="M92.1789 11.7226C92.6065 11.8872 92.9272 11.3933 92.4996 11.2286C92.072 11.064 91.7512 11.5579 92.1789 11.7226Z"
        fill="#FFB164" />
    <path
        d="M92.1786 11.7223C92.3924 11.8047 92.6062 11.887 92.9269 11.9693C93.0338 11.9693 93.1407 11.9693 93.2476 11.9693C93.3545 11.9693 93.4615 11.887 93.4615 11.8047C93.4615 11.7223 93.4615 11.64 93.4615 11.5577C93.4615 11.4754 93.3545 11.4754 93.2476 11.393C93.0338 11.3107 92.82 11.2284 92.4993 11.1461C92.3924 11.1461 92.2855 11.1461 92.1786 11.1461C92.0717 11.1461 91.9648 11.2284 91.9648 11.3107C91.9648 11.393 91.9648 11.4754 91.9648 11.5577C92.0717 11.64 92.0717 11.64 92.1786 11.7223Z"
        fill="#FFB164" />
    <path
        d="M94.958 11.1459C94.958 11.2282 94.958 11.2282 94.958 11.3105C94.958 11.3929 94.958 11.3929 95.0649 11.4752C95.1719 11.5575 95.1718 11.6399 95.3857 11.7222C95.3857 11.7222 95.4926 11.7222 95.4926 11.8045H95.5995H95.7064C95.7064 11.8045 95.8133 11.8045 95.8133 11.7222V11.6399C95.8133 11.5575 95.8133 11.5575 95.8133 11.4752C95.8133 11.3929 95.7064 11.3105 95.7064 11.3105C95.7064 11.3105 95.7064 11.3105 95.8133 11.3929L95.7064 11.3105C95.7064 11.3105 95.7064 11.3105 95.7064 11.3929C95.7064 11.3929 95.7064 11.3105 95.5995 11.3105V11.3929V11.3105V11.3929V11.3105C95.5995 11.3105 95.5995 11.2282 95.4926 11.2282L95.3857 11.1459H95.2788C95.1718 11.1459 95.0649 11.1459 95.0649 11.2282C95.0649 11.0636 94.958 11.1459 94.958 11.1459Z"
        fill="#FFB164" />
    <path
        d="M97.417 11.6405C97.417 11.7228 97.3101 11.8051 97.3101 11.9698V12.0521C97.3101 12.0521 97.3101 12.1344 97.417 12.1344L97.5239 12.2167H97.6308C97.7377 12.2167 97.8446 12.2167 97.8446 12.1344C97.8446 12.1344 97.8446 12.1344 97.9515 12.0521C97.9515 12.0521 98.0584 11.9698 98.0584 11.8874C98.0584 11.8051 98.1653 11.7228 98.1653 11.5581V11.4758C98.1653 11.4758 98.1653 11.3935 98.0584 11.3935L97.9515 11.3112H97.8446C97.7377 11.3112 97.6308 11.3112 97.6308 11.3935C97.6308 11.3935 97.6308 11.3935 97.5239 11.4758C97.417 11.5581 97.417 11.5581 97.417 11.6405Z"
        fill="#FFB164" />
    <path
        d="M101.587 13.369C101.693 13.2867 101.907 13.2867 102.014 13.2044C102.014 13.2044 102.121 13.2044 102.121 13.1221L102.228 13.0397V12.9574V12.8751C102.228 12.8751 102.228 12.8751 102.228 12.7928L102.121 12.7104H102.014C101.907 12.7104 101.907 12.7104 101.8 12.7104C101.693 12.7928 101.48 12.7928 101.373 12.8751C101.373 12.8751 101.266 12.8751 101.266 12.9574L101.159 13.0397V13.1221V13.2044C101.159 13.2044 101.159 13.2044 101.159 13.2867L101.266 13.369H101.373C101.48 13.369 101.587 13.369 101.587 13.369Z"
        fill="#FFB164" />
    <path
        d="M104.366 14.6866C104.58 14.6866 104.793 14.7689 105.114 14.7689C105.221 14.7689 105.328 14.7689 105.328 14.6866C105.435 14.6866 105.435 14.6042 105.435 14.5219C105.435 14.4396 105.435 14.3573 105.328 14.3573C105.221 14.2749 105.221 14.2749 105.114 14.2749C104.9 14.2749 104.686 14.1926 104.366 14.1926C104.259 14.1926 104.152 14.1926 104.152 14.2749C104.045 14.2749 104.045 14.3573 104.045 14.4396C104.045 14.5219 104.045 14.6042 104.152 14.6042C104.259 14.6042 104.259 14.6866 104.366 14.6866Z"
        fill="#FFB164" />
    <path
        d="M106.29 16.0855C106.611 16.2501 107.039 16.3324 107.359 16.3324C107.466 16.3324 107.573 16.3324 107.573 16.2501C107.68 16.2501 107.68 16.1678 107.68 16.0855C107.68 16.0031 107.68 15.9208 107.573 15.9208C107.466 15.8385 107.466 15.8385 107.359 15.8385C107.252 15.8385 107.252 15.8385 107.146 15.8385H107.252C107.039 15.7561 106.718 15.6738 106.504 15.5915C106.29 15.5092 106.077 15.5915 106.077 15.7561C105.97 15.8385 106.077 16.0031 106.29 16.0855Z"
        fill="#FFB164" />
    <path
        d="M106.932 17.6501C107.252 17.8147 107.466 17.9794 107.787 18.144C107.894 18.2263 108.001 18.2263 108.001 18.2263C108.108 18.2263 108.215 18.144 108.215 18.144C108.321 18.0617 108.321 17.8147 108.108 17.7324C107.787 17.5677 107.573 17.4031 107.252 17.2384C107.145 17.1561 107.039 17.1561 107.039 17.1561C106.932 17.1561 106.825 17.2384 106.825 17.2384C106.718 17.4031 106.718 17.5677 106.932 17.6501Z"
        fill="#FFB164" />
    <path
        d="M105.007 18.0615C105.114 18.2262 105.221 18.3908 105.328 18.5555C105.328 18.5555 105.328 18.6378 105.435 18.6378L105.542 18.7201C105.649 18.7201 105.756 18.7201 105.863 18.7201C105.969 18.7201 105.969 18.6378 106.076 18.5555C106.076 18.4731 106.076 18.3908 106.076 18.3085C105.969 18.1438 105.863 17.9792 105.756 17.8145C105.756 17.8145 105.756 17.7322 105.649 17.7322L105.542 17.6499C105.435 17.6499 105.328 17.6499 105.221 17.6499C105.114 17.6499 105.114 17.7322 105.007 17.8145C105.007 17.8969 104.9 17.9792 105.007 18.0615Z"
        fill="#FFB164" />
    <path
        d="M102.228 18.0615V18.1438C102.228 18.1438 102.228 18.1438 102.228 18.0615C102.228 18.1438 102.228 18.2262 102.228 18.2262V18.1438C102.228 18.1438 102.228 18.1438 102.228 18.2262V18.3085V18.3908C102.228 18.3908 102.228 18.4731 102.335 18.4731L102.442 18.5555C102.548 18.5555 102.655 18.5555 102.762 18.5555C102.869 18.5555 102.976 18.4731 102.976 18.3908C102.976 18.3085 103.083 18.2262 103.083 18.1438C103.083 18.0615 103.083 17.9792 103.083 17.8969C103.083 17.8145 102.976 17.7322 102.976 17.7322C102.976 17.7322 102.869 17.7322 102.869 17.6499H102.762C102.655 17.6499 102.548 17.7322 102.548 17.7322V17.8145C102.228 17.9792 102.121 18.0615 102.228 18.0615Z"
        fill="#FFB164" />
    <path
        d="M98.486 17.3208C98.486 17.4031 98.486 17.4031 98.486 17.4854V17.4031C98.486 17.4854 98.3791 17.5677 98.3791 17.5677V17.6501V17.7324C98.3791 17.8147 98.486 17.897 98.5929 17.897C98.6998 17.897 98.8067 17.897 98.9136 17.897C98.9136 17.897 98.9136 17.897 99.0206 17.897L99.1275 17.8147C99.1275 17.7324 99.2344 17.6501 99.2344 17.6501C99.2344 17.5677 99.3413 17.4854 99.3413 17.4031C99.3413 17.3208 99.3413 17.2384 99.2344 17.2384L99.1275 17.1561H99.0206C98.9136 17.1561 98.8067 17.1561 98.8067 17.2384C98.486 17.1561 98.486 17.2384 98.486 17.3208Z"
        fill="#FFB164" />
    <path
        d="M95.9202 16.4153V16.4976V16.4153C95.9202 16.4976 95.8133 16.4976 95.8133 16.4976C95.8133 16.4976 95.9202 16.4976 95.9202 16.4153C95.8133 16.4976 95.8133 16.5799 95.7064 16.5799C95.7064 16.5799 95.7064 16.5799 95.8133 16.5799C95.8133 16.5799 95.7064 16.5799 95.7064 16.6623C95.7064 16.6623 95.5995 16.6623 95.5995 16.7446L95.4926 16.8269C95.4926 16.9092 95.4926 16.9916 95.4926 17.0739C95.4926 17.1562 95.5995 17.1562 95.7064 17.2385H95.8133C95.9202 17.2385 95.9202 17.2385 96.0271 17.2385C96.134 17.2385 96.134 17.1562 96.2409 17.1562L96.3478 17.0739C96.4547 16.9916 96.4547 16.9916 96.4547 16.9092C96.4547 16.8269 96.5616 16.8269 96.5616 16.7446C96.5616 16.6623 96.5616 16.5799 96.5616 16.4976C96.5616 16.4153 96.4547 16.333 96.3478 16.333C96.2409 16.333 96.134 16.333 96.0271 16.333C96.0271 16.2506 95.9202 16.333 95.9202 16.4153Z"
        fill="#FFB164" />
    <path
        d="M93.6756 14.6859C93.5687 14.6859 93.4618 14.7682 93.3549 14.7682H93.4618C93.248 14.7682 93.1411 14.8505 92.9273 14.8505C92.8203 14.8505 92.7134 14.9328 92.7134 14.9328C92.6065 15.0152 92.6065 15.0975 92.6065 15.0975C92.6065 15.1798 92.7134 15.2621 92.7134 15.2621H92.8203C92.9272 15.2621 92.9272 15.2621 93.0342 15.2621C93.3549 15.2621 93.6756 15.1798 93.9963 15.0975C94.1032 15.0975 94.1032 15.0152 94.2101 14.9328C94.2101 14.8505 94.2101 14.7682 94.2101 14.6859C94.2101 14.6035 94.1032 14.6035 93.9963 14.5212C93.8894 14.6859 93.7825 14.6859 93.6756 14.6859Z"
        fill="#FFB164" />
    <path
        d="M90.7889 13.8626C90.8958 13.8626 91.0027 13.7803 91.1096 13.7803C91.1096 13.7803 91.2165 13.7803 91.2165 13.698L91.3234 13.6156V13.5333V13.451C91.3234 13.451 91.3234 13.451 91.3234 13.3687L91.2165 13.2863H91.1096C91.0027 13.2863 91.0027 13.2863 90.8958 13.2863C90.7889 13.2863 90.682 13.3687 90.5751 13.3687C90.5751 13.3687 90.4682 13.3687 90.4682 13.451L90.3613 13.5333V13.6156V13.698C90.3613 13.698 90.3613 13.698 90.3613 13.7803L90.4682 13.8626H90.5751C90.682 13.8626 90.682 13.8626 90.7889 13.8626Z"
        fill="#FFB164" />
    <path opacity="0.24"
        d="M88.8647 17.979C89.3992 18.5553 89.8268 19.1316 90.6821 19.3786C91.0028 19.4609 91.3235 19.5432 91.5373 19.2963C91.6442 19.1316 91.5373 18.8846 91.4304 18.72C91.1097 18.3907 90.789 17.979 90.6821 17.5674C90.4683 16.8265 90.2545 15.2623 88.7578 15.2623C87.1542 15.3446 88.4371 17.5674 88.8647 17.979Z"
        fill="white" />
    <path
        d="M50.0582 23.7422C48.9891 22.0134 48.8822 19.8729 50.3789 18.3087C51.6618 16.9915 53.7999 16.2506 55.8311 15.5919C53.1584 13.6985 52.517 10.4878 54.3344 8.10031C56.1518 5.71287 60.2142 4.39566 63.8489 4.97194C62.9937 2.91379 65.2387 0.608676 68.2321 0.114722C71.1185 -0.379233 74.3256 0.773327 75.9292 2.58449C77.9604 1.67891 80.9538 2.00821 82.4504 3.32542C83.9471 4.72496 83.8402 6.86543 82.1297 8.10031C85.0161 9.9938 85.3369 13.5338 82.7711 15.6743C84.3747 16.6622 85.23 18.144 84.9092 19.6259C84.6954 21.1078 83.4126 22.425 81.5952 23.1659C82.0228 24.1538 82.3435 25.2241 81.7021 26.1296C80.9538 27.1999 79.1364 27.6115 77.5328 27.6115C75.9292 27.6115 74.2187 27.3645 72.6152 27.6115C73.2566 28.7641 71.9737 30.0813 70.3702 30.5752C68.7666 31.0692 66.9492 30.9045 65.2387 30.8222C63.3144 30.6576 61.3901 30.4929 59.3589 30.4106C58.2899 30.3282 57.1139 30.2459 56.2587 29.752C55.1896 29.1757 54.8689 27.8585 53.9068 27.1175C52.517 26.0473 51.0203 25.2241 50.0582 23.7422Z"
        fill="#89E269" />
    <path
        d="M86.2988 23.7418L86.085 26.7056C86.085 26.7056 88.0093 30.9042 96.3479 31.7274C105.649 32.633 112.491 30.3279 112.598 26.0469C112.598 25.306 111.422 23.4949 111.422 23.4949L86.1919 23.6595L86.2988 23.7418Z"
        fill="#59B24F" />
    <path
        d="M111.554 24.5609C111.74 21.791 106.251 19.3204 99.2931 19.0426C92.3352 18.7649 86.5435 20.7851 86.357 23.555C86.1706 26.3249 91.6599 28.7955 98.6178 29.0733C105.576 29.3511 111.367 27.3308 111.554 24.5609Z"
        fill="#84D17D" />
    <path
        d="M110.78 24.4007C110.887 26.5412 105.756 28.4347 99.2347 28.27C92.8204 28.1054 87.1545 25.8003 87.0476 23.6598C86.9406 21.5193 92.6066 19.3789 99.0209 19.5435C105.542 19.7905 110.674 22.2603 110.78 24.4007Z"
        fill="#B0EDA9" />
    <path
        d="M91.7509 23.2477C91.5371 23.0831 91.3233 22.9184 91.2164 22.7538C91.2164 22.4245 91.7509 22.2598 92.1785 22.2598C93.1407 22.1775 93.9959 22.3422 94.8511 22.5891C94.5304 22.3422 94.3166 22.0129 94.2097 21.7659C94.2097 21.6836 94.1028 21.6012 94.2097 21.6012C94.3166 21.4366 94.5304 21.4366 94.7442 21.5189C95.7064 21.8482 96.6685 22.2598 97.6307 22.7538C97.4169 22.4245 97.203 22.0952 97.0961 21.7659C97.0961 21.4366 97.203 21.0249 97.6307 20.8603C98.1652 20.6133 98.8066 20.8603 99.2342 21.1896C99.6619 21.5189 99.8757 22.0129 99.9826 22.4245C100.731 21.9305 101.8 21.6836 102.869 21.7659C103.083 21.7659 103.404 21.8482 103.51 22.0129C103.724 22.2598 103.404 22.5068 103.083 22.6715C104.259 22.4245 105.649 22.6715 106.611 23.3301C106.718 23.4124 106.825 23.4947 106.825 23.6594C106.825 23.7417 106.718 23.824 106.718 23.824C106.29 24.2357 105.649 24.4826 105.007 24.565C104.366 24.6473 103.617 24.6473 102.976 24.6473C103.617 24.8119 104.259 25.0589 104.9 25.3882C105.007 25.3882 105.007 25.4705 105.114 25.5529C105.114 25.6352 105.114 25.6352 105.007 25.7175C104.58 26.2938 103.617 26.4584 102.762 26.2115C101.907 26.0468 101.265 25.6352 100.517 25.2236C100.838 25.5529 101.159 25.9645 101.052 26.3761C100.945 26.7877 100.517 27.1171 99.9826 27.0347C99.7688 26.9524 99.555 26.8701 99.4481 26.7054C98.9135 26.2938 98.4859 25.7998 98.2721 25.3059C98.2721 25.9645 97.5238 26.5408 96.5616 26.6231C96.3478 26.6231 96.134 26.6231 95.9202 26.4584C95.7064 26.2938 95.7064 26.0468 95.8133 25.8822C95.9202 25.7175 96.134 25.5529 96.3478 25.3882C95.7064 25.7175 94.958 25.9645 94.3166 25.6352C94.1028 25.5529 93.9959 25.3882 93.9959 25.2236C93.9959 25.1412 94.2097 25.0589 94.3166 24.9766C94.6373 24.8119 95.3857 24.6473 95.4926 24.4003C93.9959 24.071 92.8199 23.9063 91.7509 23.2477Z"
        fill="#C1FFB8" />
    <path
        d="M44.8202 39.2191L48.9895 41.6889C48.9895 41.6889 57.435 43.747 67.3771 38.9721C78.6022 33.621 82.5576 27.3642 76.2502 23.9065C75.1812 23.3302 71.1188 22.6716 71.1188 22.6716L44.3925 39.1368L44.8202 39.2191Z"
        fill="#59B24F" />
    <path
        d="M63.0479 36.8653C71.5277 33.081 76.5061 27.4939 74.1674 24.3862C71.8287 21.2784 63.0586 21.8269 54.5788 25.6113C46.099 29.3956 41.1206 34.9828 43.4593 38.0905C45.798 41.1982 54.5681 40.6497 63.0479 36.8653Z"
        fill="#84D17D" />
    <path
        d="M71.8672 23.8244C75.0743 25.4709 72.5086 30.3281 65.346 34.3621C58.1833 38.3961 48.7757 40.2895 45.4616 38.643C42.2545 36.9965 45.034 31.7277 52.0897 27.6937C59.1455 23.6598 68.66 22.1779 71.8672 23.8244Z"
        fill="#B0EDA9" />
    <path
        d="M49.8445 35.3498C49.4169 35.4322 48.8824 35.4322 48.5616 35.2675C48.0271 35.0205 48.3478 34.5266 48.7755 34.1973C49.6307 33.5387 50.8066 33.0447 52.0895 32.6331C51.4481 32.6331 50.6997 32.5508 50.1652 32.3861C50.0583 32.3861 49.8445 32.3038 49.8445 32.2215C49.6307 32.0568 50.0583 31.8922 50.379 31.8098C51.8757 31.3982 53.5862 31.0689 55.1898 30.9042C54.4414 30.8219 53.8 30.7396 53.2655 30.4926C52.7309 30.2456 52.4102 29.834 52.5171 29.4224C52.7309 28.9284 53.6931 28.5991 54.6552 28.5991C55.6174 28.5991 56.4726 28.8461 57.3279 29.0931C57.4348 28.1875 58.1831 27.2819 59.3591 26.7056C59.6798 26.541 60.0005 26.4587 60.4281 26.4587C60.9626 26.541 61.0695 26.9526 60.9626 27.2819C61.8179 26.294 63.7422 25.6354 65.6665 25.5531C65.8803 25.5531 66.201 25.5531 66.4148 25.6354C66.5217 25.7177 66.5217 25.8001 66.6286 25.8824C66.8424 26.4587 66.5217 27.1173 65.8803 27.6112C65.3457 28.1052 64.5974 28.5991 63.8491 29.0108C64.8112 28.6815 65.8803 28.5168 67.0562 28.3522C67.1631 28.3522 67.3769 28.3522 67.4838 28.3522C67.5908 28.3522 67.5908 28.4345 67.6977 28.5168C68.0184 29.2577 67.27 29.9987 66.0941 30.4103C64.9181 30.8219 63.5284 30.9042 62.2455 31.0689C63.1007 31.0689 63.956 31.2336 64.4905 31.6452C65.025 31.9745 64.9181 32.6331 64.2767 32.8801C63.956 32.9624 63.5284 33.0447 63.2076 33.0447C62.0317 33.0447 60.9626 32.9624 59.8936 32.7154C60.8557 33.2917 60.9626 34.1973 60.0005 34.8559C59.7867 35.0205 59.466 35.1852 59.0383 35.1852C58.6107 35.1852 58.1831 35.0205 58.0762 34.7736C57.8624 34.5266 57.9693 34.2796 57.9693 34.0326C57.7555 34.6912 57.3279 35.4322 56.1519 35.5968C55.8312 35.6791 55.4036 35.5968 55.1898 35.4322C55.0829 35.3498 55.0829 35.1852 55.1898 35.1029C55.2967 34.7736 55.8312 34.1149 55.6174 33.868C53.4793 34.4442 51.9826 35.1029 49.8445 35.3498Z"
        fill="#C1FFB8" />
    <path
        d="M50.3788 4.88978L46.5303 6.20699C46.5303 6.20699 42.0403 9.74699 44.7129 16.4154C47.7062 23.907 53.6929 28.0233 59.1451 25.9652C60.0003 25.6358 61.8177 23.7424 61.8177 23.7424L50.4857 4.72512L50.3788 4.88978Z"
        fill="#59B24F" />
    <path
        d="M60.4086 24.6343C64.0622 23.5909 64.8772 18.287 62.229 12.7878C59.5807 7.28847 54.4721 3.67626 50.8185 4.71965C47.1649 5.76304 46.3498 11.0669 48.9981 16.5662C51.6463 22.0655 56.755 25.6777 60.4086 24.6343Z"
        fill="#84D17D" />
    <path
        d="M60.4278 23.8246C57.7551 24.8949 53.0513 21.9311 50.3787 16.9916C47.706 12.0521 48.1337 6.53624 50.8063 5.46601C53.4789 4.39578 58.6104 7.60648 61.283 12.546C63.9556 17.4856 63.1004 22.7544 60.4278 23.8246Z"
        fill="#B0EDA9" />
    <path
        d="M53.372 8.75904C53.4789 8.51206 53.4789 8.26509 53.7996 8.10044C54.2272 7.93578 54.6548 8.26509 54.8686 8.59439C55.2963 9.25299 55.617 9.99393 55.7239 10.8172C55.9377 10.4879 56.1515 10.1586 56.4722 9.9116C56.5791 9.82927 56.5791 9.82927 56.686 9.74695C56.8998 9.74695 57.0067 9.9116 57.0067 10.1586C57.1137 11.0642 57.0067 11.9697 56.686 12.9577C56.8998 12.6283 57.2206 12.299 57.6482 12.1344C58.0758 11.9697 58.6103 11.8874 59.0379 12.1344C59.5725 12.3814 59.5725 13.04 59.3587 13.5339C59.1448 14.0279 58.6103 14.3572 58.1827 14.6865C59.1448 15.0158 60.0001 15.6744 60.3208 16.4977C60.4277 16.6623 60.4277 16.9093 60.3208 17.0739C60.107 17.3209 59.5725 17.2386 59.2518 17.0739C60.107 17.8149 60.4277 19.0497 60.0001 20.0377C60.0001 20.2023 59.8932 20.2846 59.6794 20.367C59.5725 20.367 59.4656 20.367 59.3587 20.367C58.6103 20.2846 58.0758 19.873 57.6482 19.4614C57.2206 18.9674 56.8998 18.4735 56.686 17.8972C56.7929 18.4735 56.686 19.1321 56.5791 19.7084C56.5791 19.7907 56.5791 19.873 56.4722 19.9553C56.3653 19.9553 56.3653 19.9553 56.2584 19.9553C55.4032 19.873 54.7617 19.2144 54.5479 18.4735C54.441 17.7325 54.6548 16.9916 54.8686 16.2507C54.6548 16.6623 54.2272 17.0739 53.6927 17.2386C53.1582 17.4032 52.5167 17.1563 52.4098 16.7446C52.4098 16.58 52.4098 16.333 52.5167 16.1684C52.8374 15.5921 53.1582 15.0158 53.6927 14.6042C52.8374 14.9335 51.7684 14.6042 51.3408 13.9456C51.2339 13.7809 51.127 13.5339 51.2339 13.3693C51.3408 13.1223 51.6615 13.04 51.9822 13.04C52.3029 13.04 52.5167 13.1223 52.8374 13.2046C52.196 12.8753 51.4477 12.3814 51.5546 11.7228C51.5546 11.5581 51.7684 11.3111 51.9822 11.3111C52.0891 11.3111 52.3029 11.3111 52.4098 11.3935C52.7305 11.5581 53.372 12.0521 53.6927 12.0521C53.372 10.8995 53.0513 9.9116 53.372 8.75904Z"
        fill="#C1FFB8" />
    <path
        d="M33.167 27.8585C33.167 27.8585 33.9153 35.9264 47.3854 34.4445C60.9623 32.9627 58.3966 24.5654 58.3966 24.5654L33.167 27.8585Z"
        fill="#E24C24" />
    <path
        d="M46.5597 30.12C53.5007 29.2813 58.7788 26.8901 58.3487 24.779C57.9186 22.6679 51.9431 21.6364 45.0021 22.475C38.0611 23.3136 32.783 25.7049 33.2131 27.816C33.6433 29.9271 39.6187 30.9586 46.5597 30.12Z"
        fill="#FF5A27" />
    <path
        d="M46.4605 29.6319C52.8182 28.8637 57.668 26.7481 57.2927 24.9065C56.9175 23.0649 51.4594 22.1947 45.1017 22.9629C38.744 23.731 33.8942 25.8467 34.2694 27.6883C34.6446 29.5299 40.1028 30.4 46.4605 29.6319Z"
        fill="#FF8B78" />
    <path
        d="M41.0782 25.5537C40.6506 25.8007 40.223 26.13 40.3299 26.5417C40.3299 26.7063 40.5437 26.871 40.5437 27.0356C40.5437 27.2003 40.4368 27.3649 40.4368 27.5296C40.4368 27.6119 40.5437 27.7765 40.6506 27.8589C41.399 28.3528 42.468 28.1882 43.4302 28.0235C45.889 27.6119 48.2409 27.1179 50.6997 26.7063C51.3411 26.624 52.0895 26.377 52.1964 25.9654C52.4102 25.5537 52.0895 25.1421 51.5549 24.8951C51.1273 24.6482 50.5928 24.5658 50.0583 24.5658C48.4547 24.4012 46.8511 24.4012 45.2475 24.6482C43.7509 24.7305 42.3611 24.8951 41.0782 25.5537Z"
        fill="#FF5A27" />
    <path
        d="M36.5879 27.5298C37.0155 27.4474 37.4431 27.3651 37.8707 27.2828C37.9776 27.2828 37.9776 27.2005 38.0846 27.1181C38.0846 27.0358 38.0846 26.9535 38.0846 26.8711C37.9776 26.7065 37.7638 26.7065 37.6569 26.7065C37.55 26.7065 37.4431 26.7888 37.2293 26.7888H37.3362C37.0155 26.8712 36.8017 26.8712 36.481 26.9535C36.2672 26.9535 36.1603 27.1181 36.1603 27.2828C36.2672 27.4474 36.3741 27.5298 36.5879 27.5298Z"
        fill="#FFB164" />
    <path
        d="M37.4432 26.2945C37.8708 26.2121 37.7639 25.7182 37.3363 25.7182C36.8017 25.8005 36.9087 26.3768 37.4432 26.2945Z"
        fill="#FFB164" />
    <path
        d="M37.4433 26.2945C37.764 26.2945 37.9778 26.2945 38.2986 26.2121C38.4055 26.2121 38.5124 26.1298 38.5124 26.1298C38.5124 26.0475 38.6193 25.9652 38.6193 25.9652C38.6193 25.8828 38.5124 25.8005 38.5124 25.8005C38.4055 25.7182 38.2986 25.7182 38.2986 25.7182C37.9778 25.7182 37.764 25.7182 37.4433 25.8005C37.3364 25.8005 37.2295 25.8828 37.2295 25.8828C37.2295 25.9652 37.1226 26.0475 37.1226 26.0475C37.1226 26.1298 37.2295 26.2121 37.2295 26.2121C37.2295 26.2945 37.3364 26.2945 37.4433 26.2945Z"
        fill="#FFB164" />
    <path
        d="M39.4745 24.7306C39.4745 24.8129 39.5814 24.8129 39.5814 24.8952C39.5814 24.9776 39.6883 24.9776 39.7952 24.9776C39.9021 25.0599 40.1159 25.0599 40.2228 25.1422H40.3298C40.3298 25.1422 40.4367 25.1422 40.4367 25.0599L40.5436 24.9776V24.8952V24.8129C40.5436 24.7306 40.5436 24.7306 40.4367 24.6483C40.3298 24.5659 40.3298 24.5659 40.2228 24.5659C40.2228 24.5659 40.2228 24.5659 40.1159 24.5659H40.2228C40.2228 24.5659 40.1159 24.5659 40.1159 24.4836C40.1159 24.4836 40.1159 24.4836 40.2228 24.4836L40.1159 24.4013C40.1159 24.4013 40.1159 24.4013 40.2228 24.4836L40.1159 24.4013C40.1159 24.4013 40.1159 24.4013 40.1159 24.4836C40.1159 24.4836 40.1159 24.4013 40.009 24.4013L39.9021 24.319H39.7952H39.6883C39.5814 24.319 39.5814 24.4013 39.4745 24.4836C39.3676 24.5659 39.3676 24.6483 39.4745 24.7306Z"
        fill="#FFB164" />
    <path
        d="M41.7194 24.1538C41.7194 24.2361 41.8263 24.3184 41.8263 24.4831C41.8263 24.4831 41.8263 24.5654 41.9332 24.5654L42.0401 24.6477H42.147H42.2539C42.3608 24.6477 42.3608 24.5654 42.4678 24.4831V24.4008C42.4678 24.3184 42.4678 24.3184 42.4678 24.2361C42.4678 24.1538 42.3608 24.0715 42.3608 23.9068C42.3608 23.9068 42.3608 23.8245 42.2539 23.8245L42.147 23.7421H42.0401H41.9332C41.8263 23.7421 41.8263 23.8245 41.7194 23.9068V23.9891C41.7194 24.0715 41.7194 24.0715 41.7194 24.1538Z"
        fill="#FFB164" />
    <path
        d="M46.5303 23.907C46.6372 23.8247 46.7442 23.7423 46.8511 23.5777C46.8511 23.5777 46.8511 23.4954 46.958 23.4954V23.413V23.3307C46.958 23.3307 46.958 23.2484 46.8511 23.2484C46.8511 23.2484 46.8511 23.2484 46.7442 23.2484C46.6372 23.2484 46.6372 23.2484 46.5303 23.2484H46.4234C46.3165 23.2484 46.3165 23.3307 46.3165 23.3307C46.2096 23.413 46.1027 23.4954 45.9958 23.66C45.9958 23.66 45.9958 23.7423 45.8889 23.7423V23.8247V23.907C45.8889 23.907 45.8889 23.9893 45.9958 23.9893C45.9958 23.9893 45.9958 23.9893 46.1027 23.9893C46.2096 23.9893 46.2096 23.9893 46.3165 23.9893H46.4234L46.5303 23.907Z"
        fill="#FFB164" />
    <path
        d="M49.8445 23.9073C50.0583 23.825 50.2721 23.7426 50.4859 23.6603C50.5929 23.6603 50.5929 23.578 50.6998 23.4957C50.6998 23.4133 50.6998 23.331 50.6998 23.2487C50.6998 23.1664 50.5929 23.1664 50.4859 23.084C50.379 23.084 50.2721 23.084 50.1652 23.084C49.9514 23.1664 49.7376 23.2487 49.5238 23.331C49.4169 23.331 49.4169 23.4133 49.31 23.4957C49.31 23.578 49.31 23.6603 49.31 23.7426C49.31 23.825 49.4169 23.825 49.5238 23.9073C49.6307 23.9073 49.7376 23.9073 49.8445 23.9073Z"
        fill="#FFB164" />
    <path
        d="M52.4099 24.3187C52.8375 24.3187 53.1583 24.2364 53.479 24.1541C53.5859 24.1541 53.5859 24.0718 53.6928 23.9894C53.6928 23.9071 53.6928 23.8248 53.6928 23.7425C53.6928 23.6601 53.5859 23.6601 53.479 23.5778C53.3721 23.5778 53.2652 23.5778 53.1583 23.5778C53.0513 23.5778 53.0514 23.5778 52.9444 23.6601H53.0514C52.8375 23.7425 52.5168 23.7425 52.1961 23.7425C51.9823 23.7425 51.8754 23.9071 51.8754 24.0718C51.9823 24.3188 52.1961 24.4011 52.4099 24.3187Z"
        fill="#FFB164" />
    <path
        d="M54.0136 25.4712C54.3343 25.4712 54.7619 25.4712 55.0827 25.5535C55.1896 25.5535 55.2965 25.5535 55.2965 25.4712C55.4034 25.3888 55.4034 25.3888 55.4034 25.3065C55.4034 25.1419 55.2965 24.9772 55.0827 24.9772C54.7619 24.9772 54.3343 24.9772 54.0136 24.8949C53.9067 24.8949 53.7998 24.8949 53.7998 24.9772C53.6929 25.0595 53.6929 25.0595 53.6929 25.1419C53.6929 25.3065 53.7998 25.4712 54.0136 25.4712Z"
        fill="#FFB164" />
    <path
        d="M52.624 26.5414C52.8378 26.6237 53.0517 26.706 53.2655 26.7884C53.2655 26.7884 53.3724 26.7884 53.3724 26.8707H53.4793C53.5862 26.8707 53.6931 26.7884 53.6931 26.7884C53.6931 26.706 53.8 26.6237 53.8 26.6237C53.8 26.5414 53.6931 26.4591 53.6931 26.4591C53.4793 26.3767 53.2655 26.2944 53.0516 26.2121C53.0516 26.2121 52.9447 26.2121 52.9447 26.1297H52.8378C52.7309 26.1297 52.624 26.2121 52.624 26.2121C52.624 26.2944 52.5171 26.3767 52.5171 26.3767C52.5171 26.4591 52.5171 26.5414 52.624 26.5414Z"
        fill="#FFB164" />
    <path
        d="M50.272 27.694L50.3789 27.7763C50.272 27.7763 50.272 27.7763 50.272 27.694C50.3789 27.7763 50.3789 27.8586 50.3789 27.8586V27.7763C50.3789 27.7763 50.3789 27.7763 50.3789 27.8586V27.941C50.3789 27.941 50.3789 28.0233 50.4858 28.0233C50.4858 28.0233 50.5927 28.0233 50.5927 28.1056H50.6996C50.8065 28.1056 50.9134 28.0233 50.9134 28.0233C50.9134 27.941 51.0204 27.8586 51.0204 27.8586C51.0204 27.7763 51.0204 27.694 50.9134 27.6117C50.9134 27.5293 50.8065 27.447 50.6996 27.447C50.5927 27.3647 50.5927 27.3647 50.4858 27.3647H50.3789C50.3789 27.3647 50.272 27.3647 50.272 27.447C50.1651 27.5293 50.1651 27.5293 50.1651 27.6117V27.694C50.1651 27.6117 50.1651 27.694 50.272 27.694Z"
        fill="#FFB164" />
    <path
        d="M46.5304 28.5173C46.5304 28.5996 46.6373 28.5996 46.6373 28.6819V28.5996C46.6373 28.6819 46.6373 28.7643 46.6373 28.8466V28.9289C46.6373 28.9289 46.6373 29.0112 46.7442 29.0112C46.8511 29.0112 46.958 29.0936 46.958 29.0936C47.0649 29.0936 47.1718 29.0112 47.1718 29.0112C47.1718 29.0112 47.1718 29.0112 47.1718 28.9289C47.1718 28.8466 47.1718 28.8466 47.1718 28.7643C47.1718 28.6819 47.1718 28.5996 47.1718 28.5996C47.1718 28.5173 47.0649 28.435 47.0649 28.3526C47.0649 28.2703 46.958 28.2703 46.8511 28.188H46.7442H46.6373C46.5304 28.188 46.5304 28.2703 46.4234 28.3526C46.5304 28.3526 46.5304 28.435 46.5304 28.5173Z"
        fill="#FFB164" />
    <path
        d="M43.7507 28.7645V28.8468C43.7507 28.8468 43.7507 28.8468 43.7507 28.7645C43.7507 28.8468 43.7507 28.8468 43.7507 28.9292C43.7507 28.9292 43.7507 28.9292 43.7507 28.7645C43.7507 28.8468 43.7507 28.9292 43.7507 28.9292C43.7507 28.9292 43.7507 28.9292 43.7507 28.8468C43.7507 28.8468 43.7507 28.9292 43.6438 28.9292C43.6438 28.9292 43.6438 29.0115 43.5369 29.0115V29.0938C43.5369 29.1761 43.6438 29.2585 43.6438 29.2585C43.7507 29.2585 43.8576 29.3408 43.8576 29.3408H43.9645C44.0714 29.3408 44.0714 29.2585 44.0714 29.2585C44.1783 29.1761 44.1783 29.1761 44.1783 29.0938C44.1783 29.0938 44.1783 29.0115 44.2852 29.0115C44.2852 28.9292 44.2852 28.9292 44.2852 28.8468C44.2852 28.7645 44.2852 28.6822 44.2852 28.6822C44.2852 28.5999 44.1783 28.5175 44.1783 28.5175C44.0714 28.5175 43.9645 28.4352 43.9645 28.4352C43.8576 28.4352 43.7507 28.5175 43.7507 28.5175C43.7507 28.6822 43.7507 28.7645 43.7507 28.7645Z"
        fill="#FFB164" />
    <path
        d="M40.6505 28.2706C40.5436 28.3529 40.5436 28.4353 40.4367 28.5176C40.4367 28.5176 40.4367 28.5176 40.5436 28.4353C40.4367 28.5176 40.2229 28.5999 40.116 28.6822C40.0091 28.6822 40.0091 28.7646 40.0091 28.8469C40.0091 28.9292 40.0091 29.0115 40.116 29.0115C40.2229 29.0939 40.2229 29.0939 40.3298 29.0939H40.4367C40.5436 29.0939 40.5436 29.0939 40.6505 29.0115C40.9712 28.8469 41.1851 28.6822 41.3989 28.4353C41.3989 28.3529 41.5058 28.2706 41.5058 28.2706C41.5058 28.1883 41.3989 28.106 41.3989 28.106C41.292 28.106 41.1851 28.0236 41.1851 28.0236C40.8643 28.1883 40.7574 28.1883 40.6505 28.2706Z"
        fill="#FFB164" />
    <path
        d="M37.6573 28.6819C37.7642 28.5996 37.7642 28.5173 37.8712 28.5173C37.8712 28.5173 37.8712 28.435 37.9781 28.435V28.3526V28.2703C37.9781 28.2703 37.9781 28.188 37.8712 28.188C37.8712 28.188 37.8712 28.188 37.7642 28.188C37.6573 28.188 37.6573 28.188 37.5504 28.188H37.4435C37.3366 28.188 37.3366 28.2703 37.3366 28.2703C37.2297 28.3526 37.2297 28.435 37.1228 28.435C37.1228 28.435 37.1228 28.5173 37.0159 28.5173V28.5996V28.6819C37.0159 28.6819 37.0159 28.7643 37.1228 28.7643C37.1228 28.7643 37.1228 28.7643 37.2297 28.7643C37.3366 28.7643 37.3366 28.7643 37.4435 28.7643H37.5504C37.5504 28.7643 37.5504 28.7643 37.6573 28.6819Z"
        fill="#FFB164" />
    <path opacity="0.24"
        d="M38.833 33.0455C39.5813 33.2925 40.4366 33.6218 41.2918 33.5395C41.6125 33.5395 41.9332 33.3748 41.9332 33.1279C41.9332 32.9632 41.6125 32.7986 41.3987 32.7162C40.8642 32.5516 40.3297 32.3869 40.0089 32.0576C39.3675 31.5637 38.0847 30.2465 36.8018 30.8227C35.6258 31.4813 38.1916 32.7986 38.833 33.0455Z"
        fill="white" />
    <path
        d="M61.7113 22.0958C61.7113 22.0958 68.2325 28.3525 78.2816 21.2725C88.3306 14.1925 80.0989 8.42971 80.0989 8.42971L61.7113 22.0958Z"
        fill="#E24C24" />
    <path
        d="M74.4311 18.141C79.5369 14.4239 82.1305 10.1518 80.2241 8.59882C78.3177 7.0459 72.6332 8.80028 67.5274 12.5174C62.4216 16.2344 59.828 20.5066 61.7344 22.0596C63.6408 23.6125 69.3253 21.8581 74.4311 18.141Z"
        fill="#FF5A27" />
    <path
        d="M73.9904 17.7824C78.6671 14.3776 81.1102 10.5194 79.4472 9.1647C77.7841 7.81001 72.6447 9.4719 67.968 12.8766C63.2913 16.2813 60.8482 20.1396 62.5112 21.4943C64.1742 22.849 69.3136 21.1871 73.9904 17.7824Z"
        fill="#FF8B78" />
    <path
        d="M66.5216 16.8265C66.3078 17.1558 66.2009 17.6497 66.6285 17.979C66.7354 18.0614 66.9492 18.1437 67.163 18.3083C67.2699 18.473 67.2699 18.6376 67.3768 18.72C67.4837 18.8023 67.5906 18.8846 67.8044 18.8846C68.7666 18.9669 69.5149 18.3907 70.1564 17.8144C71.8668 16.4148 73.4704 15.0153 75.1809 13.5334C75.6085 13.2041 76.0362 12.7102 75.9293 12.2162C75.8223 11.8046 75.1809 11.5576 74.6464 11.5576C74.1119 11.5576 73.5773 11.7223 73.1497 11.9693C71.7599 12.5455 70.3702 13.2041 69.1942 14.1097C68.1252 15.0153 67.163 15.7562 66.5216 16.8265Z"
        fill="#FF5A27" />
    <path
        d="M64.2766 20.367C64.5973 20.12 64.918 19.873 65.1318 19.5437C65.1318 19.4614 65.2387 19.3791 65.1318 19.3791C65.1318 19.2967 65.0249 19.2144 64.918 19.2144C64.7042 19.1321 64.5973 19.2144 64.3835 19.2967C64.2766 19.3791 64.1697 19.4614 64.1697 19.5437C64.1697 19.5437 64.1697 19.5437 64.2766 19.4614C64.0628 19.626 63.9559 19.7907 63.7421 19.9553C63.6352 20.0377 63.6352 20.2023 63.7421 20.367C63.849 20.4493 64.1697 20.4493 64.2766 20.367Z"
        fill="#FFB164" />
    <path
        d="M64.0628 19.0496C64.3835 18.8026 63.9559 18.391 63.5283 18.6379C63.2076 18.8849 63.7421 19.2965 64.0628 19.0496Z"
        fill="#FFB164" />
    <path
        d="M64.0628 19.0491C64.2766 18.8845 64.4904 18.8022 64.7042 18.6375C64.8111 18.5552 64.8111 18.4728 64.8111 18.4728C64.8111 18.3905 64.8111 18.3082 64.7042 18.3082C64.5973 18.2259 64.5973 18.2259 64.4904 18.2259C64.3835 18.2259 64.2766 18.2259 64.2766 18.3082C64.0628 18.4728 63.849 18.5552 63.6352 18.7198C63.5283 18.8022 63.5283 18.8845 63.5283 18.8845C63.5283 18.9668 63.5283 19.0491 63.6352 19.0491C63.7421 19.1315 63.7421 19.1315 63.849 19.1315C63.849 19.1315 63.9559 19.0491 64.0628 19.0491Z"
        fill="#FFB164" />
    <path
        d="M64.5976 16.8268C64.7045 16.8268 64.7045 16.9091 64.8114 16.9091C64.9183 16.9091 64.9183 16.9091 65.0252 16.9091C65.1322 16.9091 65.346 16.9091 65.4529 16.8268C65.4529 16.8268 65.5598 16.8268 65.5598 16.7444L65.6667 16.6621V16.5798V16.4975C65.6667 16.4975 65.6667 16.4975 65.5598 16.4151L65.4529 16.3328C65.346 16.3328 65.2391 16.3328 65.2391 16.3328C65.2391 16.3328 65.2391 16.3328 65.1322 16.3328H65.2391H65.1322H65.2391H65.1322H65.2391H65.1322H65.2391H65.1322H65.0252C65.0252 16.3328 64.9183 16.3328 64.9183 16.4151L64.8114 16.4975C64.8114 16.5798 64.7045 16.6621 64.8114 16.6621C64.3838 16.7444 64.4907 16.8268 64.5976 16.8268Z"
        fill="#FFB164" />
    <path
        d="M65.9871 15.3446C66.094 15.4269 66.2009 15.5093 66.3079 15.5093H66.4148H66.5217C66.5217 15.5093 66.6286 15.5093 66.6286 15.4269L66.7355 15.3446C66.7355 15.2623 66.8424 15.18 66.7355 15.18V15.0976C66.7355 15.0153 66.6286 15.0153 66.6286 15.0153C66.5217 14.933 66.4148 14.8507 66.3079 14.8507H66.2009H66.094C66.094 14.8507 65.9871 14.8507 65.9871 14.933L65.8802 15.0153C65.8802 15.0976 65.7733 15.18 65.8802 15.18V15.2623C65.9871 15.2623 65.9871 15.3446 65.9871 15.3446Z"
        fill="#FFB164" />
    <path
        d="M69.8358 13.0395C69.8358 12.8749 69.8358 12.7925 69.8358 12.6279V12.5456C69.8358 12.5456 69.8358 12.4632 69.7289 12.4632L69.622 12.3809H69.515H69.4081C69.3012 12.3809 69.3012 12.3809 69.1943 12.4632C69.1943 12.4632 69.1943 12.4632 69.0874 12.5456C69.0874 12.6279 69.0874 12.6279 69.0874 12.7102C69.0874 12.8749 69.0874 12.9572 69.0874 13.1219V13.2042C69.0874 13.2042 69.0874 13.2865 69.1943 13.2865L69.3012 13.3688H69.4081H69.515C69.622 13.3688 69.622 13.3688 69.7289 13.2865C69.7289 13.2865 69.7289 13.2865 69.8358 13.2042C69.8358 13.2042 69.8358 13.1219 69.8358 13.0395Z"
        fill="#FFB164" />
    <path
        d="M72.5087 11.6398C72.6156 11.4751 72.7225 11.3105 72.8294 11.1458C72.8294 11.0635 72.9363 10.9812 72.8294 10.9812C72.8294 10.8989 72.7225 10.8165 72.6156 10.8165C72.5087 10.8165 72.4018 10.7342 72.4018 10.8165C72.2949 10.8165 72.188 10.8989 72.188 10.9812C72.0811 11.1458 71.9741 11.3105 71.8672 11.4751C71.8672 11.5575 71.7603 11.6398 71.8672 11.6398C71.8672 11.7221 71.9742 11.8044 72.0811 11.8044C72.188 11.8044 72.2949 11.8868 72.2949 11.8044C72.4018 11.7221 72.5087 11.7221 72.5087 11.6398Z"
        fill="#FFB164" />
    <path
        d="M74.9674 10.899C75.2881 10.7344 75.5019 10.4874 75.7157 10.2404C75.7157 10.1581 75.8226 10.0758 75.7157 10.0758C75.7157 9.99343 75.6088 9.91111 75.5019 9.91111C75.395 9.91111 75.2881 9.82878 75.2881 9.91111C75.1812 9.91111 75.0743 9.99343 75.0743 10.0758C75.0743 10.1581 74.9674 10.1581 74.9674 10.2404C74.9674 10.2404 74.9674 10.2404 75.0743 10.1581C74.8605 10.3227 74.7536 10.4874 74.5398 10.5697C74.4329 10.652 74.4329 10.899 74.5398 10.9813C74.6467 10.9813 74.7536 10.9813 74.9674 10.899Z"
        fill="#FFB164" />
    <path
        d="M77.1056 11.064C77.4263 10.8993 77.747 10.817 77.9608 10.6523C78.0677 10.6523 78.0677 10.57 78.1746 10.4877C78.1746 10.4053 78.1746 10.323 78.1746 10.323C78.0677 10.2407 77.8539 10.1584 77.747 10.2407C77.4263 10.4053 77.1056 10.4877 76.8918 10.6523C76.7849 10.6523 76.7849 10.7347 76.678 10.817C76.678 10.8993 76.678 10.9816 76.678 10.9816C76.678 11.064 76.9987 11.1463 77.1056 11.064Z"
        fill="#FFB164" />
    <path
        d="M76.7848 12.6283C76.9986 12.6283 77.3193 12.6283 77.5331 12.6283H77.64C77.64 12.6283 77.7469 12.6283 77.7469 12.546C77.8538 12.4637 77.8538 12.4637 77.8538 12.3814C77.8538 12.299 77.8538 12.2167 77.7469 12.2167C77.64 12.1344 77.64 12.1344 77.5331 12.1344C77.3193 12.1344 76.9986 12.1344 76.7848 12.1344H76.6779C76.6779 12.1344 76.571 12.1344 76.571 12.2167C76.464 12.299 76.4641 12.299 76.4641 12.3814C76.4641 12.4637 76.464 12.546 76.571 12.546C76.571 12.546 76.6779 12.6283 76.7848 12.6283Z"
        fill="#FFB164" />
    <path
        d="M75.7155 14.6037H75.8224H75.7155C75.8224 14.6037 75.9293 14.686 75.9293 14.686C75.9293 14.686 75.9293 14.686 75.8224 14.6037L75.9293 14.686H76.0362H76.1431C76.1431 14.686 76.25 14.686 76.25 14.6037C76.3569 14.5214 76.3569 14.5214 76.3569 14.4391C76.3569 14.3567 76.3569 14.2744 76.25 14.2744C76.1431 14.1921 76.1431 14.1921 76.0362 14.1098C75.9293 14.1098 75.8224 14.0274 75.7155 14.0274C75.6086 14.0274 75.5017 14.0274 75.5017 14.0274C75.5017 14.0274 75.3947 14.0274 75.3947 14.1098L75.2878 14.1921C75.2878 14.2744 75.2878 14.3567 75.2878 14.3567C75.2878 14.3567 75.2878 14.3567 75.3947 14.4391C75.5017 14.5214 75.6086 14.6037 75.7155 14.6037Z"
        fill="#FFB164" />
    <path
        d="M73.2568 16.9091C73.3637 16.9091 73.3637 16.9914 73.4706 16.9914C73.4706 16.9914 73.4706 16.9914 73.3637 16.9091C73.4706 16.9914 73.4706 16.9914 73.5775 17.0737L73.6844 17.1561H73.7913C73.8982 17.1561 74.0051 17.1561 74.0051 17.0737C74.112 16.9914 74.112 16.9914 74.112 16.9091V16.8268C74.112 16.7444 74.112 16.7444 74.0051 16.6621C73.8982 16.5798 73.8982 16.5798 73.7913 16.4975C73.6844 16.4151 73.5775 16.4151 73.4706 16.3328C73.3637 16.3328 73.2568 16.2505 73.2568 16.3328C73.2568 16.3328 73.1499 16.3328 73.1499 16.4151L73.043 16.4975C73.043 16.5798 72.9361 16.6621 73.043 16.6621C73.043 16.8268 73.1499 16.8268 73.2568 16.9091Z"
        fill="#FFB164" />
    <path
        d="M71.1188 18.3083C71.1188 18.3083 71.2257 18.3906 71.1188 18.3083C71.2257 18.3906 71.2257 18.3083 71.1188 18.3083C71.2257 18.3906 71.2257 18.3906 71.2257 18.3906C71.2257 18.3906 71.2257 18.3906 71.1188 18.3083C71.2257 18.3906 71.2257 18.473 71.2257 18.473V18.3906V18.473V18.5553C71.2257 18.5553 71.2257 18.6376 71.3326 18.6376C71.4395 18.7199 71.4395 18.7199 71.5464 18.7199C71.6533 18.7199 71.7602 18.7199 71.7602 18.6376C71.7602 18.6376 71.7602 18.6376 71.8671 18.5553C71.8671 18.473 71.8671 18.473 71.8671 18.3906C71.8671 18.3083 71.8671 18.3083 71.8671 18.226V18.1437C71.8671 18.0613 71.8671 18.0613 71.7602 17.979C71.7602 17.8967 71.6533 17.8967 71.6533 17.8144C71.5464 17.732 71.5464 17.732 71.4395 17.732C71.3326 17.732 71.2257 17.732 71.2257 17.8144C71.1188 17.8967 71.1188 17.8967 71.1188 17.979C71.0119 18.226 71.1188 18.226 71.1188 18.3083Z"
        fill="#FFB164" />
    <path
        d="M68.2325 19.2139C68.2325 19.2963 68.2325 19.3786 68.2325 19.5432V19.4609C68.2325 19.6256 68.1255 19.7079 68.1255 19.8725C68.1255 19.9549 68.1255 20.0372 68.1255 20.0372C68.1255 20.1195 68.2325 20.1195 68.3394 20.2018C68.4463 20.2018 68.5532 20.2018 68.5532 20.2018C68.5532 20.2018 68.5532 20.2018 68.6601 20.1195L68.767 20.0372C68.8739 19.7902 68.9808 19.5432 68.9808 19.2963C68.9808 19.2139 68.9808 19.1316 68.8739 19.1316C68.767 18.967 68.6601 18.967 68.5532 18.967C68.4463 18.967 68.3394 18.967 68.3394 19.0493C68.2325 19.0493 68.2325 19.1316 68.2325 19.2139Z"
        fill="#FFB164" />
    <path
        d="M65.9874 20.9431C65.9874 20.8608 65.9874 20.7784 65.9874 20.6961V20.6138C65.9874 20.6138 65.9874 20.5315 65.8805 20.5315L65.7736 20.4491H65.6666H65.5597C65.4528 20.4491 65.4528 20.4491 65.3459 20.5315C65.3459 20.5315 65.3459 20.5315 65.239 20.6138C65.239 20.6961 65.239 20.6961 65.239 20.7784C65.239 20.8608 65.239 20.9431 65.239 21.0254V21.1077C65.239 21.1077 65.239 21.1901 65.3459 21.1901L65.4528 21.2724H65.5597H65.6666C65.7736 21.2724 65.7736 21.2724 65.8805 21.1901C65.8805 21.1901 65.8805 21.1901 65.9874 21.1077C65.9874 21.0254 65.9874 20.9431 65.9874 20.9431Z"
        fill="#FFB164" />
    <path opacity="0.24"
        d="M70.1564 23.9063C71.0116 23.824 71.8669 23.6593 72.6152 23.2477C72.829 23.0831 73.0428 22.8361 72.9359 22.5891C72.829 22.4245 72.5083 22.4245 72.1876 22.5068C71.6531 22.5891 71.1186 22.6714 70.4771 22.5891C69.515 22.5068 67.4838 21.9305 66.9492 23.0007C66.3078 24.071 69.515 23.9887 70.1564 23.9063Z"
        fill="white" />
    <path
        d="M74.0048 31.3166C74.0048 31.3166 76.9982 39.0553 89.8268 35.3506C102.655 31.6459 97.6308 23.9073 97.6308 23.9073L74.0048 31.3166Z"
        fill="#E24C24" />
    <path
        d="M87.7063 31.3013C94.2468 29.3253 98.7274 26.1109 97.714 24.1216C96.7006 22.1323 90.5769 22.1215 84.0364 24.0974C77.4959 26.0734 73.0153 29.2878 74.0287 31.2771C75.0422 33.2664 81.1658 33.2772 87.7063 31.3013Z"
        fill="#FF5A27" />
    <path
        d="M87.4723 30.8417C93.4632 29.0318 97.6031 26.1578 96.7191 24.4225C95.835 22.6871 90.2618 22.7476 84.2709 24.5575C78.28 26.3674 74.1401 29.2414 75.0242 30.9767C75.9082 32.7121 81.4814 32.6516 87.4723 30.8417Z"
        fill="#FF8B78" />
    <path
        d="M81.0606 27.7767C80.7399 28.0237 80.3122 28.4353 80.526 28.8469C80.633 29.0116 80.7399 29.0939 80.8468 29.2585C80.8468 29.4232 80.7399 29.5878 80.8468 29.7525C80.8468 29.8348 81.0606 29.9171 81.1675 29.9995C82.0227 30.3288 82.9849 30.0818 83.947 29.7525C86.192 28.9292 88.437 28.106 90.682 27.2827C91.2166 27.0357 91.9649 26.7888 91.9649 26.2948C91.9649 25.8832 91.6442 25.4716 91.1097 25.3892C90.5751 25.2246 90.0406 25.2246 89.5061 25.3069C87.9025 25.4716 86.2989 25.6362 84.8023 26.2125C83.4125 26.5418 82.1296 26.9534 81.0606 27.7767Z"
        fill="#FF5A27" />
    <path
        d="M77.2121 30.4111C77.6397 30.2465 78.0673 30.0818 78.3881 29.9172C78.495 29.9172 78.495 29.8348 78.495 29.7525C78.495 29.6702 78.495 29.5879 78.3881 29.5055C78.2811 29.3409 78.0673 29.3409 77.8535 29.4232C77.7466 29.5055 77.6397 29.5055 77.5328 29.5879H77.6397C77.4259 29.6702 77.1052 29.8348 76.8914 29.9172C76.6776 29.9995 76.5707 30.1641 76.6776 30.2465C76.8914 30.4111 77.1052 30.4935 77.2121 30.4111Z"
        fill="#FFB164" />
    <path
        d="M77.6397 29.094C78.0673 28.9294 77.8535 28.4354 77.4259 28.6001C76.9983 28.6824 77.2121 29.2587 77.6397 29.094Z"
        fill="#FFB164" />
    <path
        d="M77.6398 29.0933C77.8536 29.0109 78.1743 29.0109 78.3881 28.9286C78.495 28.9286 78.6019 28.8463 78.6019 28.764C78.6019 28.6816 78.6019 28.5993 78.6019 28.517C78.6019 28.4346 78.495 28.3523 78.3881 28.3523C78.2812 28.3523 78.1743 28.3523 78.0674 28.3523C77.8536 28.4347 77.5329 28.4346 77.3191 28.517C77.2122 28.517 77.1053 28.5993 77.1053 28.6816C77.1053 28.764 77.1053 28.8463 77.1053 28.9286C77.1053 29.0109 77.2122 29.0933 77.3191 29.0933C77.5329 29.0933 77.5329 29.0933 77.6398 29.0933Z"
        fill="#FFB164" />
    <path
        d="M79.2436 27.2004C79.2436 27.2827 79.3505 27.2827 79.4574 27.2827C79.5643 27.2827 79.5643 27.3651 79.6712 27.3651C79.7781 27.4474 79.9919 27.4474 80.0988 27.4474H80.2057C80.2057 27.4474 80.3126 27.4474 80.3126 27.3651C80.3126 27.3651 80.3126 27.2827 80.4195 27.2827V27.2004V27.1181C80.4195 27.0358 80.3126 27.0358 80.3126 27.0358C80.2057 26.9534 80.0988 26.9534 80.0988 26.9534C80.0988 26.9534 80.0988 26.9534 79.9919 26.9534H80.0988H79.9919H80.0988C80.0988 26.9534 79.9919 26.9534 79.9919 26.8711C79.9919 26.8711 79.9919 26.8711 80.0988 26.8711L79.9919 26.7888C79.9919 26.7888 79.9919 26.7888 80.0988 26.8711L79.9919 26.7888H79.885H79.7781C79.7781 26.7888 79.6712 26.7888 79.6712 26.8711C79.5643 26.9534 79.5643 26.9534 79.5643 27.0358C79.1367 27.1181 79.1367 27.2004 79.2436 27.2004Z"
        fill="#FFB164" />
    <path
        d="M81.2745 26.2943C81.3814 26.3767 81.3814 26.459 81.4883 26.5413L81.5952 26.6236H81.7021H81.809C81.809 26.6236 81.9159 26.6236 81.9159 26.5413C82.0228 26.459 82.0228 26.459 82.0228 26.3767V26.2943C82.0228 26.212 82.0228 26.212 81.9159 26.1297C81.809 26.0474 81.809 25.965 81.7021 25.8827L81.5952 25.8004H81.4883H81.3814C81.3814 25.8004 81.2745 25.8004 81.2745 25.8827C81.1676 25.965 81.1676 25.965 81.1676 26.0474V26.1297C81.2745 26.212 81.2745 26.212 81.2745 26.2943Z"
        fill="#FFB164" />
    <path
        d="M85.9782 25.224C86.0851 25.1417 86.0851 24.9771 86.192 24.8947V24.8124V24.7301C86.192 24.7301 86.192 24.6478 86.0851 24.6478L85.9782 24.5654H85.8713C85.7644 24.5654 85.7644 24.5654 85.6575 24.5654H85.5506L85.4437 24.6478C85.3368 24.7301 85.3368 24.8947 85.2299 24.9771V25.0594V25.1417C85.2299 25.1417 85.2299 25.224 85.3368 25.224L85.4437 25.3064H85.5506C85.6575 25.3064 85.6575 25.3064 85.7644 25.3064H85.8713C85.8713 25.3064 85.8713 25.3064 85.9782 25.224Z"
        fill="#FFB164" />
    <path
        d="M89.0784 24.6477C89.2922 24.5654 89.506 24.4007 89.6129 24.3184C89.7198 24.2361 89.7199 24.2361 89.7199 24.1537C89.7199 24.0714 89.7198 23.9891 89.6129 23.9068C89.506 23.8244 89.506 23.8244 89.3991 23.8244C89.2922 23.8244 89.1853 23.8244 89.0784 23.9068C88.8646 23.9891 88.6508 24.1537 88.5439 24.2361C88.437 24.3184 88.437 24.3184 88.437 24.4007C88.437 24.483 88.437 24.5654 88.5439 24.6477C88.6508 24.73 88.6508 24.73 88.7577 24.73C88.9715 24.73 89.0784 24.73 89.0784 24.6477Z"
        fill="#FFB164" />
    <path
        d="M91.751 24.7306C92.0717 24.6483 92.4993 24.4836 92.8201 24.4013C92.927 24.4013 92.927 24.319 92.927 24.2366C92.927 24.1543 92.927 24.072 92.8201 23.9897C92.7132 23.9073 92.7132 23.9073 92.6063 23.9073C92.4993 23.9073 92.3924 23.9073 92.2855 23.9897C92.1786 23.9897 92.1786 24.072 92.0717 24.072H92.1786C91.9648 24.1543 91.6441 24.2366 91.4303 24.319C91.2165 24.4013 91.1096 24.5659 91.2165 24.6483C91.3234 24.6483 91.5372 24.7306 91.751 24.7306Z"
        fill="#FFB164" />
    <path
        d="M93.6754 25.4714C93.9961 25.389 94.4237 25.389 94.7444 25.3067C94.8513 25.3067 94.9582 25.2244 94.9582 25.2244C94.9582 25.1421 95.0651 25.0597 95.0651 25.0597C95.0651 24.8951 94.8513 24.8128 94.6375 24.8128C94.3168 24.8951 93.8892 24.8951 93.5685 24.9774C93.4615 24.9774 93.3546 25.0597 93.3546 25.0597C93.3546 25.1421 93.2477 25.2244 93.2477 25.2244C93.2477 25.389 93.4615 25.5537 93.6754 25.4714Z"
        fill="#FFB164" />
    <path
        d="M92.6064 26.7882C92.8202 26.8706 93.034 26.8706 93.3547 26.9529H93.4616H93.5685C93.6755 26.9529 93.7824 26.8706 93.7824 26.7882C93.7824 26.7059 93.7824 26.6236 93.7824 26.5413C93.7824 26.4589 93.6755 26.3766 93.5685 26.3766C93.3547 26.2943 93.1409 26.2943 92.8202 26.212H92.7133H92.6064C92.4995 26.212 92.3926 26.2943 92.3926 26.3766C92.3926 26.4589 92.3926 26.5413 92.3926 26.6236C92.4995 26.7059 92.4995 26.7882 92.6064 26.7882Z"
        fill="#FFB164" />
    <path
        d="M90.5751 28.3525L90.682 28.4348C90.682 28.3525 90.682 28.3525 90.5751 28.3525C90.682 28.4348 90.682 28.4348 90.7889 28.5171V28.4348C90.7889 28.4348 90.7889 28.4348 90.7889 28.5171C90.7889 28.5171 90.7889 28.5995 90.8958 28.5995L91.0027 28.6818H91.1096H91.2165C91.3234 28.6818 91.4303 28.5995 91.4303 28.5171C91.4303 28.4348 91.4303 28.3525 91.4303 28.2702C91.4303 28.1878 91.3234 28.1055 91.3234 28.1055C91.2165 28.0232 91.2165 28.0232 91.1096 27.9409C91.0027 27.8585 90.8958 27.8585 90.8958 27.8585H90.7889C90.7889 27.8585 90.682 27.8585 90.682 27.9409C90.682 28.0232 90.5751 28.1055 90.5751 28.1055V28.1878C90.5751 28.2702 90.5751 28.2702 90.5751 28.3525Z"
        fill="#FFB164" />
    <path
        d="M87.2612 29.7525C87.2612 29.8348 87.3681 29.8348 87.3681 29.9171V29.8348C87.3681 29.9171 87.475 29.9994 87.475 29.9994C87.475 29.9994 87.475 30.0818 87.5819 30.0818L87.6888 30.1641C87.7957 30.1641 87.9026 30.1641 88.0095 30.1641C88.1164 30.1641 88.2233 30.0818 88.2233 29.9994V29.9171C88.2233 29.8348 88.2233 29.8348 88.2233 29.7525C88.2233 29.6701 88.1164 29.5878 88.1164 29.5878C88.0095 29.5055 88.0095 29.4232 87.9026 29.3408C87.7957 29.2585 87.7957 29.2585 87.6888 29.2585H87.5819C87.5819 29.2585 87.475 29.2585 87.475 29.3408C87.3681 29.4232 87.3681 29.4232 87.3681 29.5055C87.1543 29.5878 87.1543 29.6701 87.2612 29.7525Z"
        fill="#FFB164" />
    <path
        d="M84.5888 30.4932V30.5756C84.5888 30.4932 84.5888 30.4932 84.5888 30.4932C84.5888 30.5756 84.5888 30.5756 84.5888 30.6579C84.6957 30.5756 84.6957 30.5756 84.5888 30.4932C84.5888 30.5756 84.5888 30.6579 84.5888 30.6579V30.5756C84.5888 30.5756 84.5888 30.6579 84.4819 30.6579V30.7402V30.8225C84.4819 30.9049 84.5888 30.9872 84.6957 30.9872C84.8026 30.9872 84.9095 30.9872 85.0164 30.9872H85.1233L85.2302 30.9049C85.2302 30.8225 85.3371 30.8225 85.3371 30.7402V30.6579C85.3371 30.5756 85.3371 30.5756 85.3371 30.4932C85.3371 30.4109 85.3371 30.4109 85.2302 30.3286C85.2302 30.2463 85.1233 30.2463 85.0164 30.1639C84.9095 30.1639 84.8026 30.1639 84.6957 30.1639C84.5888 30.1639 84.4819 30.2463 84.4819 30.3286C84.5888 30.3286 84.5888 30.4109 84.5888 30.4932Z"
        fill="#FFB164" />
    <path
        d="M81.4883 30.493C81.4883 30.5754 81.3814 30.6577 81.2745 30.74C81.2745 30.74 81.2745 30.74 81.2745 30.6577C81.1676 30.8223 81.0607 30.9047 80.9538 30.987C80.8469 31.0693 80.8469 31.1516 80.8469 31.1516C80.8469 31.234 80.9538 31.3163 80.9538 31.3163C81.0607 31.3163 81.1676 31.3986 81.1676 31.3986H81.2745C81.3814 31.3986 81.3814 31.3163 81.3814 31.3163C81.5952 31.1516 81.8091 30.9047 81.916 30.6577C81.916 30.5754 81.916 30.493 81.916 30.4107C81.916 30.3284 81.8091 30.2461 81.7022 30.2461C81.5952 30.2461 81.4883 30.2461 81.3814 30.2461C81.5952 30.3284 81.4883 30.4107 81.4883 30.493Z"
        fill="#FFB164" />
    <path
        d="M78.602 31.3983C78.602 31.316 78.7089 31.2337 78.7089 31.1514V31.069V30.9867C78.7089 30.9867 78.7089 30.9044 78.602 30.9044L78.4951 30.8221H78.3882C78.2813 30.8221 78.2813 30.8221 78.1744 30.8221H78.0675L77.9606 30.9044C77.9606 30.9867 77.8537 31.069 77.8537 31.1514V31.2337V31.316C77.8537 31.316 77.8537 31.3983 77.9606 31.3983L78.0675 31.4807H78.1744C78.2813 31.4807 78.2813 31.4807 78.3882 31.4807H78.4951C78.4951 31.4807 78.4951 31.4807 78.602 31.3983Z"
        fill="#FFB164" />
    <path opacity="0.24"
        d="M80.9537 35.4325C81.8089 35.5972 82.6642 35.6795 83.5194 35.5149C83.8401 35.4325 84.1608 35.2679 84.0539 35.0209C83.947 34.8563 83.7332 34.7739 83.4125 34.6916C82.878 34.6093 82.3435 34.527 81.8089 34.28C80.9537 33.8684 79.3501 32.7981 78.2811 33.6214C77.3189 34.4446 80.3123 35.2679 80.9537 35.4325Z"
        fill="white" />
    <path
        d="M15.8485 17.8143C15.8485 17.8143 6.01319 20.6957 11.6792 30.2455C17.3451 39.7129 27.0735 35.432 27.0735 35.432L15.8485 17.8143Z"
        fill="#E24C24" />
    <path
        d="M26.8282 35.4651C29.3362 34.5505 28.9316 29.8448 25.9244 24.9547C22.9173 20.0646 18.4464 16.8418 15.9384 17.7565C13.4304 18.6711 13.835 23.3767 16.8421 28.2668C19.8492 33.1569 24.3201 36.3797 26.8282 35.4651Z"
        fill="#FF5A27" />
    <path
        d="M26.3707 34.7211C28.5586 33.9232 28.0993 29.6454 25.3448 25.1662C22.5904 20.687 18.5839 17.7028 16.3961 18.5006C14.2082 19.2985 14.6675 23.5763 17.4219 28.0555C20.1764 32.5347 24.1829 35.519 26.3707 34.7211Z"
        fill="#FF8B78" />
    <path
        d="M20.9799 23.0012C20.5522 22.7542 20.0177 22.5073 19.5901 22.6719C19.3763 22.7542 19.2694 22.9189 19.0556 22.9189C18.8418 22.9189 18.628 22.9189 18.4141 22.9189C18.3072 23.0012 18.2003 23.0835 18.0934 23.1659C17.6658 23.8245 18.2003 24.5654 18.628 25.224C19.9108 26.8705 21.0868 28.517 22.3696 30.1635C22.6903 30.5752 23.118 31.0691 23.7594 31.0691C24.2939 31.0691 24.7215 30.7398 24.9354 30.3282C25.1492 29.9166 25.0423 29.5049 24.9354 29.0933C24.6146 27.8584 24.187 26.6235 23.4387 25.5533C22.6903 24.7301 22.0489 23.7421 20.9799 23.0012Z"
        fill="#FF5A27" />
    <path
        d="M17.2381 20.2019C17.4519 20.5312 17.6657 20.7782 17.9864 21.1075C17.9864 21.1898 18.0934 21.1898 18.2003 21.1898C18.3072 21.1898 18.4141 21.1898 18.4141 21.1075C18.521 21.0251 18.521 20.8605 18.4141 20.6958C18.3072 20.6135 18.3072 20.5312 18.2003 20.4489C18.2003 20.4489 18.2003 20.4489 18.2003 20.5312C18.0934 20.3665 17.8795 20.1196 17.7726 19.9549C17.6657 19.7902 17.4519 19.7902 17.345 19.7902C17.2381 19.8726 17.1312 20.0372 17.2381 20.2019Z"
        fill="#FFB164" />
    <path
        d="M18.9488 20.449C19.1626 20.7783 19.804 20.5313 19.5902 20.202C19.3764 19.8727 18.735 20.1197 18.9488 20.449Z"
        fill="#FFB164" />
    <path
        d="M18.9487 20.4491C19.0556 20.6138 19.1625 20.8607 19.2694 21.0254C19.2694 21.1077 19.3763 21.1077 19.4832 21.19C19.5901 21.19 19.697 21.19 19.804 21.19C19.9109 21.19 19.9109 21.1077 20.0178 21.0254C20.0178 20.9431 20.0178 20.8607 20.0178 20.7784C19.9109 20.6138 19.804 20.3668 19.697 20.2021C19.697 20.1198 19.5901 20.1198 19.4832 20.0375C19.3763 20.0375 19.2694 20.0375 19.1625 20.0375C19.0556 20.0375 19.0556 20.1198 18.9487 20.2021C18.9487 20.2845 18.9487 20.3668 18.9487 20.4491Z"
        fill="#FFB164" />
    <path
        d="M21.5145 21.5193C21.5145 21.5193 21.4076 21.6016 21.4076 21.684C21.4076 21.7663 21.3007 21.7663 21.3007 21.8486C21.3007 21.9309 21.1938 22.0956 21.3007 22.1779C21.3007 22.1779 21.3007 22.2602 21.4076 22.2602L21.5145 22.3426H21.6214H21.7283H21.8352C21.9421 22.3426 21.9421 22.2602 21.9421 22.2602C21.9421 22.1779 22.0491 22.0956 22.0491 22.0956C22.0491 22.0956 22.0491 22.0956 22.0491 22.0133V22.0956V22.0133V22.0956V22.0133V22.0956C22.0491 22.0956 22.0491 22.0133 22.156 22.0133C22.156 22.0133 22.156 22.0133 22.0491 22.0956L22.156 22.0133V21.9309V21.8486C22.156 21.8486 22.156 21.7663 22.0491 21.7663C21.9421 21.684 21.9421 21.684 21.8352 21.684C21.7283 21.437 21.6214 21.437 21.5145 21.5193Z"
        fill="#FFB164" />
    <path
        d="M22.9041 23.0834C22.7972 23.1657 22.6903 23.1657 22.5834 23.248L22.4765 23.3304V23.4127V23.495C22.4765 23.495 22.4765 23.5773 22.5834 23.5773C22.6903 23.6597 22.6903 23.6597 22.7972 23.6597H22.9041C23.011 23.6597 23.011 23.6597 23.118 23.5773C23.2249 23.495 23.3318 23.495 23.4387 23.4127L23.5456 23.3304V23.248V23.1657C23.5456 23.1657 23.5456 23.0834 23.4387 23.0834C23.3318 23.0011 23.3318 23.0011 23.2249 23.0011H23.118C23.011 23.0011 22.9041 23.0011 22.9041 23.0834Z"
        fill="#FFB164" />
    <path
        d="M24.5076 26.5409C24.6145 26.6232 24.8283 26.6232 24.9353 26.7056H25.0422H25.1491C25.1491 26.7056 25.256 26.7056 25.256 26.6232L25.3629 26.5409V26.4586C25.3629 26.3763 25.3629 26.3763 25.3629 26.2939C25.3629 26.2939 25.3629 26.2939 25.3629 26.2116L25.256 26.1293C25.1491 26.047 24.9353 26.047 24.8283 25.9646H24.7214H24.6145C24.6145 25.9646 24.5076 25.9646 24.5076 26.047L24.4007 26.1293V26.2116C24.4007 26.2939 24.4007 26.2939 24.4007 26.3763C24.4007 26.3763 24.4007 26.3763 24.4007 26.4586C24.4007 26.4586 24.5076 26.5409 24.5076 26.5409Z"
        fill="#FFB164" />
    <path
        d="M25.4699 28.9282C25.5768 29.0928 25.7907 29.1752 25.8976 29.3398C26.0045 29.4222 26.0045 29.4222 26.1114 29.4222C26.2183 29.4222 26.3252 29.4222 26.3252 29.3398C26.4321 29.2575 26.4321 29.2575 26.4321 29.1752C26.4321 29.0929 26.4321 29.0105 26.3252 29.0105C26.2183 28.8459 26.0045 28.7635 25.8976 28.5989C25.7907 28.5166 25.7907 28.5166 25.6838 28.5166C25.5768 28.5166 25.4699 28.5166 25.4699 28.5989C25.363 28.6812 25.363 28.6812 25.363 28.7635C25.363 28.8459 25.4699 28.9282 25.4699 28.9282Z"
        fill="#FFB164" />
    <path
        d="M25.6836 30.9864C25.7905 31.2333 26.0043 31.4803 26.2181 31.7273C26.2181 31.8096 26.325 31.8096 26.4319 31.8096C26.5388 31.8096 26.6458 31.8096 26.6458 31.7273C26.7527 31.645 26.7527 31.645 26.7527 31.5626C26.7527 31.4803 26.7527 31.398 26.6458 31.398C26.6458 31.3157 26.5388 31.3157 26.5388 31.2333C26.5388 31.2333 26.5388 31.2333 26.5388 31.3157C26.4319 31.151 26.2181 30.9864 26.2181 30.7394C26.1112 30.5747 25.8974 30.5747 25.7905 30.5747C25.5767 30.6571 25.5767 30.8217 25.6836 30.9864Z"
        fill="#FFB164" />
    <path
        d="M24.7218 32.4683C24.8287 32.7153 24.9356 32.9623 24.9356 33.2916C24.9356 33.3739 25.0425 33.4563 25.0425 33.4563C25.1494 33.4563 25.2563 33.5386 25.2563 33.5386C25.4701 33.5386 25.577 33.3739 25.577 33.2093C25.4701 32.9623 25.3632 32.7153 25.3632 32.386C25.3632 32.3037 25.2563 32.2214 25.2563 32.2214C25.1494 32.2214 25.0425 32.139 25.0425 32.139C24.8287 32.2214 24.7218 32.3037 24.7218 32.4683Z"
        fill="#FFB164" />
    <path
        d="M22.9042 31.8099C22.7973 31.9746 22.7973 32.1392 22.6904 32.3862V32.4685V32.5508C22.6904 32.6332 22.7973 32.6332 22.9042 32.7155C23.0111 32.7155 23.118 32.7155 23.2249 32.7155C23.3318 32.7155 23.3318 32.6332 23.4387 32.5508C23.5457 32.3862 23.5457 32.2215 23.6526 31.9746V31.8922V31.8099C23.6526 31.7276 23.5457 31.7276 23.4387 31.6453C23.3318 31.6453 23.2249 31.6453 23.118 31.6453C23.0111 31.6453 23.0111 31.7276 22.9042 31.8099Z"
        fill="#FFB164" />
    <path
        d="M20.8732 30.3276L20.7663 30.41C20.7663 30.41 20.7663 30.4099 20.8732 30.3276C20.7663 30.4099 20.7663 30.4099 20.6594 30.4923C20.6594 30.4923 20.6594 30.4923 20.7663 30.4923C20.7663 30.4923 20.7663 30.4923 20.6594 30.4923C20.6594 30.4923 20.5525 30.4923 20.5525 30.5746L20.4456 30.6569V30.7393V30.8216C20.4456 30.9039 20.5525 30.9039 20.6594 30.9862C20.7663 30.9862 20.8732 30.9862 20.9801 30.9862C21.087 30.9862 21.1939 30.9039 21.1939 30.8216C21.3008 30.7393 21.3008 30.7393 21.4077 30.6569C21.4077 30.5746 21.5146 30.4923 21.5146 30.4923C21.5146 30.4923 21.5146 30.41 21.4077 30.41L21.3008 30.3276C21.1939 30.3276 21.087 30.2453 21.087 30.2453H20.9801C20.9801 30.2453 20.8732 30.3276 20.8732 30.3276Z"
        fill="#FFB164" />
    <path
        d="M18.7348 27.8581C18.6279 27.9404 18.6279 27.9404 18.521 27.9404C18.6279 27.9404 18.6279 27.9404 18.7348 27.8581C18.521 27.9404 18.4141 28.0227 18.4141 28.0227C18.4141 28.0227 18.3072 28.0227 18.3072 28.105L18.2003 28.1874C18.2003 28.2697 18.2003 28.352 18.2003 28.4343C18.2003 28.5167 18.3072 28.5167 18.4141 28.599H18.521C18.6279 28.599 18.6279 28.599 18.7348 28.599C18.8417 28.599 18.9486 28.5167 18.9486 28.5167C19.0555 28.4343 19.1624 28.4344 19.2693 28.352C19.3762 28.2697 19.3762 28.2697 19.3762 28.1874V28.105C19.3762 28.105 19.3762 28.0227 19.2693 28.0227C19.1624 27.9404 19.1624 27.9404 19.0555 27.9404C18.9486 27.7757 18.8417 27.7757 18.7348 27.8581Z"
        fill="#FFB164" />
    <path
        d="M17.666 25.882H17.5591C17.5591 25.882 17.666 25.882 17.666 25.882C17.5591 25.882 17.5591 25.882 17.4522 25.882C17.5591 25.882 17.5591 25.882 17.666 25.882C17.5591 25.882 17.4522 25.882 17.4522 25.882H17.5591H17.4522H17.3453H17.2383C17.1314 25.882 17.1314 25.9644 17.0245 26.0467C17.0245 26.129 17.0245 26.2113 17.0245 26.2937C17.0245 26.2937 17.0245 26.2937 17.0245 26.376L17.1314 26.4583C17.2383 26.4583 17.2383 26.4583 17.3453 26.5406H17.4522C17.5591 26.5406 17.5591 26.5406 17.666 26.5406C17.7729 26.5406 17.7729 26.5406 17.8798 26.4583C17.9867 26.4583 17.9867 26.376 18.0936 26.2937C18.0936 26.2113 18.0936 26.129 18.0936 26.0467C18.0936 25.9644 17.9867 25.9644 17.8798 25.882C17.8798 25.7997 17.7729 25.7997 17.666 25.882Z"
        fill="#FFB164" />
    <path
        d="M17.4523 23.4125C17.3453 23.4125 17.2384 23.3302 17.1315 23.3302H17.2384C17.0246 23.2478 16.9177 23.1655 16.8108 23.0832C16.7039 23.0832 16.597 23.0832 16.4901 23.0832C16.3832 23.0832 16.2763 23.1655 16.2763 23.1655C16.2763 23.2478 16.1694 23.3302 16.1694 23.3302V23.4125C16.1694 23.4948 16.2763 23.4948 16.2763 23.4948C16.4901 23.6595 16.8108 23.8241 17.1315 23.9064C17.2384 23.9064 17.3453 23.9064 17.4523 23.9064C17.5592 23.9064 17.5592 23.8241 17.6661 23.7418C17.6661 23.6595 17.6661 23.5771 17.6661 23.4948C17.6661 23.4948 17.5592 23.4948 17.4523 23.4125Z"
        fill="#FFB164" />
    <path
        d="M16.0624 21.272C16.1693 21.272 16.2762 21.3543 16.3831 21.3543H16.49H16.5969C16.5969 21.3543 16.7038 21.3543 16.7038 21.272L16.8107 21.1896V21.1073C16.8107 21.025 16.8107 21.025 16.8107 20.9427C16.8107 20.9427 16.8107 20.9427 16.8107 20.8603L16.7038 20.778C16.5969 20.778 16.49 20.6957 16.3831 20.6957H16.2762H16.1693C16.1693 20.6957 16.0624 20.6957 16.0624 20.778L15.9555 20.8603V20.9427C15.9555 21.025 15.9555 21.025 15.9555 21.1073C15.9555 21.1073 15.9555 21.1073 15.9555 21.1896C15.9555 21.272 15.9555 21.272 16.0624 21.272Z"
        fill="#FFB164" />
    <path opacity="0.24"
        d="M11.0377 23.4127C10.9308 24.0713 10.8239 24.8123 11.1446 25.3886C11.2516 25.6355 11.5723 25.8825 11.7861 25.8002C11.9999 25.7179 12.1068 25.4709 12.1068 25.3062C12.2137 24.8946 12.2137 24.4006 12.5344 24.0713C12.962 23.4127 14.2449 22.0955 13.1758 21.3546C11.9999 20.6137 11.1446 22.9188 11.0377 23.4127Z"
        fill="white" />
    <path
        d="M22.7977 26.294C24.1874 25.6354 26.3255 25.8824 27.2877 26.8703C28.4636 25.5531 31.1363 25.3061 32.8467 26.1294C34.6641 26.9526 35.6263 28.5991 35.6263 30.1633C38.5127 29.4224 41.613 31.0689 43.3234 33.0447C43.6441 33.374 43.858 33.7033 44.2856 33.9503C44.8201 34.1973 45.4615 34.2796 46.103 34.2796C51.2344 34.7736 55.7244 38.0666 56.6866 42.0182C57.0073 43.2531 56.9004 44.5703 56.0451 45.5582C55.2968 46.3815 54.1208 46.8754 53.0518 47.2871C51.7689 47.781 50.4861 48.3573 48.9894 48.4396C44.8201 48.6866 42.0406 45.1466 38.2989 43.8294C35.1986 42.7592 31.5639 43.1708 28.4636 42.1006C26.0048 41.2773 23.6529 39.6308 21.5148 38.3959C19.6974 37.3257 18.5215 36.2554 17.88 34.6089C17.0248 32.5508 17.4524 28.5991 21.6217 29.587C20.9803 28.4345 21.4079 26.9526 22.7977 26.294Z"
        fill="#89E269" />
    <path
        d="M122.326 24.2368H119.76C119.333 31.5638 99.3414 35.5977 62.7799 35.5977C27.3943 35.5977 6.44089 30.3289 5.79946 24.2368H3.23374C3.23374 24.2368 2.27159 33.6219 9.11352 44.9828C19.3764 62.0243 33.5948 65.1526 33.5948 65.1526L62.5661 65.5643L91.5373 65.1526C91.5373 65.1526 105.649 62.1066 115.912 45.0652C122.647 33.6219 122.326 24.2368 122.326 24.2368Z"
        fill="#EDCEB9" />
    <path
        d="M91.9651 68.8573V64.9057L62.78 62.1066L33.5949 65.1527V68.8573C33.5949 68.8573 33.3811 70.6685 42.2542 72.9736C54.3345 76.1843 74.1119 75.1141 83.5196 72.9736C92.3927 70.9155 91.9651 68.8573 91.9651 68.8573Z"
        fill="#EDCEB9" />
    <path
        d="M83.4127 72.9732C92.3927 70.915 92.072 68.8569 92.072 68.8569V64.9053L78.7089 63.588C78.7089 63.588 78.7089 63.588 78.602 63.588C77.1053 64.329 75.6086 64.9053 75.5017 66.3871C75.3948 67.9513 76.4639 69.8448 75.6086 71.3267C75.0741 72.2322 73.6843 72.5615 72.4015 72.8085C62.5662 74.5374 52.5171 73.4671 42.8957 71.656C39.9023 71.0797 36.8021 70.4211 34.3433 69.1039C34.1295 69.0215 33.9156 68.8569 33.5949 68.7746C33.5949 68.7746 33.3811 70.5857 42.2542 72.8908C54.2276 76.1839 74.005 75.1136 83.4127 72.9732Z"
        fill="#EABFAC" />
    <path opacity="0.38"
        d="M17.5588 38.7261C16.9174 39.961 17.4519 41.3605 18.0934 42.6777C19.8039 46.1354 22.1558 49.3461 24.8284 52.4745C26.7527 54.6973 29.1046 57.0024 32.5256 57.4963C33.7015 57.661 34.9844 57.5787 36.0534 57.167C37.1225 56.7554 37.8708 55.8498 37.9777 54.9442C37.9777 53.9563 37.3363 53.1331 36.6949 52.3098C35.0913 50.334 33.8084 48.1935 33.0601 45.9707C32.6325 44.4889 32.4187 42.8424 31.4565 41.5251C29.6391 39.0554 19.4831 34.6921 17.5588 38.7261Z"
        fill="white" />
    <path opacity="0.38"
        d="M38.0847 66.6342C37.764 66.6342 37.5502 66.6342 37.2295 66.7988C36.695 67.0458 36.695 67.6221 36.9088 68.0337C37.2295 68.4453 37.764 68.6923 38.1916 68.8569C40.3297 69.6802 42.6816 70.1741 45.1405 70.5034C46.1026 70.6681 47.0648 70.7504 47.92 70.4211C48.7752 70.1741 49.4167 69.3509 48.989 68.6923C48.5614 68.116 47.4924 67.9514 46.6371 67.9514C43.8576 67.7044 40.8643 66.5518 38.0847 66.6342Z"
        fill="white" />
    <path
        d="M122.219 24.2368H119.653C119.44 28.3531 113.025 31.3991 101.052 33.3749C100.41 36.7503 99.0207 40.7019 96.2412 44.9005C87.7957 57.167 79.8847 60.6247 70.2632 63.0945C58.2899 66.2229 44.2853 65.4819 44.2853 65.4819C44.2853 65.4819 58.3968 67.9517 69.6218 67.9517C80.8468 67.9517 91.3235 65.1526 91.3235 65.1526C91.3235 65.1526 105.435 62.1066 115.698 45.0652C122.54 33.6219 122.219 24.2368 122.219 24.2368Z"
        fill="#EABFAC" />
    <path
        d="M122.328 23.5779H119.762C119.762 23.8249 119.762 23.9895 119.762 24.2365C119.442 31.6458 99.4503 35.6798 62.7819 35.6798C27.2894 35.6798 6.33603 30.3286 5.8015 24.2365C5.8015 23.9895 5.90841 23.8249 5.90841 23.5779H3.34268C3.34268 23.8249 3.23578 24.0718 3.23578 24.3188C3.7703 31.0695 25.6858 37.0793 62.7819 37.0793C101.161 37.0793 122.007 32.5514 122.328 24.2365C122.328 23.9895 122.328 23.7425 122.328 23.5779Z"
        fill="#FFDFCA" />
    <path
        d="M13.9241 16.0038L13.3896 19.2145C13.3896 19.2145 14.9932 23.9894 23.8663 25.7182C33.8084 27.6117 41.3987 25.8828 41.9332 21.1903C42.0401 20.4494 40.9711 18.3089 40.9711 18.3089L13.8172 15.8391L13.9241 16.0038Z"
        fill="#59B24F" />
    <path
        d="M41.0945 19.6883C41.8391 16.7427 36.3821 13.4461 28.9058 12.3253C21.4295 11.2044 14.7651 12.6837 14.0204 15.6293C13.2758 18.5749 18.7328 21.8715 26.2091 22.9923C33.6854 24.1132 40.3498 22.6339 41.0945 19.6883Z"
        fill="#84D17D" />
    <path
        d="M40.2229 19.2145C40.0091 21.5196 34.3431 23.0838 27.3943 22.2605C20.4454 21.4373 14.6726 18.3089 14.7795 16.0038C14.9933 13.6987 21.1938 11.9698 28.1426 12.7931C34.9845 13.6163 40.3298 16.9094 40.2229 19.2145Z"
        fill="#B0EDA9" />
    <path
        d="M19.8041 16.004C19.5903 15.8393 19.3765 15.6747 19.3765 15.4277C19.3765 15.0161 20.018 14.9338 20.4456 14.9338C21.4077 15.0161 22.4768 15.1807 23.332 15.51C23.0113 15.1807 22.7975 14.8514 22.6906 14.5221C22.6906 14.4398 22.5837 14.3575 22.6906 14.2751C22.7975 14.1105 23.1182 14.1928 23.332 14.2751C24.4011 14.6868 25.3632 15.2631 26.2184 15.9217C25.8977 15.5924 25.7908 15.1807 25.7908 14.8514C25.7908 14.4398 26.0046 14.1105 26.4323 13.9458C26.9668 13.7812 27.7151 14.0282 28.1427 14.4398C28.5704 14.8514 28.6773 15.3454 28.7842 15.8393C29.6394 15.3454 30.8154 15.1807 31.8844 15.4277C32.0982 15.51 32.4189 15.5924 32.5258 15.757C32.7397 16.0863 32.312 16.3333 31.9913 16.4979C33.2742 16.3333 34.7709 16.7449 35.733 17.5682C35.8399 17.6505 35.9468 17.8152 35.9468 17.8975C35.9468 17.9798 35.8399 18.0621 35.8399 18.0621C35.3054 18.4738 34.6639 18.6384 33.9156 18.7207C33.1673 18.8031 32.4189 18.6384 31.6706 18.5561C32.4189 18.8031 33.0604 19.1324 33.7018 19.544C33.8087 19.6263 33.8087 19.6263 33.9156 19.7086C33.9156 19.791 33.9156 19.791 33.8087 19.8733C33.2742 20.4496 32.2051 20.5319 31.3499 20.2026C30.4947 19.9556 29.7463 19.3793 29.1049 18.8854C29.4256 19.297 29.6394 19.7086 29.5325 20.2026C29.4256 20.6142 28.7842 20.9435 28.2496 20.7789C28.0358 20.6965 27.822 20.5319 27.6082 20.3672C27.0737 19.8733 26.753 19.297 26.5392 18.7207C26.4323 19.4617 25.577 20.0379 24.6149 19.9556C24.4011 19.9556 24.0803 19.8733 23.9734 19.7086C23.7596 19.544 23.7596 19.2147 23.9734 19.05C24.0803 18.8854 24.2942 18.7207 24.6149 18.5561C23.8665 18.8031 23.0113 19.05 22.3699 18.6384C22.1561 18.4738 22.0492 18.3091 22.1561 18.1445C22.263 18.0621 22.3699 17.9798 22.4768 17.8975C22.7975 17.7328 23.7596 17.6505 23.8665 17.4035C22.1561 17.1565 20.9801 16.7449 19.8041 16.004Z"
        fill="#C1FFB8" />
    <path
        d="M60.8558 27.1996C62.5663 26.6233 64.7044 26.6233 66.308 27.2819C66.6287 27.4466 67.1632 27.6112 67.377 27.3643C67.4839 27.2819 67.4839 27.1173 67.4839 26.9526C67.1632 25.3885 65.3458 24.1536 63.2077 24.0712C61.7111 23.9889 60.2144 24.5652 58.8246 25.1415C57.8625 25.5531 56.9003 26.0471 56.0451 26.541C54.8691 27.1996 53.6932 27.9405 53.1586 29.0108C52.731 29.7517 52.5172 31.3982 53.907 31.6452C55.2968 31.8922 55.9382 30.328 56.6865 29.6694C57.8625 28.5992 59.2522 27.6936 60.8558 27.1996Z"
        fill="#0A0B0C" />
    <path
        d="M64.8115 23.9068C62.5665 23.6598 60.3215 24.1537 58.2903 24.977C56.366 25.8003 54.6555 26.9528 52.945 28.1054C51.1276 29.3403 51.2345 31.7277 52.3036 33.2096C53.2657 34.6091 55.2969 35.5147 57.3281 35.6793C59.3593 35.844 61.2836 35.1854 63.101 34.5268C65.0253 33.7858 66.9496 32.9626 68.2324 31.6454C69.6222 30.3282 70.2636 28.5993 69.6222 27.0351C69.0877 25.3063 67.0565 24.1537 64.8115 23.9068ZM65.5598 28.4347C65.0253 29.2579 63.9562 29.9165 62.8872 30.4105C61.8181 30.9044 60.7491 31.2337 59.68 31.5631C58.7179 31.81 57.7557 32.057 56.7936 31.9747C55.8314 31.8924 54.7624 31.5631 54.3348 30.9044C52.3036 28.3524 57.5419 26.3765 59.7869 25.6356C61.0698 25.224 62.4596 25.0593 63.7424 25.3063C64.2769 25.3886 64.7046 25.5533 65.1322 25.8003C66.0943 26.4589 66.2012 27.6114 65.5598 28.4347Z"
        fill="#36383F" />
    <path
        d="M34.4501 10.5709C36.1606 9.99458 38.2987 9.99458 39.9023 10.6532C40.223 10.8178 40.7575 10.9825 40.9714 10.7355C41.0783 10.6532 41.0783 10.4885 41.0783 10.3239C40.7575 8.7597 38.9402 7.52481 36.8021 7.44249C35.3054 7.36016 33.8087 7.93644 32.4189 8.51272C31.4568 8.92435 30.4947 9.4183 29.6394 9.91226C28.4635 10.5709 27.2875 11.3118 26.753 12.382C26.3254 13.123 26.1115 14.7695 27.5013 15.0165C28.8911 15.2634 29.5325 13.6992 30.2808 13.0406C31.4568 11.9704 32.8466 11.0648 34.4501 10.5709Z"
        fill="#0A0B0C" />
    <path
        d="M38.4058 7.19511C36.1608 6.94814 33.9158 7.44209 31.8846 8.26535C29.9603 9.0886 28.2498 10.2412 26.5393 11.3937C24.7219 12.6286 24.8288 15.0161 25.8979 16.4979C26.86 17.8975 28.8912 18.803 30.9224 18.9677C32.9536 19.1323 34.8779 18.4737 36.6953 17.8151C38.6196 17.0742 40.5439 16.2509 41.8267 14.9337C43.2165 13.6165 43.8579 11.8877 43.2165 10.3235C42.682 8.59465 40.6508 7.44209 38.4058 7.19511ZM39.1541 11.8054C38.6196 12.6286 37.5505 13.2049 36.4815 13.6988C35.4124 14.1928 34.3434 14.5221 33.2743 14.8514C32.3122 15.0984 31.35 15.3454 30.3879 15.263C29.4258 15.1807 28.3567 14.8514 27.9291 14.1928C25.8979 11.6407 31.1362 9.66488 33.3812 8.92395C34.6641 8.51232 36.0539 8.34767 37.3367 8.59465C37.8713 8.67698 38.2989 8.84163 38.7265 9.0886C39.6886 9.74721 39.7955 10.8998 39.1541 11.8054Z"
        fill="#36383F" />
    <path
        d="M110.46 15.6736C111.849 16.6615 112.812 18.061 112.812 19.4605C112.812 19.7898 112.812 20.2015 113.239 20.2838C113.453 20.2838 113.667 20.2015 113.774 20.1191C115.484 19.2136 116.126 17.3201 115.27 15.9205C114.629 14.8503 113.346 14.027 112.063 13.3684C111.101 12.8745 110.139 12.4629 109.177 12.0512C107.894 11.5573 106.504 11.0633 105.008 11.1456C103.938 11.228 101.907 11.8043 102.228 12.8745C102.549 13.9447 104.687 13.6977 105.756 13.9447C107.573 14.1917 109.177 14.768 110.46 15.6736Z"
        fill="#0A0B0C" />
    <path
        d="M116.126 16.9087C115.484 15.2622 113.88 13.8627 112.063 12.8748C110.246 11.8869 108.108 11.2283 106.076 10.5697C103.938 9.91105 101.052 10.9813 99.8759 12.3808C98.7 13.698 98.4862 15.4269 99.2345 16.9087C99.9828 18.3906 101.586 19.4608 103.19 20.4487C104.9 21.4366 106.718 22.3422 108.856 22.7539C110.887 23.0832 113.346 22.8362 114.843 21.7659C116.339 20.5311 116.767 18.6376 116.126 16.9087ZM111.101 19.4608C109.818 19.4608 108.642 18.9669 107.68 18.4729C106.718 17.979 105.756 17.4027 104.9 16.7441C104.152 16.2501 103.511 15.6738 103.19 14.9329C102.869 14.192 102.762 13.3687 103.297 12.7101C105.435 10.2404 110.032 12.8748 111.849 14.192C112.918 14.9329 113.667 15.7562 113.987 16.8264C114.094 17.238 114.094 17.6497 113.987 17.979C113.667 18.9669 112.384 19.5432 111.101 19.4608Z"
        fill="#36383F" />
    <path
        d="M69.3013 21.6016C69.3013 21.6016 73.7913 30.1635 86.7269 27.6937C99.6624 25.2239 104.901 19.0495 106.077 17.9793C108.536 15.6741 108.429 12.2988 108.429 12.2988L69.3013 21.6016Z"
        fill="#FFECD7" />
    <path
        d="M75.1809 20.202C75.074 20.202 78.495 26.0472 84.5886 25.1416C96.6688 23.3304 94.7445 15.5918 94.7445 15.5918L75.1809 20.202Z"
        fill="#FFDC31" />
    <path opacity="0.52"
        d="M102.228 16.662C101.48 18.6378 98.9143 19.7904 97.0969 21.1899C96.7762 21.4369 96.3485 21.8485 96.5623 22.1778C96.6692 22.4248 97.0969 22.5894 97.5245 22.5071C97.8452 22.5071 98.1659 22.3425 98.4866 22.1778C99.9833 21.3545 101.266 20.3666 102.442 19.2964C103.725 18.1438 105.115 16.909 105.329 15.3448C105.329 15.1801 105.329 15.0155 105.329 14.8508C105.008 14.1922 103.832 14.5215 103.297 14.8508C102.656 15.3448 102.442 16.0034 102.228 16.662Z"
        fill="white" />
</svg>
